<?xml version="1.0" encoding="UTF-8"?>
<svg width="251px" height="84px" viewBox="0 0 251 84" version="1.1" xmlns="http://www.w3.org/2000/svg" xmlns:xlink="http://www.w3.org/1999/xlink">
    <title>logo / white Arabic</title>
    <defs>
        <polygon id="path-1" points="0.000109620991 0.177923729 3.83684431 0.177923729 3.83684431 4.03358051 0.000109620991 4.03358051"></polygon>
    </defs>
    <g id="logo-/-white-Arabic" stroke="none" stroke-width="1" fill="none" fill-rule="evenodd">
        <g id="Group-16">
            <polygon id="Fill-1" fill="#FFFFFF" points="198 0 221.582064 40 198 80 227.18816 80 250.727273 40 227.18816 0"></polygon>
            <g id="Group-34" transform="translate(0.000000, 1.000000)">
                <path d="M152.263557,50.5676864 C152.263557,54.3134492 148.974927,56.1312458 145.795918,56.1312458 C144.261224,56.1312458 142.123615,55.9109068 139.054227,54.4787034 L139.054227,51.1736186 L141.959184,51.1736186 L142.562099,52.0549746 C143.493878,52.4956525 144.590087,52.7154407 145.686297,52.7154407 C147.330612,52.7154407 148.700875,52.1100593 148.700875,50.7329407 C148.700875,49.0253136 146.727697,48.3642966 144.754519,47.7032797 C142.068805,46.8770085 139.054227,45.7202288 139.054227,42.2498898 C139.054227,38.4490424 142.233236,36.7965 145.467055,36.7965 C146.672886,36.7965 148.536443,36.9617542 151.441399,38.5041271 L151.441399,41.5337881 L148.536443,41.5337881 L148.097959,40.8176864 C147.220991,40.3770085 146.398834,40.1566695 145.467055,40.1566695 C144.041983,40.1566695 142.61691,40.8176864 142.61691,42.2498898 C142.61691,43.4066695 144.041983,43.9575169 146.234402,44.7287034 C149.413411,45.7753136 152.263557,46.7117542 152.263557,50.5676864" id="Fill-1" fill="#FFFFFF"></path>
                <path d="M176.32531,49.4659915 C176.270499,49.7414153 176.270499,50.0719237 176.270499,50.2922627 C176.270499,51.8346356 176.983036,52.6609068 178.298487,52.6609068 C179.778371,52.6609068 181.258254,51.6693814 182.518896,50.7874746 L182.518896,47.6481949 L176.32531,49.4659915 Z M182.573706,42.4151441 C182.573706,40.9278559 181.806359,40.3770085 180.874581,40.3770085 C179.833181,40.3770085 178.243677,40.9278559 177.147467,41.5888729 L177.147467,42.9109068 L173.639595,42.9109068 L173.639595,40.2117542 C175.777205,38.5041271 179.230266,36.9066695 181.258254,36.9066695 C183.889158,36.9066695 186.026767,38.3939576 186.026767,42.2498898 L186.026767,52.4400169 L187.999945,52.4400169 L187.999945,55.0846356 L184.327642,55.855822 L183.067001,55.855822 L183.067001,53.9829407 C181.367875,55.3049746 179.833181,56.0205254 178.298487,56.0205254 C174.626184,56.0205254 173.146301,53.3770085 173.146301,50.4024322 C173.146301,49.4103559 173.310732,48.1990424 173.639595,47.0973475 L182.573706,44.5634492 L182.573706,42.4151441 Z" id="Fill-3" fill="#FFFFFF"></path>
                <path d="M116.636735,47.9785932 C118.719534,47.9785932 120.363848,46.3811356 120.363848,44.2328305 C120.363848,42.0845254 118.719534,40.4319831 116.636735,40.4319831 C114.553936,40.4319831 112.909621,42.1396102 112.909621,44.2328305 C112.909621,46.3811356 114.553936,47.9785932 116.636735,47.9785932 L116.636735,47.9785932 Z M112.690379,50.4574068 C110.662391,49.0252034 109.346939,46.9870678 109.346939,44.2328305 C109.346939,40.1565593 112.580758,36.7963898 116.636735,36.7963898 C117.458892,36.7963898 118.226239,36.9616441 118.938776,37.1819831 L126.173761,37.1819831 L126.173761,40.4319831 L123.268805,41.093 C123.707289,42.0845254 123.981341,43.0760508 123.981341,44.1777458 C123.981341,48.2540169 120.692711,51.5591017 116.691545,51.5591017 C116.198251,51.5591017 115.759767,51.5040169 115.321283,51.4489322 L114.115452,53.5421525 L119.158017,53.5421525 C122.117784,53.5421525 124.584257,55.9658814 124.584257,58.9955424 C124.584257,62.0252034 122.172595,63.9531695 119.158017,64.5040169 C116.08863,65.0548644 114.608746,64.7794407 113.348105,64.5040169 C112.087464,64.283678 109.127697,63.1268983 108.469971,61.3641864 C107.976676,60.0421525 108.579592,59.0506271 108.579592,59.0506271 L110.55277,56.902322 L112.690379,56.902322 C112.690379,56.902322 111.64898,58.2243559 111.64898,59.4913051 C111.64898,59.9319831 111.868222,60.7031695 113.348105,61.3091017 C114.827988,61.8599492 117.23965,62.0802881 119.048397,61.4192712 C120.254227,60.9785932 121.131195,60.152322 121.131195,58.9955424 C121.131195,57.8938475 120.199417,56.902322 119.048397,56.902322 L110.55277,56.902322 L110.059475,54.7540169 L112.690379,50.4574068 Z" id="Fill-5" fill="#FFFFFF"></path>
                <polygon id="Fill-7" fill="#FFFFFF" points="134.39528 52.6607966 135.765543 52.6607966 135.765543 55.8557119 129.517146 55.8557119 129.517146 52.6607966 130.887409 52.6607966 130.887409 40.3768983 129.681578 40.3768983 129.681578 37.1819831 133.737555 37.1819831 134.39528 37.1819831"></polygon>
                <path d="M134.176093,32.3345805 C134.176093,31.2879703 133.299125,30.4066144 132.257726,30.4066144 C131.216327,30.4066144 130.339359,31.2879703 130.339359,32.3345805 C130.339359,33.4362754 131.161516,34.2625466 132.257726,34.2625466 C133.353936,34.2625466 134.176093,33.3811907 134.176093,32.3345805" id="Fill-9" fill="#FFFFFF"></path>
                <path d="M159.114869,55.8556017 L155.661808,55.8556017 L155.661808,27.1564492 L159.114869,27.9276356 L159.114869,38.6140763 C161.033236,37.4022119 162.622741,36.8513644 164.705539,36.8513644 C167.446064,36.8513644 169.528863,38.448822 169.802915,42.0293305 C169.857726,43.2411949 169.967347,45.830178 169.967347,48.6395 L169.967347,55.8556017 L166.514286,55.8556017 L166.514286,48.8047542 C166.514286,46.1606864 166.514286,43.7369576 166.404665,42.6903475 C166.240233,41.2030593 165.253644,40.7072966 163.993003,40.7072966 C162.239067,40.7072966 160.101458,41.7539068 159.169679,42.580178 L159.169679,55.8556017 L159.114869,55.8556017 Z" id="Fill-11" fill="#FFFFFF"></path>
                <path d="M134.176093,32.2794407 C134.176093,31.2328305 133.299125,30.3514746 132.257726,30.3514746 C131.161516,30.3514746 130.339359,31.2328305 130.339359,32.2794407 C130.339359,33.3811356 131.161516,34.2074068 132.257726,34.2074068 C133.299125,34.2624915 134.176093,33.3811356 134.176093,32.2794407" id="Fill-13" fill="#FFFFFF"></path>
                <g id="Group-17" transform="translate(107.428571, 0.372924)">
                    <mask id="mask-2" fill="white">
                        <use xlink:href="#path-1"></use>
                    </mask>
                    <g id="Clip-16"></g>
                    <path d="M3.83684431,2.10561441 C3.83684431,1.05900424 2.95987638,0.177648305 1.91847697,0.177648305 C0.822267055,0.177648305 0.000109620991,1.05900424 0.000109620991,2.10561441 C0.000109620991,3.20730932 0.822267055,4.03358051 1.91847697,4.03358051 C2.95987638,4.03358051 3.83684431,3.20730932 3.83684431,2.10561441" id="Fill-15" fill="#FFFFFF" mask="url(#mask-2)"></path>
                </g>
                <path d="M159.114869,55.8007373 L155.661808,55.8007373 L155.661808,27.1566695 L159.114869,27.9278559 L159.114869,38.6142966 C161.033236,37.4024322 162.622741,36.8515847 164.705539,36.8515847 C167.446064,36.8515847 169.528863,38.4490424 169.802915,42.0295508 C169.857726,43.2414153 169.967347,45.8303983 169.967347,48.6397203 L169.967347,55.855822 L166.514286,55.855822 L166.514286,48.7498898 C166.514286,46.105822 166.514286,43.6820932 166.404665,42.6354831 C166.240233,41.1481949 165.253644,40.6524322 163.993003,40.6524322 C162.239067,40.6524322 160.101458,41.6990424 159.114869,42.5253136 L159.114869,55.8007373 Z" id="Fill-18" fill="#FFFFFF"></path>
                <path d="M83.0380105,12.1735085 L84.4630834,11.6777458 L84.3534624,8.37266102 C84.2986519,8.31757627 83.4764945,7.60147458 82.8187685,7.60147458 L69.7190601,7.60147458 L68.8969026,6.6650339 L67.0333458,6.88537288 L67.0333458,6.94045763 C67.4718297,10.0802881 67.5266402,11.5675763 67.5266402,11.5675763 L67.5266402,11.622661 L67.5266402,11.6777458 L80.5167277,11.6777458 L80.5167277,26.6057119 L80.5715382,26.6057119 L80.5715382,26.6607966 L80.6811592,26.6607966 C80.6811592,26.6607966 82.3802845,26.2201186 83.9149784,25.7243559 L83.9697889,25.7243559 L83.9697889,25.6692712 C83.0380105,20.6014746 83.0380105,12.8896102 83.0380105,12.1735085" id="Fill-20" fill="#FFFFFF"></path>
                <path d="M71.1988886,15.2583093 L68.5679848,16.19475 L67.7458274,26.6057669 L67.8006379,26.6057669 L67.8006379,26.6608517 L67.9102589,26.6608517 C67.9102589,26.6608517 70.0478682,26.2201737 70.9796466,25.94475 L71.0344571,25.94475 L71.0344571,25.8896653 L71.0344571,23.8515297 L71.0344571,20.2159364 C71.0892676,17.5167839 71.2536991,15.5337331 71.2536991,15.4786483 L71.1988886,15.2583093 Z" id="Fill-22" fill="#FFFFFF"></path>
                <path d="M112.251895,7.65672458 L112.251895,7.65672458 L106.935277,7.60163983 L106.935277,7.65672458 C106.825656,7.98723305 107.209329,10.9618093 107.26414,11.3474025 L108.579592,12.2287585 C107.31895,21.64825 103.153353,21.9787585 98.7685131,22.3092669 L98.2204082,22.3643517 C98.6040816,21.4829958 100.63207,16.6906229 102.221574,12.1736737 L104.194752,11.457572 L104.194752,11.4024873 C104.194752,11.2923178 104.030321,8.42791102 103.537026,7.71180932 C103.482216,7.65672458 103.482216,7.60163983 103.427405,7.60163983 L98.3300292,7.60163983 L98.4396501,11.1821483 L99.5906706,12.0635042 C98.5492711,16.5253686 96.4664723,21.7033347 96.1376093,22.5296059 C96.0827988,22.4745212 96.0279883,22.4194364 95.9183673,22.2541822 C95.2058309,21.3177415 93.6163265,18.5635042 93.3422741,11.89825 L95.1510204,11.457572 L95.1510204,11.4024873 C95.1510204,11.4024873 95.2058309,9.2541822 94.7125364,7.65672458 L94.7125364,7.60163983 L94.7125364,7.54655508 L92.1364431,7.54655508 L91.6431487,6.66519915 L91.6431487,6.61011441 L89.7795918,6.61011441 L89.7795918,11.1821483 L89.8344023,11.1821483 L91.4787172,12.0635042 C91.4787172,21.5931653 93.5067055,26.2753686 93.561516,26.3304534 L93.561516,26.3855381 L93.561516,26.4406229 L93.6163265,26.4406229 C105.345773,26.3304534 107.26414,22.4745212 107.31895,22.3092669 C107.31895,22.2541822 109.730612,18.9490975 111.046064,11.9533347 L112.471137,11.2372331 L112.251895,7.65672458 Z" id="Fill-24" fill="#FFFFFF"></path>
                <path d="M123.597777,9.14384746 C123.597777,9.14384746 123.542967,8.97859322 123.378535,8.75825424 C123.049672,8.31757627 122.172704,7.65655932 120.199527,7.65655932 L119.377369,7.65655932 L118.555212,6.72011864 L116.801276,6.99554237 L116.801276,7.05062712 C117.29457,10.1904576 117.184949,11.5124915 117.184949,11.5124915 L117.184949,11.622661 L117.23976,11.622661 L117.23976,11.6777458 L117.349381,11.6777458 C117.349381,11.6777458 118.39078,11.622661 119.103317,11.622661 C119.651422,11.622661 119.761043,11.6777458 119.815853,11.6777458 C120.692821,11.6777458 121.131305,12.0082542 121.350547,12.3387627 C121.460168,12.5040169 121.514978,12.6692712 121.514978,12.6692712 C121.514978,12.6692712 121.843841,13.8260508 119.925474,16.6353729 L119.870664,16.6904576 L119.925474,16.6904576 L119.980285,16.7455424 C119.980285,16.7455424 122.008273,18.0124915 122.665999,18.3980847 L122.720809,18.4531695 L122.77562,18.343 C124.96804,12.283678 123.597777,9.14384746 123.597777,9.14384746" id="Fill-26" fill="#FFFFFF"></path>
                <path d="M138.396611,25.2287034 C135.491655,19.9956525 135.491655,16.3049746 135.436844,13.2753136 C135.436844,12.3388729 135.436844,11.4024322 135.327223,10.576161 C135.327223,10.5210763 135.107981,9.08887288 134.450255,8.26260169 C134.176203,7.87700847 133.792529,7.60158475 133.299235,7.60158475 L130.613521,7.60158475 L129.846174,6.83039831 L128.092238,7.10582203 L128.092238,7.16090678 C128.530722,10.3007373 128.640343,11.4024322 128.640343,11.4575169 L128.640343,11.5126017 L128.640343,11.5676864 L131.216436,11.5676864 C131.65492,11.5676864 132.038594,11.8981949 132.312646,12.2287034 C132.641509,12.7244661 132.860751,13.2202288 132.860751,13.2202288 C133.079993,14.9829407 133.408856,17.516839 133.463666,18.0676864 C133.189614,18.2329407 132.970372,18.6185339 132.69632,19.0592119 C131.928973,20.326161 130.723142,22.2541271 127.598943,22.2541271 C127.324891,22.2541271 126.996028,22.2541271 126.667165,22.1990424 L126.557544,22.1990424 L126.941217,26.2202288 L126.941217,26.2753136 L130.668331,26.2753136 L130.723142,26.2202288 C131.983783,24.6227712 133.573287,21.4829407 134.011771,20.6015847 L135.272413,26.6609068 L135.272413,26.7159915 L135.382034,26.605822 C136.09457,25.9998898 138.23218,25.3388729 138.28699,25.2837881 L138.396611,25.2287034 Z" id="Fill-28" fill="#FFFFFF"></path>
                <path d="M5.1522414,48.6945847 C2.19247464,46.8767881 0.219296793,44.8386525 5.48104956e-05,42.9657712 L3.61754752,41.6437373 C4.05603149,42.9657712 5.1522414,44.3979746 7.39947172,45.7200085 C10.304428,47.3725508 14.6344571,48.1437373 20.1155067,48.0335678 C25.7609878,47.8683136 29.5977224,47.1522119 32.1190052,45.7200085 C34.2566146,44.5081441 35.407635,43.2411949 35.9009294,42.6352627 L36.0105504,15.919161 L39.6828536,14.6522119 L39.5184222,42.8005169 C39.8472851,43.6267881 41.3271685,46.5462797 45.3283347,46.5462797 C50.0968478,46.5462797 51.2478682,43.8471271 51.5767312,42.9657712 L51.5767312,15.919161 L55.3586554,14.6522119 L55.2490344,43.0208559 C55.4682764,43.7920424 56.6192968,46.5462797 61.7714834,46.5462797 C66.7592385,46.5462797 67.6362064,44.7835678 67.6362064,44.7835678 L67.6362064,36.080178 L71.1440781,35.198822 C71.1440781,35.198822 70.4863522,40.4318729 71.2536991,44.2327203 C71.5825621,45.9403475 73.6105504,46.9869576 76.4606962,46.9869576 C79.5848945,46.9869576 80.8455359,44.7835678 80.8455359,44.7835678 L80.5714834,36.0250932 L84.1889761,34.9233983 C84.1889761,34.9233983 83.6956816,42.359839 84.7918915,44.7284831 C85.4496175,46.1606864 87.6420373,46.9318729 89.6152152,46.9318729 C93.4519499,46.9318729 94.1096758,44.5632288 94.1096758,44.5632288 L94.1096758,33.3810254 L97.7271685,32.609839 C97.7271685,32.609839 96.6857691,41.8640763 98.001221,44.4530593 C98.7137574,45.8852627 101.399472,46.4361102 103.153408,46.4361102 L103.208218,46.4361102 C105.67469,46.4361102 107.264195,45.2793305 107.702679,44.7284831 C108.470026,43.7920424 109.072941,42.580178 109.730667,41.5886525 C110.552824,40.3767881 111.100929,39.330178 111.758655,38.669161 L114.279938,41.0928898 C113.622212,41.1479746 113.183728,42.4700085 112.635623,43.5166186 C112.032708,44.6183136 111.15574,45.7750932 110.278772,46.8217034 C109.511425,47.8132288 107.264195,50.0717034 103.208218,50.0717034 L103.153408,50.0717034 C99.8647778,50.0717034 97.672358,49.1352627 96.3020956,47.5378051 C94.9866437,49.3556017 92.9586554,50.3471271 89.7248362,50.3471271 C86.6554484,50.3471271 84.4082181,49.1352627 83.0379557,47.4827203 C81.6676933,49.1352627 79.530084,50.5123814 76.4606962,50.5123814 C73.336498,50.5123814 70.8700257,49.2454322 69.6093843,47.4827203 C68.0746904,48.9700085 65.7726496,50.0717034 61.8262939,50.0717034 C57.5510752,50.0717034 54.9201714,48.5293305 53.3854776,46.7666186 C51.9604047,48.198822 49.2746904,50.1818729 45.3831452,50.0717034 C41.710842,49.9615339 39.2443697,48.1437373 37.8192968,46.2157712 C36.7778974,47.1522119 35.188393,48.3089915 32.9959732,49.3556017 C29.8717749,50.8428898 25.3225038,51.7242458 20.0058857,51.7242458 C14.0315417,51.8895 8.44087114,50.7327203 5.1522414,48.6945847" id="Fill-30" fill="#FFFFFF"></path>
                <path d="M23.0205178,35.3091017 C20.9925294,35.3091017 19.3482146,34.7031695 18.0327627,33.4362203 C19.0741621,32.0591017 20.499235,31.3980847 22.2531708,31.3980847 C22.6916548,31.3980847 23.8974857,31.563339 24.4455907,31.7285932 L25.3225586,28.6989322 C25.3225586,28.6989322 24.7196431,28.2031695 23.5138122,28.2031695 C21.6502554,28.2031695 19.4030251,28.8091017 18.3068152,30.1862203 C16.8269318,31.9489322 16.1143953,33.4362203 16.1143953,34.6480847 C16.1143953,36.3006271 16.9913633,37.3472373 18.6904886,37.7328305 C17.7038997,38.8896102 17.0461738,40.3218136 16.7173108,42.0294407 C18.8001096,39.7158814 21.4310134,38.3387627 24.6648327,37.8980847 L25.9254741,34.6480847 C24.7196431,35.0887627 23.7878647,35.3091017 23.0205178,35.3091017" id="Fill-32" fill="#FFFFFF"></path>
            </g>
        </g>
        <path d="M184.132,80.0260323 C184.648,80.0260323 185.0305,79.8749252 185.2795,79.572711 C185.5285,79.2704967 185.653,78.8620586 185.653,78.3473968 C185.653,78.0780969 185.6125,77.834231 185.5315,77.6157989 C185.4505,77.3973668 185.3395,77.208857 185.1985,77.0502693 C185.0575,76.8916816 184.891,76.7690006 184.699,76.6822262 C184.507,76.5954518 184.297,76.5520646 184.069,76.5520646 C183.907,76.5520646 183.7435,76.5730102 183.5785,76.6149013 C183.4135,76.6567923 183.2515,76.7420706 183.0925,76.8707361 C182.9335,76.9994016 182.7775,77.181927 182.6245,77.4183124 C182.4715,77.6546978 182.326,77.9643926 182.188,78.3473968 C182.122,78.52693 182.0515,78.6690604 181.9765,78.7737882 C181.9015,78.8785159 181.825,78.9608019 181.747,79.0206463 C181.669,79.0804907 181.591,79.1193896 181.513,79.1373429 C181.435,79.1552962 181.36,79.1642729 181.288,79.1642729 L181.288,79.1642729 L180.919,79.1642729 C180.793,79.1642729 180.7015,79.1912029 180.6445,79.2450628 C180.5875,79.2989228 180.559,79.4006583 180.559,79.5502693 C180.559,79.7896469 180.679,79.9093357 180.919,79.9093357 L180.919,79.9093357 L181.306,79.9093357 C181.414,79.9093357 181.516,79.9048474 181.612,79.8958707 C181.708,79.8868941 181.801,79.8659485 181.891,79.8330341 C181.981,79.8001197 182.0665,79.7492519 182.1475,79.6804309 C182.2285,79.6116098 182.308,79.5173549 182.386,79.3976661 C182.692,79.6250748 182.989,79.7866547 183.277,79.8824057 C183.565,79.9781568 183.85,80.0260323 184.132,80.0260323 Z M184.069,79.2630162 C183.841,79.2630162 183.6175,79.219629 183.3985,79.1328546 C183.1795,79.0460802 182.959,78.9308797 182.737,78.7872531 C182.923,78.2307002 183.121,77.8417115 183.331,77.6202873 C183.541,77.398863 183.772,77.2881508 184.024,77.2881508 C184.168,77.2881508 184.294,77.3165769 184.402,77.3734291 C184.51,77.4302813 184.6015,77.5065829 184.6765,77.6023339 C184.7515,77.698085 184.8085,77.8087971 184.8475,77.9344704 C184.8865,78.0601436 184.906,78.1888091 184.906,78.3204668 C184.906,78.6615799 184.8295,78.9039497 184.6765,79.0475763 C184.5235,79.1912029 184.321,79.2630162 184.069,79.2630162 Z M173.575,79.9093357 C173.839,79.9093357 174.0655,79.9018552 174.2545,79.8868941 C174.4435,79.871933 174.6025,79.8420108 174.7315,79.7971275 C174.8605,79.7522442 174.9655,79.6923998 175.0465,79.6175943 C175.1275,79.5427887 175.195,79.4425494 175.249,79.3168761 C175.285,79.3886894 175.33,79.4605027 175.384,79.532316 C175.438,79.6041293 175.51,79.668462 175.6,79.7253142 C175.69,79.7821664 175.8055,79.8270497 175.9465,79.8599641 C176.0875,79.8928785 176.263,79.9093357 176.473,79.9093357 C176.785,79.9093357 177.0535,79.8734291 177.2785,79.8016158 C177.5035,79.7298025 177.67,79.5712148 177.778,79.3258528 C177.808,79.3916816 177.8485,79.4590066 177.8995,79.5278276 C177.9505,79.5966487 178.021,79.6594853 178.111,79.7163375 C178.201,79.7731897 178.3135,79.8195691 178.4485,79.8554758 C178.5835,79.8913824 178.75,79.9093357 178.948,79.9093357 C179.02,79.9093357 179.107,79.9018552 179.209,79.8868941 C179.311,79.871933 179.416,79.8435069 179.524,79.8016158 C179.632,79.7597247 179.734,79.7013764 179.83,79.6265709 C179.926,79.5517654 180.001,79.451526 180.055,79.3258528 C180.103,79.4934171 180.199,79.6325554 180.343,79.7432675 C180.487,79.8539797 180.676,79.9093357 180.91,79.9093357 C181.036,79.9093357 181.1275,79.8824057 181.1845,79.8285458 C181.2415,79.7746858 181.27,79.6729503 181.27,79.5233393 C181.27,79.2839617 181.15,79.1642729 180.91,79.1642729 C180.754,79.1642729 180.625,79.1403351 180.523,79.0924596 C180.421,79.0445841 180.34,78.9787552 180.28,78.8949731 C180.22,78.8111909 180.1795,78.7079593 180.1585,78.5852783 C180.1375,78.4625972 180.127,78.3264512 180.127,78.1768402 L180.127,78.1768402 L180.127,76.4533214 L179.389,76.4533214 L179.389,78.5089767 C179.389,78.6585877 179.3725,78.7767804 179.3395,78.8635548 C179.3065,78.9503291 179.26,79.016158 179.2,79.0610413 C179.14,79.1059246 179.068,79.1343507 178.984,79.1463196 C178.9,79.1582885 178.807,79.1642729 178.705,79.1642729 C178.525,79.1642729 178.3795,79.1403351 178.2685,79.0924596 C178.1575,79.0445841 178.0705,78.9787552 178.0075,78.8949731 C177.9445,78.8111909 177.9025,78.7079593 177.8815,78.5852783 C177.8605,78.4625972 177.85,78.3264512 177.85,78.1768402 L177.85,78.1768402 L177.85,76.9021544 L177.112,76.9021544 L177.112,78.5089767 C177.112,78.6585877 177.0955,78.7767804 177.0625,78.8635548 C177.0295,78.9503291 176.98,79.016158 176.914,79.0610413 C176.848,79.1059246 176.767,79.1343507 176.671,79.1463196 C176.575,79.1582885 176.461,79.1642729 176.329,79.1642729 C176.119,79.1642729 175.9525,79.1403351 175.8295,79.0924596 C175.7065,79.0445841 175.612,78.9787552 175.546,78.8949731 C175.48,78.8111909 175.438,78.7079593 175.42,78.5852783 C175.402,78.4625972 175.393,78.3264512 175.393,78.1768402 L175.393,78.1768402 L175.393,76.9021544 L174.655,76.9021544 L174.655,78.5089767 C174.655,78.6585877 174.637,78.7767804 174.601,78.8635548 C174.565,78.9503291 174.5065,79.016158 174.4255,79.0610413 C174.3445,79.1059246 174.235,79.1343507 174.097,79.1463196 C173.959,79.1582885 173.791,79.1642729 173.593,79.1642729 L173.593,79.1642729 L173.278,79.1642729 C173.152,79.1642729 173.0605,79.1912029 173.0035,79.2450628 C172.9465,79.2989228 172.918,79.4006583 172.918,79.5502693 C172.918,79.7896469 173.038,79.9093357 173.278,79.9093357 L173.278,79.9093357 L173.575,79.9093357 Z M171.001,79.9093357 C171.373,79.9093357 171.6775,79.8734291 171.9145,79.8016158 C172.1515,79.7298025 172.324,79.5712148 172.432,79.3258528 C172.48,79.4934171 172.5745,79.6325554 172.7155,79.7432675 C172.8565,79.8539797 173.044,79.9093357 173.278,79.9093357 C173.404,79.9093357 173.4955,79.8824057 173.5525,79.8285458 C173.6095,79.7746858 173.638,79.6729503 173.638,79.5233393 C173.638,79.2839617 173.518,79.1642729 173.278,79.1642729 C173.008,79.1642729 172.8115,79.0760024 172.6885,78.8994614 C172.5655,78.7229204 172.504,78.4820467 172.504,78.1768402 L172.504,78.1768402 L172.504,73.5 L171.766,73.5 L171.766,78.5089767 C171.766,78.6585877 171.7495,78.7767804 171.7165,78.8635548 C171.6835,78.9503291 171.6385,79.016158 171.5815,79.0610413 C171.5245,79.1059246 171.454,79.1343507 171.37,79.1463196 C171.286,79.1582885 171.19,79.1642729 171.082,79.1642729 L171.082,79.1642729 L170.362,79.1642729 C170.236,79.1642729 170.1445,79.1912029 170.0875,79.2450628 C170.0305,79.2989228 170.002,79.4006583 170.002,79.5502693 C170.002,79.7896469 170.122,79.9093357 170.362,79.9093357 L170.362,79.9093357 L171.001,79.9093357 Z M167.788,79.9093357 C168.046,79.9093357 168.271,79.9018552 168.463,79.8868941 C168.655,79.871933 168.8185,79.8435069 168.9535,79.8016158 C169.0885,79.7597247 169.201,79.7013764 169.291,79.6265709 C169.381,79.5517654 169.453,79.451526 169.507,79.3258528 C169.555,79.4934171 169.651,79.6325554 169.795,79.7432675 C169.939,79.8539797 170.128,79.9093357 170.362,79.9093357 C170.488,79.9093357 170.5795,79.8824057 170.6365,79.8285458 C170.6935,79.7746858 170.722,79.6729503 170.722,79.5233393 C170.722,79.2839617 170.602,79.1642729 170.362,79.1642729 C170.206,79.1642729 170.077,79.1403351 169.975,79.0924596 C169.873,79.0445841 169.792,78.9787552 169.732,78.8949731 C169.672,78.8111909 169.6315,78.7079593 169.6105,78.5852783 C169.5895,78.4625972 169.579,78.3264512 169.579,78.1768402 L169.579,78.1768402 L169.579,73.5 L168.841,73.5 L168.841,78.5089767 C168.841,78.6585877 168.823,78.7767804 168.787,78.8635548 C168.751,78.9503291 168.6925,79.016158 168.6115,79.0610413 C168.5305,79.1059246 168.421,79.1343507 168.283,79.1463196 C168.145,79.1582885 167.977,79.1642729 167.779,79.1642729 L167.779,79.1642729 L164.494,79.1642729 C164.206,79.1642729 163.969,79.1552962 163.783,79.1373429 C163.597,79.1193896 163.45,79.0819868 163.342,79.0251346 C163.234,78.9682825 163.1575,78.8845003 163.1125,78.7737882 C163.0675,78.663076 163.045,78.5149611 163.045,78.3294434 L163.045,78.3294434 L163.045,77.2073609 L162.307,77.2073609 L162.307,78.5987433 C162.307,78.8381209 162.337,79.0400958 162.397,79.2046679 C162.457,79.36924 162.5575,79.5038899 162.6985,79.6086176 C162.8395,79.7133453 163.0255,79.7896469 163.2565,79.8375224 C163.4875,79.885398 163.777,79.9093357 164.125,79.9093357 L164.125,79.9093357 L167.788,79.9093357 Z M166.942,77.2612208 L166.942,76.8482944 L166.438,76.8482944 C166.282,76.8482944 166.165,76.8064034 166.087,76.7226212 C166.009,76.638839 165.97,76.5371035 165.97,76.4174147 C165.97,76.3156792 166.003,76.2229204 166.069,76.1391382 C166.135,76.0553561 166.24,76.013465 166.384,76.013465 C166.522,76.013465 166.651,76.040395 166.771,76.0942549 L166.771,76.0942549 L166.771,75.6723519 C166.735,75.6424297 166.6795,75.6214841 166.6045,75.6095153 C166.5295,75.5975464 166.441,75.5915619 166.339,75.5915619 C166.243,75.5915619 166.1485,75.6095153 166.0555,75.6454219 C165.9625,75.6813285 165.88,75.7321963 165.808,75.7980251 C165.736,75.863854 165.679,75.9476361 165.637,76.0493716 C165.595,76.1511071 165.574,76.2678037 165.574,76.3994614 C165.574,76.5610413 165.616,76.7106523 165.7,76.8482944 L165.7,76.8482944 L165.295,76.8482944 L165.295,77.2612208 L166.942,77.2612208 Z M161.857,77.7728905 L161.857,77.0547576 L159.256,77.0547576 L159.256,77.7728905 L161.857,77.7728905 Z M154.333,80.0260323 C154.849,80.0260323 155.2315,79.8749252 155.4805,79.572711 C155.7295,79.2704967 155.854,78.8620586 155.854,78.3473968 C155.854,78.0780969 155.8135,77.834231 155.7325,77.6157989 C155.6515,77.3973668 155.5405,77.208857 155.3995,77.0502693 C155.2585,76.8916816 155.092,76.7690006 154.9,76.6822262 C154.708,76.5954518 154.498,76.5520646 154.27,76.5520646 C154.108,76.5520646 153.9445,76.5730102 153.7795,76.6149013 C153.6145,76.6567923 153.4525,76.7420706 153.2935,76.8707361 C153.1345,76.9994016 152.9785,77.181927 152.8255,77.4183124 C152.6725,77.6546978 152.527,77.9643926 152.389,78.3473968 C152.323,78.52693 152.2525,78.6690604 152.1775,78.7737882 C152.1025,78.8785159 152.026,78.9608019 151.948,79.0206463 C151.87,79.0804907 151.792,79.1193896 151.714,79.1373429 C151.636,79.1552962 151.561,79.1642729 151.489,79.1642729 L151.489,79.1642729 L151.12,79.1642729 C150.994,79.1642729 150.9025,79.1912029 150.8455,79.2450628 C150.7885,79.2989228 150.76,79.4006583 150.76,79.5502693 C150.76,79.7896469 150.88,79.9093357 151.12,79.9093357 L151.12,79.9093357 L151.507,79.9093357 C151.615,79.9093357 151.717,79.9048474 151.813,79.8958707 C151.909,79.8868941 152.002,79.8659485 152.092,79.8330341 C152.182,79.8001197 152.2675,79.7492519 152.3485,79.6804309 C152.4295,79.6116098 152.509,79.5173549 152.587,79.3976661 C152.893,79.6250748 153.19,79.7866547 153.478,79.8824057 C153.766,79.9781568 154.051,80.0260323 154.333,80.0260323 Z M154.27,79.2630162 C154.042,79.2630162 153.8185,79.219629 153.5995,79.1328546 C153.3805,79.0460802 153.16,78.9308797 152.938,78.7872531 C153.124,78.2307002 153.322,77.8417115 153.532,77.6202873 C153.742,77.398863 153.973,77.2881508 154.225,77.2881508 C154.369,77.2881508 154.495,77.3165769 154.603,77.3734291 C154.711,77.4302813 154.8025,77.5065829 154.8775,77.6023339 C154.9525,77.698085 155.0095,77.8087971 155.0485,77.9344704 C155.0875,78.0601436 155.107,78.1888091 155.107,78.3204668 C155.107,78.6615799 155.0305,78.9039497 154.8775,79.0475763 C154.7245,79.1912029 154.522,79.2630162 154.27,79.2630162 Z M148.384,81.7854578 C148.786,81.7854578 149.113,81.7450628 149.365,81.6642729 C149.617,81.5834829 149.8135,81.4518253 149.9545,81.2692998 C150.0955,81.0867744 150.193,80.8473968 150.247,80.551167 C150.301,80.2549372 150.328,79.8913824 150.328,79.4605027 C150.394,79.5801915 150.493,79.6849192 150.625,79.7746858 C150.757,79.8644524 150.922,79.9093357 151.12,79.9093357 C151.246,79.9093357 151.3375,79.8824057 151.3945,79.8285458 C151.4515,79.7746858 151.48,79.6729503 151.48,79.5233393 C151.48,79.2839617 151.36,79.1642729 151.12,79.1642729 C150.82,79.1642729 150.6145,79.0760024 150.5035,78.8994614 C150.3925,78.7229204 150.337,78.4820467 150.337,78.1768402 L150.337,78.1768402 L150.337,76.9021544 L149.608,76.9021544 L149.608,79.3078995 C149.608,79.6190904 149.6005,79.8839019 149.5855,80.1023339 C149.5705,80.320766 149.5225,80.5002992 149.4415,80.6409336 C149.3605,80.7815679 149.2375,80.8833034 149.0725,80.94614 C148.9075,81.0089767 148.678,81.040395 148.384,81.040395 L148.384,81.040395 L148.384,81.7854578 Z M146.125,79.9093357 C146.437,79.9093357 146.692,79.8674446 146.89,79.7836625 C147.088,79.6998803 147.241,79.5951526 147.349,79.4694794 C147.457,79.3438061 147.5305,79.206164 147.5695,79.056553 C147.6085,78.906942 147.628,78.7692998 147.628,78.6436266 C147.628,78.4640934 147.5875,78.2740874 147.5065,78.0736086 C147.4255,77.8731299 147.292,77.6651706 147.106,77.4497307 C146.92,77.2342908 146.68,77.0098743 146.386,76.7764811 C146.092,76.543088 145.735,76.3037104 145.315,76.0583483 L145.315,76.0583483 L147.961,74.8913824 L147.961,74.1642729 L144.667,75.6095153 C144.643,75.6274686 144.6115,75.660383 144.5725,75.7082585 C144.5335,75.7561341 144.496,75.8114901 144.46,75.8743268 C144.424,75.9371634 144.391,76.0059844 144.361,76.0807899 C144.331,76.1555955 144.313,76.2289048 144.307,76.3007181 C144.643,76.462298 144.967,76.6433273 145.279,76.8438061 C145.591,77.0442849 145.8685,77.2477558 146.1115,77.454219 C146.3545,77.6606822 146.5495,77.8641532 146.6965,78.064632 C146.8435,78.2651107 146.917,78.4431478 146.917,78.5987433 C146.917,78.8201676 146.8435,78.9697786 146.6965,79.0475763 C146.5495,79.125374 146.365,79.1642729 146.143,79.1642729 L146.143,79.1642729 L143.992,79.1642729 C143.866,79.1642729 143.7745,79.1912029 143.7175,79.2450628 C143.6605,79.2989228 143.632,79.4006583 143.632,79.5502693 C143.632,79.7896469 143.752,79.9093357 143.992,79.9093357 L143.992,79.9093357 L146.125,79.9093357 Z M142.831,75.4210054 C142.963,75.4210054 143.0755,75.374626 143.1685,75.2818671 C143.2615,75.1891083 143.308,75.0769001 143.308,74.9452424 C143.308,74.8135847 143.2615,74.7013764 143.1685,74.6086176 C143.0755,74.5158588 142.963,74.4694794 142.831,74.4694794 C142.699,74.4694794 142.5865,74.5158588 142.4935,74.6086176 C142.4005,74.7013764 142.354,74.8135847 142.354,74.9452424 C142.354,75.0769001 142.4005,75.1891083 142.4935,75.2818671 C142.5865,75.374626 142.699,75.4210054 142.831,75.4210054 Z M141.256,81.7854578 C141.658,81.7854578 141.985,81.7450628 142.237,81.6642729 C142.489,81.5834829 142.6855,81.4518253 142.8265,81.2692998 C142.9675,81.0867744 143.065,80.8473968 143.119,80.551167 C143.173,80.2549372 143.2,79.8913824 143.2,79.4605027 C143.266,79.5801915 143.365,79.6849192 143.497,79.7746858 C143.629,79.8644524 143.794,79.9093357 143.992,79.9093357 C144.118,79.9093357 144.2095,79.8824057 144.2665,79.8285458 C144.3235,79.7746858 144.352,79.6729503 144.352,79.5233393 C144.352,79.2839617 144.232,79.1642729 143.992,79.1642729 C143.692,79.1642729 143.4865,79.0760024 143.3755,78.8994614 C143.2645,78.7229204 143.209,78.4820467 143.209,78.1768402 L143.209,78.1768402 L143.209,76.9021544 L142.48,76.9021544 L142.48,79.3078995 C142.48,79.6190904 142.4725,79.8839019 142.4575,80.1023339 C142.4425,80.320766 142.3945,80.5002992 142.3135,80.6409336 C142.2325,80.7815679 142.1095,80.8833034 141.9445,80.94614 C141.7795,81.0089767 141.55,81.040395 141.256,81.040395 L141.256,81.040395 L141.256,81.7854578 Z M138.061,79.9093357 L138.061,73.5 L137.323,73.5 L137.323,79.1642729 L135.919,79.1642729 C135.793,79.1642729 135.7015,79.1912029 135.6445,79.2450628 C135.5875,79.2989228 135.559,79.4006583 135.559,79.5502693 C135.559,79.7896469 135.679,79.9093357 135.919,79.9093357 L135.919,79.9093357 L138.061,79.9093357 Z M133.642,79.9093357 C134.014,79.9093357 134.3185,79.8734291 134.5555,79.8016158 C134.7925,79.7298025 134.965,79.5712148 135.073,79.3258528 C135.121,79.4934171 135.2155,79.6325554 135.3565,79.7432675 C135.4975,79.8539797 135.685,79.9093357 135.919,79.9093357 C136.045,79.9093357 136.1365,79.8824057 136.1935,79.8285458 C136.2505,79.7746858 136.279,79.6729503 136.279,79.5233393 C136.279,79.2839617 136.159,79.1642729 135.919,79.1642729 C135.649,79.1642729 135.4525,79.0760024 135.3295,78.8994614 C135.2065,78.7229204 135.145,78.4820467 135.145,78.1768402 L135.145,78.1768402 L135.145,73.5 L134.407,73.5 L134.407,78.5089767 C134.407,78.6585877 134.3905,78.7767804 134.3575,78.8635548 C134.3245,78.9503291 134.2795,79.016158 134.2225,79.0610413 C134.1655,79.1059246 134.095,79.1343507 134.011,79.1463196 C133.927,79.1582885 133.831,79.1642729 133.723,79.1642729 L133.723,79.1642729 L133.003,79.1642729 C132.877,79.1642729 132.7855,79.1912029 132.7285,79.2450628 C132.6715,79.2989228 132.643,79.4006583 132.643,79.5502693 C132.643,79.7896469 132.763,79.9093357 133.003,79.9093357 L133.003,79.9093357 L133.642,79.9093357 Z M130.429,79.9093357 C130.573,79.9093357 130.717,79.9033513 130.861,79.8913824 C131.005,79.8794135 131.1415,79.8509874 131.2705,79.8061041 C131.3995,79.7612208 131.5165,79.6909037 131.6215,79.5951526 C131.7265,79.4994016 131.812,79.3707361 131.878,79.2091562 C132.046,79.4724716 132.214,79.654997 132.382,79.7567325 C132.55,79.858468 132.757,79.9093357 133.003,79.9093357 C133.129,79.9093357 133.2205,79.8824057 133.2775,79.8285458 C133.3345,79.7746858 133.363,79.6729503 133.363,79.5233393 C133.363,79.2839617 133.243,79.1642729 133.003,79.1642729 C132.919,79.1642729 132.8395,79.1418312 132.7645,79.0969479 C132.6895,79.0520646 132.6115,78.9847397 132.5305,78.8949731 C132.4495,78.8052065 132.364,78.6885099 132.274,78.5448833 C132.184,78.4012567 132.079,78.2307002 131.959,78.0332136 L131.959,78.0332136 L130.879,76.2468582 L130.186,76.6777379 L131.14,78.0870736 C131.23,78.2187313 131.305,78.3414123 131.365,78.4551167 C131.425,78.5688211 131.455,78.6825254 131.455,78.7962298 C131.455,78.9159186 131.3875,79.0071813 131.2525,79.070018 C131.1175,79.1328546 130.924,79.1642729 130.672,79.1642729 L130.672,79.1642729 L129.061,79.1642729 L129.061,79.9093357 L130.429,79.9093357 Z M126.622,75.4210054 C126.754,75.4210054 126.8665,75.374626 126.9595,75.2818671 C127.0525,75.1891083 127.099,75.0769001 127.099,74.9452424 C127.099,74.8135847 127.0525,74.7013764 126.9595,74.6086176 C126.8665,74.5158588 126.754,74.4694794 126.622,74.4694794 C126.49,74.4694794 126.3775,74.5158588 126.2845,74.6086176 C126.1915,74.7013764 126.145,74.8135847 126.145,74.9452424 C126.145,75.0769001 126.1915,75.1891083 126.2845,75.2818671 C126.3775,75.374626 126.49,75.4210054 126.622,75.4210054 Z M128.251,79.9093357 L128.251,78.2396768 C128.251,78.024237 128.227,77.8043088 128.179,77.5798923 C128.131,77.3554758 128.0455,77.1505087 127.9225,76.964991 C127.7995,76.7794734 127.633,76.6268701 127.423,76.5071813 C127.213,76.3874925 126.943,76.3276481 126.613,76.3276481 C126.325,76.3276481 126.0715,76.3830042 125.8525,76.4937163 C125.6335,76.6044285 125.449,76.7480551 125.299,76.9245961 C125.149,77.101137 125.035,77.3031119 124.957,77.5305206 C124.879,77.7579294 124.84,77.9883303 124.84,78.2217235 C124.84,78.4192101 124.864,78.5942549 124.912,78.7468582 C124.96,78.8994614 125.017,79.0385996 125.083,79.1642729 L125.083,79.1642729 L124.057,79.1642729 C123.931,79.1642729 123.8395,79.1912029 123.7825,79.2450628 C123.7255,79.2989228 123.697,79.4006583 123.697,79.5502693 C123.697,79.7896469 123.817,79.9093357 124.057,79.9093357 L124.057,79.9093357 L128.251,79.9093357 Z M127.522,79.1642729 L126.658,79.1642729 C126.346,79.1642729 126.082,79.0789946 125.866,78.9084381 C125.65,78.7378815 125.542,78.4700778 125.542,78.1050269 C125.542,77.8117893 125.632,77.5604428 125.812,77.3509874 C125.992,77.141532 126.241,77.0368043 126.559,77.0368043 C126.751,77.0368043 126.91,77.0742071 127.036,77.1490126 C127.162,77.2238181 127.261,77.3195691 127.333,77.4362657 C127.405,77.5529623 127.4545,77.68462 127.4815,77.8312388 C127.5085,77.9778576 127.522,78.1229803 127.522,78.2666068 L127.522,78.2666068 L127.522,79.1642729 Z M124.057,79.9093357 C124.183,79.9093357 124.2745,79.8824057 124.3315,79.8285458 C124.3885,79.7746858 124.417,79.6729503 124.417,79.5233393 C124.417,79.2839617 124.297,79.1642729 124.057,79.1642729 L124.057,79.1642729 L123.913,79.1642729 C123.643,79.1642729 123.469,79.111909 123.391,79.0071813 C123.313,78.9024536 123.274,78.7244165 123.274,78.47307 L123.274,78.47307 L123.274,73.5 L122.536,73.5 L122.536,78.6705566 C122.536,78.9099342 122.5675,79.1089168 122.6305,79.2675045 C122.6935,79.4260922 122.7805,79.5532615 122.8915,79.6490126 C123.0025,79.7447636 123.1375,79.8120886 123.2965,79.8509874 C123.4555,79.8898863 123.631,79.9093357 123.823,79.9093357 L123.823,79.9093357 L124.057,79.9093357 Z M119.881,83.5 C119.977,83.5 120.1,83.4925194 120.25,83.4775583 C120.4,83.4625972 120.562,83.4356673 120.736,83.3967684 C120.91,83.3578695 121.0915,83.3025135 121.2805,83.2307002 C121.4695,83.1588869 121.648,83.0631358 121.816,82.943447 L121.816,82.943447 L121.519,82.3779174 C121.171,82.5394973 120.868,82.6397367 120.61,82.6786355 C120.352,82.7175344 120.1,82.7369838 119.854,82.7369838 C119.614,82.7369838 119.386,82.7070616 119.17,82.6472172 C118.954,82.5873728 118.765,82.4961101 118.603,82.3734291 C118.441,82.2507481 118.3135,82.0966487 118.2205,81.9111311 C118.1275,81.7256134 118.081,81.5101735 118.081,81.2648115 C118.081,80.9955117 118.1335,80.7725913 118.2385,80.5960503 C118.3435,80.4195093 118.4785,80.280371 118.6435,80.1786355 C118.8085,80.0769001 118.99,80.0065829 119.188,79.967684 C119.386,79.9287852 119.581,79.9093357 119.773,79.9093357 L119.773,79.9093357 L121.798,79.9093357 L121.798,79.1642729 L120.376,79.1642729 C119.986,79.1642729 119.695,79.0670257 119.503,78.8725314 C119.311,78.6780371 119.215,78.4281867 119.215,78.1229803 C119.215,77.7998205 119.326,77.5454817 119.548,77.3599641 C119.77,77.1744464 120.07,77.0816876 120.448,77.0816876 C120.64,77.0816876 120.802,77.0951526 120.934,77.1220826 C121.066,77.1490126 121.189,77.1804309 121.303,77.2163375 L121.303,77.2163375 L121.303,76.4174147 C121.237,76.3874925 121.126,76.3605625 120.97,76.3366248 C120.814,76.312687 120.631,76.3007181 120.421,76.3007181 C120.187,76.3007181 119.9545,76.3366248 119.7235,76.4084381 C119.4925,76.4802513 119.2825,76.5909635 119.0935,76.7405745 C118.9045,76.8901855 118.7515,77.0786954 118.6345,77.3061041 C118.5175,77.5335129 118.459,77.8028127 118.459,78.1140036 C118.459,78.3713345 118.504,78.6002394 118.594,78.8007181 C118.684,79.0011969 118.798,79.152304 118.936,79.2540395 C118.696,79.3078995 118.477,79.3916816 118.279,79.505386 C118.081,79.6190904 117.91,79.764213 117.766,79.940754 C117.622,80.117295 117.5095,80.3222621 117.4285,80.5556553 C117.3475,80.7890485 117.307,81.0523639 117.307,81.3456014 C117.307,81.6986834 117.37,82.0098743 117.496,82.2791741 C117.622,82.548474 117.7975,82.7728905 118.0225,82.9524237 C118.2475,83.1319569 118.5175,83.2681029 118.8325,83.3608618 C119.1475,83.4536206 119.497,83.5 119.881,83.5 Z M114.265,79.9093357 L114.265,79.1642729 L112.951,79.1642729 C112.561,79.1642729 112.27,79.0670257 112.078,78.8725314 C111.886,78.6780371 111.79,78.4281867 111.79,78.1229803 C111.79,77.7998205 111.901,77.5454817 112.123,77.3599641 C112.345,77.1744464 112.645,77.0816876 113.023,77.0816876 C113.215,77.0816876 113.377,77.0951526 113.509,77.1220826 C113.641,77.1490126 113.764,77.1804309 113.878,77.2163375 L113.878,77.2163375 L113.878,76.4174147 C113.812,76.3874925 113.701,76.3605625 113.545,76.3366248 C113.389,76.312687 113.206,76.3007181 112.996,76.3007181 C112.762,76.3007181 112.5295,76.3366248 112.2985,76.4084381 C112.0675,76.4802513 111.8575,76.5909635 111.6685,76.7405745 C111.4795,76.8901855 111.3265,77.0786954 111.2095,77.3061041 C111.0925,77.5335129 111.034,77.8028127 111.034,78.1140036 C111.034,78.3414123 111.07,78.5448833 111.142,78.7244165 C111.214,78.9039497 111.304,79.0505685 111.412,79.1642729 L111.412,79.1642729 L110.305,79.1642729 C110.179,79.1642729 110.0875,79.1912029 110.0305,79.2450628 C109.9735,79.2989228 109.945,79.4006583 109.945,79.5502693 C109.945,79.7896469 110.065,79.9093357 110.305,79.9093357 L110.305,79.9093357 L114.265,79.9093357 Z M107.128,77.1804309 C107.26,77.1804309 107.3725,77.1340515 107.4655,77.0412926 C107.5585,76.9485338 107.605,76.8363256 107.605,76.7046679 C107.605,76.5730102 107.5585,76.4608019 107.4655,76.3680431 C107.3725,76.2752843 107.26,76.2289048 107.128,76.2289048 C106.996,76.2289048 106.8835,76.2752843 106.7905,76.3680431 C106.6975,76.4608019 106.651,76.5730102 106.651,76.7046679 C106.651,76.8363256 106.6975,76.9485338 106.7905,77.0412926 C106.8835,77.1340515 106.996,77.1804309 107.128,77.1804309 Z M107.056,82.0278276 C107.446,82.0278276 107.794,81.9859366 108.1,81.9021544 C108.406,81.8183722 108.664,81.6867145 108.874,81.5071813 C109.084,81.3276481 109.2445,81.0972472 109.3555,80.8159785 C109.4665,80.5347098 109.522,80.1965889 109.522,79.8016158 L109.522,79.8016158 L109.522,79.4694794 C109.588,79.5891682 109.6825,79.6923998 109.8055,79.7791741 C109.9285,79.8659485 110.095,79.9093357 110.305,79.9093357 C110.431,79.9093357 110.5225,79.8824057 110.5795,79.8285458 C110.6365,79.7746858 110.665,79.6729503 110.665,79.5233393 C110.665,79.2839617 110.545,79.1642729 110.305,79.1642729 C110.137,79.1642729 110.002,79.1403351 109.9,79.0924596 C109.798,79.0445841 109.7185,78.9787552 109.6615,78.8949731 C109.6045,78.8111909 109.567,78.7079593 109.549,78.5852783 C109.531,78.4625972 109.522,78.3264512 109.522,78.1768402 L109.522,78.1768402 L109.522,77.4856373 L108.793,77.4856373 L108.793,79.7926391 C108.793,80.0918612 108.76,80.3387193 108.694,80.5332136 C108.628,80.727708 108.5245,80.8803112 108.3835,80.9910233 C108.2425,81.1017355 108.064,81.1795332 107.848,81.2244165 C107.632,81.2692998 107.374,81.2917415 107.074,81.2917415 C106.492,81.2917415 106.0525,81.1750449 105.7555,80.9416517 C105.4585,80.7082585 105.31,80.3013166 105.31,79.7208259 L105.31,79.7208259 L105.31,78.4910233 L104.581,78.4910233 L104.581,79.8734291 C104.581,80.5676242 104.788,81.1002394 105.202,81.4712747 C105.616,81.84231 106.234,82.0278276 107.056,82.0278276 Z M101.629,79.9093357 L101.629,79.2540395 C101.629,78.8590664 101.5795,78.4835428 101.4805,78.1274686 C101.3815,77.7713944 101.227,77.4602035 101.017,77.1938959 C100.807,76.9275883 100.537,76.7166367 100.207,76.5610413 C99.877,76.4054458 99.484,76.3276481 99.028,76.3276481 C98.794,76.3276481 98.578,76.3500898 98.38,76.3949731 C98.182,76.4398564 98.023,76.4802513 97.903,76.516158 L97.903,76.516158 L97.903,77.2342908 C98.029,77.1983842 98.1895,77.1639737 98.3845,77.1310592 C98.5795,77.0981448 98.764,77.0816876 98.938,77.0816876 C99.202,77.0816876 99.4495,77.1190904 99.6805,77.1938959 C99.9115,77.2687014 100.114,77.3883902 100.288,77.5529623 C100.462,77.7175344 100.6,77.9314782 100.702,78.1947935 C100.804,78.4581089 100.855,78.7812687 100.855,79.1642729 L100.855,79.1642729 L97.246,79.1642729 C97.12,79.1642729 97.0285,79.1912029 96.9715,79.2450628 C96.9145,79.2989228 96.886,79.4006583 96.886,79.5502693 C96.886,79.7896469 97.006,79.9093357 97.246,79.9093357 L97.246,79.9093357 L101.629,79.9093357 Z M94.51,81.7854578 C94.912,81.7854578 95.239,81.7450628 95.491,81.6642729 C95.743,81.5834829 95.9395,81.4518253 96.0805,81.2692998 C96.2215,81.0867744 96.319,80.8473968 96.373,80.551167 C96.427,80.2549372 96.454,79.8913824 96.454,79.4605027 C96.52,79.5801915 96.619,79.6849192 96.751,79.7746858 C96.883,79.8644524 97.048,79.9093357 97.246,79.9093357 C97.372,79.9093357 97.4635,79.8824057 97.5205,79.8285458 C97.5775,79.7746858 97.606,79.6729503 97.606,79.5233393 C97.606,79.2839617 97.486,79.1642729 97.246,79.1642729 C96.946,79.1642729 96.7405,79.0760024 96.6295,78.8994614 C96.5185,78.7229204 96.463,78.4820467 96.463,78.1768402 L96.463,78.1768402 L96.463,76.9021544 L95.734,76.9021544 L95.734,79.3078995 C95.734,79.6190904 95.7265,79.8839019 95.7115,80.1023339 C95.6965,80.320766 95.6485,80.5002992 95.5675,80.6409336 C95.4865,80.7815679 95.3635,80.8833034 95.1985,80.94614 C95.0335,81.0089767 94.804,81.040395 94.51,81.040395 L94.51,81.040395 L94.51,81.7854578 Z M93.817,79.9093357 L93.817,76.4533214 L93.079,76.4533214 L93.079,79.1642729 L91.675,79.1642729 C91.549,79.1642729 91.4575,79.1912029 91.4005,79.2450628 C91.3435,79.2989228 91.315,79.4006583 91.315,79.5502693 C91.315,79.7896469 91.435,79.9093357 91.675,79.9093357 L91.675,79.9093357 L93.817,79.9093357 Z M92.512,81.7405745 C92.644,81.7405745 92.7565,81.6941951 92.8495,81.6014363 C92.9425,81.5086774 92.989,81.3964692 92.989,81.2648115 C92.989,81.1331538 92.9425,81.0209455 92.8495,80.9281867 C92.7565,80.8354279 92.644,80.7890485 92.512,80.7890485 C92.38,80.7890485 92.2675,80.8354279 92.1745,80.9281867 C92.0815,81.0209455 92.035,81.1331538 92.035,81.2648115 C92.035,81.3964692 92.0815,81.5086774 92.1745,81.6014363 C92.2675,81.6941951 92.38,81.7405745 92.512,81.7405745 Z M93.682,81.7405745 C93.814,81.7405745 93.9265,81.6941951 94.0195,81.6014363 C94.1125,81.5086774 94.159,81.3964692 94.159,81.2648115 C94.159,81.1331538 94.1125,81.0209455 94.0195,80.9281867 C93.9265,80.8354279 93.814,80.7890485 93.682,80.7890485 C93.55,80.7890485 93.4375,80.8354279 93.3445,80.9281867 C93.2515,81.0209455 93.205,81.1331538 93.205,81.2648115 C93.205,81.3964692 93.2515,81.5086774 93.3445,81.6014363 C93.4375,81.6941951 93.55,81.7405745 93.682,81.7405745 Z M88.921,74.7387792 C89.053,74.7387792 89.1655,74.6923998 89.2585,74.5996409 C89.3515,74.5068821 89.398,74.3946738 89.398,74.2630162 C89.398,74.1313585 89.3515,74.0191502 89.2585,73.9263914 C89.1655,73.8336326 89.053,73.7872531 88.921,73.7872531 C88.789,73.7872531 88.6765,73.8336326 88.5835,73.9263914 C88.4905,74.0191502 88.444,74.1313585 88.444,74.2630162 C88.444,74.3946738 88.4905,74.5068821 88.5835,74.5996409 C88.6765,74.6923998 88.789,74.7387792 88.921,74.7387792 Z M90.091,74.7387792 C90.223,74.7387792 90.3355,74.6923998 90.4285,74.5996409 C90.5215,74.5068821 90.568,74.3946738 90.568,74.2630162 C90.568,74.1313585 90.5215,74.0191502 90.4285,73.9263914 C90.3355,73.8336326 90.223,73.7872531 90.091,73.7872531 C89.959,73.7872531 89.8465,73.8336326 89.7535,73.9263914 C89.6605,74.0191502 89.614,74.1313585 89.614,74.2630162 C89.614,74.3946738 89.6605,74.5068821 89.7535,74.5996409 C89.8465,74.6923998 89.959,74.7387792 90.091,74.7387792 Z M91.675,79.9093357 C91.801,79.9093357 91.8925,79.8824057 91.9495,79.8285458 C92.0065,79.7746858 92.035,79.6729503 92.035,79.5233393 C92.035,79.2839617 91.915,79.1642729 91.675,79.1642729 L91.675,79.1642729 L91.459,79.1642729 C91.189,79.1642729 91.015,79.111909 90.937,79.0071813 C90.859,78.9024536 90.82,78.7244165 90.82,78.47307 L90.82,78.47307 L90.82,75.8967684 L89.389,75.8967684 C89.173,75.8967684 88.9555,75.9266906 88.7365,75.986535 C88.5175,76.0463794 88.318,76.1451227 88.138,76.2827648 C87.958,76.4204069 87.811,76.598444 87.697,76.8168761 C87.583,77.0353082 87.526,77.3061041 87.526,77.6292639 C87.526,77.9524237 87.586,78.214243 87.706,78.4147217 C87.826,78.6152005 87.9715,78.7707959 88.1425,78.8815081 C88.3135,78.9922202 88.4935,79.0685218 88.6825,79.1104129 C88.8715,79.152304 89.038,79.1732496 89.182,79.1732496 C89.338,79.1732496 89.4985,79.1582885 89.6635,79.1283662 C89.8285,79.098444 89.977,79.0595452 90.109,79.0116697 C90.133,79.1912029 90.184,79.3378217 90.262,79.451526 C90.34,79.5652304 90.4345,79.6564931 90.5455,79.7253142 C90.6565,79.7941352 90.7825,79.8420108 90.9235,79.8689408 C91.0645,79.8958707 91.213,79.9093357 91.369,79.9093357 L91.369,79.9093357 L91.675,79.9093357 Z M89.245,78.4102334 C88.897,78.4102334 88.6435,78.3324357 88.4845,78.1768402 C88.3255,78.0212448 88.246,77.8177738 88.246,77.5664273 C88.246,77.2492519 88.348,77.0173549 88.552,76.8707361 C88.756,76.7241173 89.002,76.6508079 89.29,76.6508079 L89.29,76.6508079 L90.082,76.6508079 L90.082,78.2486535 C89.962,78.296529 89.8255,78.3354279 89.6725,78.3653501 C89.5195,78.3952723 89.377,78.4102334 89.245,78.4102334 Z M84.367,79.9093357 L84.367,73.5 L83.629,73.5 L83.629,79.9093357 L84.367,79.9093357 Z M82.369,79.9093357 L82.369,73.5 L81.631,73.5 L81.631,79.1642729 L80.227,79.1642729 C80.101,79.1642729 80.0095,79.1912029 79.9525,79.2450628 C79.8955,79.2989228 79.867,79.4006583 79.867,79.5502693 C79.867,79.7896469 79.987,79.9093357 80.227,79.9093357 L80.227,79.9093357 L82.369,79.9093357 Z M80.218,79.9093357 C80.344,79.9093357 80.4355,79.8824057 80.4925,79.8285458 C80.5495,79.7746858 80.578,79.6729503 80.578,79.5233393 C80.578,79.2839617 80.458,79.1642729 80.218,79.1642729 L80.218,79.1642729 L79.66,79.1642729 C79.654,78.7812687 79.6,78.4177139 79.498,78.0736086 C79.396,77.7295033 79.2385,77.427289 79.0255,77.1669659 C78.8125,76.9066427 78.544,76.7016756 78.22,76.5520646 C77.896,76.4024536 77.509,76.3276481 77.059,76.3276481 C76.825,76.3276481 76.609,76.3500898 76.411,76.3949731 C76.213,76.4398564 76.054,76.4802513 75.934,76.516158 L75.934,76.516158 L75.934,77.2342908 C76.06,77.1983842 76.2205,77.1639737 76.4155,77.1310592 C76.6105,77.0981448 76.795,77.0816876 76.969,77.0816876 C77.233,77.0816876 77.4805,77.1190904 77.7115,77.1938959 C77.9425,77.2687014 78.145,77.3883902 78.319,77.5529623 C78.493,77.7175344 78.631,77.9314782 78.733,78.1947935 C78.835,78.4581089 78.886,78.7812687 78.886,79.1642729 L78.886,79.1642729 L75.277,79.1642729 C75.151,79.1642729 75.0595,79.1912029 75.0025,79.2450628 C74.9455,79.2989228 74.917,79.4006583 74.917,79.5502693 C74.917,79.7896469 75.037,79.9093357 75.277,79.9093357 L75.277,79.9093357 L80.218,79.9093357 Z M72.541,81.7854578 C72.943,81.7854578 73.27,81.7450628 73.522,81.6642729 C73.774,81.5834829 73.9705,81.4518253 74.1115,81.2692998 C74.2525,81.0867744 74.35,80.8473968 74.404,80.551167 C74.458,80.2549372 74.485,79.8913824 74.485,79.4605027 C74.551,79.5801915 74.65,79.6849192 74.782,79.7746858 C74.914,79.8644524 75.079,79.9093357 75.277,79.9093357 C75.403,79.9093357 75.4945,79.8824057 75.5515,79.8285458 C75.6085,79.7746858 75.637,79.6729503 75.637,79.5233393 C75.637,79.2839617 75.517,79.1642729 75.277,79.1642729 C74.977,79.1642729 74.7715,79.0760024 74.6605,78.8994614 C74.5495,78.7229204 74.494,78.4820467 74.494,78.1768402 L74.494,78.1768402 L74.494,76.9021544 L73.765,76.9021544 L73.765,79.3078995 C73.765,79.6190904 73.7575,79.8839019 73.7425,80.1023339 C73.7275,80.320766 73.6795,80.5002992 73.5985,80.6409336 C73.5175,80.7815679 73.3945,80.8833034 73.2295,80.94614 C73.0645,81.0089767 72.835,81.040395 72.541,81.040395 L72.541,81.040395 L72.541,81.7854578 Z M70.282,79.9093357 C70.594,79.9093357 70.849,79.8674446 71.047,79.7836625 C71.245,79.6998803 71.398,79.5951526 71.506,79.4694794 C71.614,79.3438061 71.6875,79.206164 71.7265,79.056553 C71.7655,78.906942 71.785,78.7692998 71.785,78.6436266 C71.785,78.4640934 71.7445,78.2740874 71.6635,78.0736086 C71.5825,77.8731299 71.449,77.6651706 71.263,77.4497307 C71.077,77.2342908 70.837,77.0098743 70.543,76.7764811 C70.249,76.543088 69.892,76.3037104 69.472,76.0583483 L69.472,76.0583483 L72.118,74.8913824 L72.118,74.1642729 L68.824,75.6095153 C68.8,75.6274686 68.7685,75.660383 68.7295,75.7082585 C68.6905,75.7561341 68.653,75.8114901 68.617,75.8743268 C68.581,75.9371634 68.548,76.0059844 68.518,76.0807899 C68.488,76.1555955 68.47,76.2289048 68.464,76.3007181 C68.8,76.462298 69.124,76.6433273 69.436,76.8438061 C69.748,77.0442849 70.0255,77.2477558 70.2685,77.454219 C70.5115,77.6606822 70.7065,77.8641532 70.8535,78.064632 C71.0005,78.2651107 71.074,78.4431478 71.074,78.5987433 C71.074,78.8201676 71.0005,78.9697786 70.8535,79.0475763 C70.7065,79.125374 70.522,79.1642729 70.3,79.1642729 L70.3,79.1642729 L68.149,79.1642729 C68.023,79.1642729 67.9315,79.1912029 67.8745,79.2450628 C67.8175,79.2989228 67.789,79.4006583 67.789,79.5502693 C67.789,79.7896469 67.909,79.9093357 68.149,79.9093357 L68.149,79.9093357 L70.282,79.9093357 Z M65.395,74.7387792 C65.527,74.7387792 65.6395,74.6923998 65.7325,74.5996409 C65.8255,74.5068821 65.872,74.3946738 65.872,74.2630162 C65.872,74.1313585 65.8255,74.0191502 65.7325,73.9263914 C65.6395,73.8336326 65.527,73.7872531 65.395,73.7872531 C65.263,73.7872531 65.1505,73.8336326 65.0575,73.9263914 C64.9645,74.0191502 64.918,74.1313585 64.918,74.2630162 C64.918,74.3946738 64.9645,74.5068821 65.0575,74.5996409 C65.1505,74.6923998 65.263,74.7387792 65.395,74.7387792 Z M66.565,74.7387792 C66.697,74.7387792 66.8095,74.6923998 66.9025,74.5996409 C66.9955,74.5068821 67.042,74.3946738 67.042,74.2630162 C67.042,74.1313585 66.9955,74.0191502 66.9025,73.9263914 C66.8095,73.8336326 66.697,73.7872531 66.565,73.7872531 C66.433,73.7872531 66.3205,73.8336326 66.2275,73.9263914 C66.1345,74.0191502 66.088,74.1313585 66.088,74.2630162 C66.088,74.3946738 66.1345,74.5068821 66.2275,74.5996409 C66.3205,74.6923998 66.433,74.7387792 66.565,74.7387792 Z M68.149,79.9093357 C68.275,79.9093357 68.3665,79.8824057 68.4235,79.8285458 C68.4805,79.7746858 68.509,79.6729503 68.509,79.5233393 C68.509,79.2839617 68.389,79.1642729 68.149,79.1642729 L68.149,79.1642729 L67.933,79.1642729 C67.663,79.1642729 67.489,79.111909 67.411,79.0071813 C67.333,78.9024536 67.294,78.7244165 67.294,78.47307 L67.294,78.47307 L67.294,75.8967684 L65.863,75.8967684 C65.647,75.8967684 65.4295,75.9266906 65.2105,75.986535 C64.9915,76.0463794 64.792,76.1451227 64.612,76.2827648 C64.432,76.4204069 64.285,76.598444 64.171,76.8168761 C64.057,77.0353082 64,77.3061041 64,77.6292639 C64,77.9524237 64.06,78.214243 64.18,78.4147217 C64.3,78.6152005 64.4455,78.7707959 64.6165,78.8815081 C64.7875,78.9922202 64.9675,79.0685218 65.1565,79.1104129 C65.3455,79.152304 65.512,79.1732496 65.656,79.1732496 C65.812,79.1732496 65.9725,79.1582885 66.1375,79.1283662 C66.3025,79.098444 66.451,79.0595452 66.583,79.0116697 C66.607,79.1912029 66.658,79.3378217 66.736,79.451526 C66.814,79.5652304 66.9085,79.6564931 67.0195,79.7253142 C67.1305,79.7941352 67.2565,79.8420108 67.3975,79.8689408 C67.5385,79.8958707 67.687,79.9093357 67.843,79.9093357 L67.843,79.9093357 L68.149,79.9093357 Z M65.719,78.4102334 C65.371,78.4102334 65.1175,78.3324357 64.9585,78.1768402 C64.7995,78.0212448 64.72,77.8177738 64.72,77.5664273 C64.72,77.2492519 64.822,77.0173549 65.026,76.8707361 C65.23,76.7241173 65.476,76.6508079 65.764,76.6508079 L65.764,76.6508079 L66.556,76.6508079 L66.556,78.2486535 C66.436,78.296529 66.2995,78.3354279 66.1465,78.3653501 C65.9935,78.3952723 65.851,78.4102334 65.719,78.4102334 Z" id="-" fill="#FFFFFF" fill-rule="nonzero"></path>
    </g>
</svg>