<?xml version="1.0" encoding="UTF-8"?>
<svg width="251px" height="80px" viewBox="0 0 251 80" version="1.1" xmlns="http://www.w3.org/2000/svg" xmlns:xlink="http://www.w3.org/1999/xlink">
    <title>logo / white english</title>
    <defs>
        <polygon id="path-1" points="0.000109620991 0.177923729 3.83684431 0.177923729 3.83684431 4.03358051 0.000109620991 4.03358051"></polygon>
    </defs>
    <g id="logo-/-white-english" stroke="none" stroke-width="1" fill="none" fill-rule="evenodd">
        <g id="Group-16">
            <polygon id="Fill-1" fill="#FFFFFF" points="198 0 221.582064 40 198 80 227.18816 80 250.727273 40 227.18816 0"></polygon>
            <g id="Group-34" transform="translate(0.000000, 1.000000)">
                <path d="M152.263557,50.5676864 C152.263557,54.3134492 148.974927,56.1312458 145.795918,56.1312458 C144.261224,56.1312458 142.123615,55.9109068 139.054227,54.4787034 L139.054227,51.1736186 L141.959184,51.1736186 L142.562099,52.0549746 C143.493878,52.4956525 144.590087,52.7154407 145.686297,52.7154407 C147.330612,52.7154407 148.700875,52.1100593 148.700875,50.7329407 C148.700875,49.0253136 146.727697,48.3642966 144.754519,47.7032797 C142.068805,46.8770085 139.054227,45.7202288 139.054227,42.2498898 C139.054227,38.4490424 142.233236,36.7965 145.467055,36.7965 C146.672886,36.7965 148.536443,36.9617542 151.441399,38.5041271 L151.441399,41.5337881 L148.536443,41.5337881 L148.097959,40.8176864 C147.220991,40.3770085 146.398834,40.1566695 145.467055,40.1566695 C144.041983,40.1566695 142.61691,40.8176864 142.61691,42.2498898 C142.61691,43.4066695 144.041983,43.9575169 146.234402,44.7287034 C149.413411,45.7753136 152.263557,46.7117542 152.263557,50.5676864" id="Fill-1" fill="#FFFFFF"></path>
                <path d="M176.32531,49.4659915 C176.270499,49.7414153 176.270499,50.0719237 176.270499,50.2922627 C176.270499,51.8346356 176.983036,52.6609068 178.298487,52.6609068 C179.778371,52.6609068 181.258254,51.6693814 182.518896,50.7874746 L182.518896,47.6481949 L176.32531,49.4659915 Z M182.573706,42.4151441 C182.573706,40.9278559 181.806359,40.3770085 180.874581,40.3770085 C179.833181,40.3770085 178.243677,40.9278559 177.147467,41.5888729 L177.147467,42.9109068 L173.639595,42.9109068 L173.639595,40.2117542 C175.777205,38.5041271 179.230266,36.9066695 181.258254,36.9066695 C183.889158,36.9066695 186.026767,38.3939576 186.026767,42.2498898 L186.026767,52.4400169 L187.999945,52.4400169 L187.999945,55.0846356 L184.327642,55.855822 L183.067001,55.855822 L183.067001,53.9829407 C181.367875,55.3049746 179.833181,56.0205254 178.298487,56.0205254 C174.626184,56.0205254 173.146301,53.3770085 173.146301,50.4024322 C173.146301,49.4103559 173.310732,48.1990424 173.639595,47.0973475 L182.573706,44.5634492 L182.573706,42.4151441 Z" id="Fill-3" fill="#FFFFFF"></path>
                <path d="M116.636735,47.9785932 C118.719534,47.9785932 120.363848,46.3811356 120.363848,44.2328305 C120.363848,42.0845254 118.719534,40.4319831 116.636735,40.4319831 C114.553936,40.4319831 112.909621,42.1396102 112.909621,44.2328305 C112.909621,46.3811356 114.553936,47.9785932 116.636735,47.9785932 L116.636735,47.9785932 Z M112.690379,50.4574068 C110.662391,49.0252034 109.346939,46.9870678 109.346939,44.2328305 C109.346939,40.1565593 112.580758,36.7963898 116.636735,36.7963898 C117.458892,36.7963898 118.226239,36.9616441 118.938776,37.1819831 L126.173761,37.1819831 L126.173761,40.4319831 L123.268805,41.093 C123.707289,42.0845254 123.981341,43.0760508 123.981341,44.1777458 C123.981341,48.2540169 120.692711,51.5591017 116.691545,51.5591017 C116.198251,51.5591017 115.759767,51.5040169 115.321283,51.4489322 L114.115452,53.5421525 L119.158017,53.5421525 C122.117784,53.5421525 124.584257,55.9658814 124.584257,58.9955424 C124.584257,62.0252034 122.172595,63.9531695 119.158017,64.5040169 C116.08863,65.0548644 114.608746,64.7794407 113.348105,64.5040169 C112.087464,64.283678 109.127697,63.1268983 108.469971,61.3641864 C107.976676,60.0421525 108.579592,59.0506271 108.579592,59.0506271 L110.55277,56.902322 L112.690379,56.902322 C112.690379,56.902322 111.64898,58.2243559 111.64898,59.4913051 C111.64898,59.9319831 111.868222,60.7031695 113.348105,61.3091017 C114.827988,61.8599492 117.23965,62.0802881 119.048397,61.4192712 C120.254227,60.9785932 121.131195,60.152322 121.131195,58.9955424 C121.131195,57.8938475 120.199417,56.902322 119.048397,56.902322 L110.55277,56.902322 L110.059475,54.7540169 L112.690379,50.4574068 Z" id="Fill-5" fill="#FFFFFF"></path>
                <polygon id="Fill-7" fill="#FFFFFF" points="134.39528 52.6607966 135.765543 52.6607966 135.765543 55.8557119 129.517146 55.8557119 129.517146 52.6607966 130.887409 52.6607966 130.887409 40.3768983 129.681578 40.3768983 129.681578 37.1819831 133.737555 37.1819831 134.39528 37.1819831"></polygon>
                <path d="M134.176093,32.3345805 C134.176093,31.2879703 133.299125,30.4066144 132.257726,30.4066144 C131.216327,30.4066144 130.339359,31.2879703 130.339359,32.3345805 C130.339359,33.4362754 131.161516,34.2625466 132.257726,34.2625466 C133.353936,34.2625466 134.176093,33.3811907 134.176093,32.3345805" id="Fill-9" fill="#FFFFFF"></path>
                <path d="M159.114869,55.8556017 L155.661808,55.8556017 L155.661808,27.1564492 L159.114869,27.9276356 L159.114869,38.6140763 C161.033236,37.4022119 162.622741,36.8513644 164.705539,36.8513644 C167.446064,36.8513644 169.528863,38.448822 169.802915,42.0293305 C169.857726,43.2411949 169.967347,45.830178 169.967347,48.6395 L169.967347,55.8556017 L166.514286,55.8556017 L166.514286,48.8047542 C166.514286,46.1606864 166.514286,43.7369576 166.404665,42.6903475 C166.240233,41.2030593 165.253644,40.7072966 163.993003,40.7072966 C162.239067,40.7072966 160.101458,41.7539068 159.169679,42.580178 L159.169679,55.8556017 L159.114869,55.8556017 Z" id="Fill-11" fill="#FFFFFF"></path>
                <path d="M134.176093,32.2794407 C134.176093,31.2328305 133.299125,30.3514746 132.257726,30.3514746 C131.161516,30.3514746 130.339359,31.2328305 130.339359,32.2794407 C130.339359,33.3811356 131.161516,34.2074068 132.257726,34.2074068 C133.299125,34.2624915 134.176093,33.3811356 134.176093,32.2794407" id="Fill-13" fill="#FFFFFF"></path>
                <g id="Group-17" transform="translate(107.428571, 0.372924)">
                    <mask id="mask-2" fill="white">
                        <use xlink:href="#path-1"></use>
                    </mask>
                    <g id="Clip-16"></g>
                    <path d="M3.83684431,2.10561441 C3.83684431,1.05900424 2.95987638,0.177648305 1.91847697,0.177648305 C0.822267055,0.177648305 0.000109620991,1.05900424 0.000109620991,2.10561441 C0.000109620991,3.20730932 0.822267055,4.03358051 1.91847697,4.03358051 C2.95987638,4.03358051 3.83684431,3.20730932 3.83684431,2.10561441" id="Fill-15" fill="#FFFFFF" mask="url(#mask-2)"></path>
                </g>
                <path d="M159.114869,55.8007373 L155.661808,55.8007373 L155.661808,27.1566695 L159.114869,27.9278559 L159.114869,38.6142966 C161.033236,37.4024322 162.622741,36.8515847 164.705539,36.8515847 C167.446064,36.8515847 169.528863,38.4490424 169.802915,42.0295508 C169.857726,43.2414153 169.967347,45.8303983 169.967347,48.6397203 L169.967347,55.855822 L166.514286,55.855822 L166.514286,48.7498898 C166.514286,46.105822 166.514286,43.6820932 166.404665,42.6354831 C166.240233,41.1481949 165.253644,40.6524322 163.993003,40.6524322 C162.239067,40.6524322 160.101458,41.6990424 159.114869,42.5253136 L159.114869,55.8007373 Z" id="Fill-18" fill="#FFFFFF"></path>
                <path d="M83.0380105,12.1735085 L84.4630834,11.6777458 L84.3534624,8.37266102 C84.2986519,8.31757627 83.4764945,7.60147458 82.8187685,7.60147458 L69.7190601,7.60147458 L68.8969026,6.6650339 L67.0333458,6.88537288 L67.0333458,6.94045763 C67.4718297,10.0802881 67.5266402,11.5675763 67.5266402,11.5675763 L67.5266402,11.622661 L67.5266402,11.6777458 L80.5167277,11.6777458 L80.5167277,26.6057119 L80.5715382,26.6057119 L80.5715382,26.6607966 L80.6811592,26.6607966 C80.6811592,26.6607966 82.3802845,26.2201186 83.9149784,25.7243559 L83.9697889,25.7243559 L83.9697889,25.6692712 C83.0380105,20.6014746 83.0380105,12.8896102 83.0380105,12.1735085" id="Fill-20" fill="#FFFFFF"></path>
                <path d="M71.1988886,15.2583093 L68.5679848,16.19475 L67.7458274,26.6057669 L67.8006379,26.6057669 L67.8006379,26.6608517 L67.9102589,26.6608517 C67.9102589,26.6608517 70.0478682,26.2201737 70.9796466,25.94475 L71.0344571,25.94475 L71.0344571,25.8896653 L71.0344571,23.8515297 L71.0344571,20.2159364 C71.0892676,17.5167839 71.2536991,15.5337331 71.2536991,15.4786483 L71.1988886,15.2583093 Z" id="Fill-22" fill="#FFFFFF"></path>
                <path d="M112.251895,7.65672458 L112.251895,7.65672458 L106.935277,7.60163983 L106.935277,7.65672458 C106.825656,7.98723305 107.209329,10.9618093 107.26414,11.3474025 L108.579592,12.2287585 C107.31895,21.64825 103.153353,21.9787585 98.7685131,22.3092669 L98.2204082,22.3643517 C98.6040816,21.4829958 100.63207,16.6906229 102.221574,12.1736737 L104.194752,11.457572 L104.194752,11.4024873 C104.194752,11.2923178 104.030321,8.42791102 103.537026,7.71180932 C103.482216,7.65672458 103.482216,7.60163983 103.427405,7.60163983 L98.3300292,7.60163983 L98.4396501,11.1821483 L99.5906706,12.0635042 C98.5492711,16.5253686 96.4664723,21.7033347 96.1376093,22.5296059 C96.0827988,22.4745212 96.0279883,22.4194364 95.9183673,22.2541822 C95.2058309,21.3177415 93.6163265,18.5635042 93.3422741,11.89825 L95.1510204,11.457572 L95.1510204,11.4024873 C95.1510204,11.4024873 95.2058309,9.2541822 94.7125364,7.65672458 L94.7125364,7.60163983 L94.7125364,7.54655508 L92.1364431,7.54655508 L91.6431487,6.66519915 L91.6431487,6.61011441 L89.7795918,6.61011441 L89.7795918,11.1821483 L89.8344023,11.1821483 L91.4787172,12.0635042 C91.4787172,21.5931653 93.5067055,26.2753686 93.561516,26.3304534 L93.561516,26.3855381 L93.561516,26.4406229 L93.6163265,26.4406229 C105.345773,26.3304534 107.26414,22.4745212 107.31895,22.3092669 C107.31895,22.2541822 109.730612,18.9490975 111.046064,11.9533347 L112.471137,11.2372331 L112.251895,7.65672458 Z" id="Fill-24" fill="#FFFFFF"></path>
                <path d="M123.597777,9.14384746 C123.597777,9.14384746 123.542967,8.97859322 123.378535,8.75825424 C123.049672,8.31757627 122.172704,7.65655932 120.199527,7.65655932 L119.377369,7.65655932 L118.555212,6.72011864 L116.801276,6.99554237 L116.801276,7.05062712 C117.29457,10.1904576 117.184949,11.5124915 117.184949,11.5124915 L117.184949,11.622661 L117.23976,11.622661 L117.23976,11.6777458 L117.349381,11.6777458 C117.349381,11.6777458 118.39078,11.622661 119.103317,11.622661 C119.651422,11.622661 119.761043,11.6777458 119.815853,11.6777458 C120.692821,11.6777458 121.131305,12.0082542 121.350547,12.3387627 C121.460168,12.5040169 121.514978,12.6692712 121.514978,12.6692712 C121.514978,12.6692712 121.843841,13.8260508 119.925474,16.6353729 L119.870664,16.6904576 L119.925474,16.6904576 L119.980285,16.7455424 C119.980285,16.7455424 122.008273,18.0124915 122.665999,18.3980847 L122.720809,18.4531695 L122.77562,18.343 C124.96804,12.283678 123.597777,9.14384746 123.597777,9.14384746" id="Fill-26" fill="#FFFFFF"></path>
                <path d="M138.396611,25.2287034 C135.491655,19.9956525 135.491655,16.3049746 135.436844,13.2753136 C135.436844,12.3388729 135.436844,11.4024322 135.327223,10.576161 C135.327223,10.5210763 135.107981,9.08887288 134.450255,8.26260169 C134.176203,7.87700847 133.792529,7.60158475 133.299235,7.60158475 L130.613521,7.60158475 L129.846174,6.83039831 L128.092238,7.10582203 L128.092238,7.16090678 C128.530722,10.3007373 128.640343,11.4024322 128.640343,11.4575169 L128.640343,11.5126017 L128.640343,11.5676864 L131.216436,11.5676864 C131.65492,11.5676864 132.038594,11.8981949 132.312646,12.2287034 C132.641509,12.7244661 132.860751,13.2202288 132.860751,13.2202288 C133.079993,14.9829407 133.408856,17.516839 133.463666,18.0676864 C133.189614,18.2329407 132.970372,18.6185339 132.69632,19.0592119 C131.928973,20.326161 130.723142,22.2541271 127.598943,22.2541271 C127.324891,22.2541271 126.996028,22.2541271 126.667165,22.1990424 L126.557544,22.1990424 L126.941217,26.2202288 L126.941217,26.2753136 L130.668331,26.2753136 L130.723142,26.2202288 C131.983783,24.6227712 133.573287,21.4829407 134.011771,20.6015847 L135.272413,26.6609068 L135.272413,26.7159915 L135.382034,26.605822 C136.09457,25.9998898 138.23218,25.3388729 138.28699,25.2837881 L138.396611,25.2287034 Z" id="Fill-28" fill="#FFFFFF"></path>
                <path d="M5.1522414,48.6945847 C2.19247464,46.8767881 0.219296793,44.8386525 5.48104956e-05,42.9657712 L3.61754752,41.6437373 C4.05603149,42.9657712 5.1522414,44.3979746 7.39947172,45.7200085 C10.304428,47.3725508 14.6344571,48.1437373 20.1155067,48.0335678 C25.7609878,47.8683136 29.5977224,47.1522119 32.1190052,45.7200085 C34.2566146,44.5081441 35.407635,43.2411949 35.9009294,42.6352627 L36.0105504,15.919161 L39.6828536,14.6522119 L39.5184222,42.8005169 C39.8472851,43.6267881 41.3271685,46.5462797 45.3283347,46.5462797 C50.0968478,46.5462797 51.2478682,43.8471271 51.5767312,42.9657712 L51.5767312,15.919161 L55.3586554,14.6522119 L55.2490344,43.0208559 C55.4682764,43.7920424 56.6192968,46.5462797 61.7714834,46.5462797 C66.7592385,46.5462797 67.6362064,44.7835678 67.6362064,44.7835678 L67.6362064,36.080178 L71.1440781,35.198822 C71.1440781,35.198822 70.4863522,40.4318729 71.2536991,44.2327203 C71.5825621,45.9403475 73.6105504,46.9869576 76.4606962,46.9869576 C79.5848945,46.9869576 80.8455359,44.7835678 80.8455359,44.7835678 L80.5714834,36.0250932 L84.1889761,34.9233983 C84.1889761,34.9233983 83.6956816,42.359839 84.7918915,44.7284831 C85.4496175,46.1606864 87.6420373,46.9318729 89.6152152,46.9318729 C93.4519499,46.9318729 94.1096758,44.5632288 94.1096758,44.5632288 L94.1096758,33.3810254 L97.7271685,32.609839 C97.7271685,32.609839 96.6857691,41.8640763 98.001221,44.4530593 C98.7137574,45.8852627 101.399472,46.4361102 103.153408,46.4361102 L103.208218,46.4361102 C105.67469,46.4361102 107.264195,45.2793305 107.702679,44.7284831 C108.470026,43.7920424 109.072941,42.580178 109.730667,41.5886525 C110.552824,40.3767881 111.100929,39.330178 111.758655,38.669161 L114.279938,41.0928898 C113.622212,41.1479746 113.183728,42.4700085 112.635623,43.5166186 C112.032708,44.6183136 111.15574,45.7750932 110.278772,46.8217034 C109.511425,47.8132288 107.264195,50.0717034 103.208218,50.0717034 L103.153408,50.0717034 C99.8647778,50.0717034 97.672358,49.1352627 96.3020956,47.5378051 C94.9866437,49.3556017 92.9586554,50.3471271 89.7248362,50.3471271 C86.6554484,50.3471271 84.4082181,49.1352627 83.0379557,47.4827203 C81.6676933,49.1352627 79.530084,50.5123814 76.4606962,50.5123814 C73.336498,50.5123814 70.8700257,49.2454322 69.6093843,47.4827203 C68.0746904,48.9700085 65.7726496,50.0717034 61.8262939,50.0717034 C57.5510752,50.0717034 54.9201714,48.5293305 53.3854776,46.7666186 C51.9604047,48.198822 49.2746904,50.1818729 45.3831452,50.0717034 C41.710842,49.9615339 39.2443697,48.1437373 37.8192968,46.2157712 C36.7778974,47.1522119 35.188393,48.3089915 32.9959732,49.3556017 C29.8717749,50.8428898 25.3225038,51.7242458 20.0058857,51.7242458 C14.0315417,51.8895 8.44087114,50.7327203 5.1522414,48.6945847" id="Fill-30" fill="#FFFFFF"></path>
                <path d="M23.0205178,35.3091017 C20.9925294,35.3091017 19.3482146,34.7031695 18.0327627,33.4362203 C19.0741621,32.0591017 20.499235,31.3980847 22.2531708,31.3980847 C22.6916548,31.3980847 23.8974857,31.563339 24.4455907,31.7285932 L25.3225586,28.6989322 C25.3225586,28.6989322 24.7196431,28.2031695 23.5138122,28.2031695 C21.6502554,28.2031695 19.4030251,28.8091017 18.3068152,30.1862203 C16.8269318,31.9489322 16.1143953,33.4362203 16.1143953,34.6480847 C16.1143953,36.3006271 16.9913633,37.3472373 18.6904886,37.7328305 C17.7038997,38.8896102 17.0461738,40.3218136 16.7173108,42.0294407 C18.8001096,39.7158814 21.4310134,38.3387627 24.6648327,37.8980847 L25.9254741,34.6480847 C24.7196431,35.0887627 23.7878647,35.3091017 23.0205178,35.3091017" id="Fill-32" fill="#FFFFFF"></path>
            </g>
        </g>
        <path d="M1.785,79.16875 C2.75625,79.16875 3.57,78.46 3.57,77.585 L3.57,76.49125 C3.57,76.24625 3.3775,76.05375 3.1325,76.05375 L1.79375,76.05375 C1.72375,76.05375 1.65375,76.10625 1.65375,76.185 L1.65375,76.54375 C1.65375,76.6225 1.72375,76.68375 1.79375,76.68375 L2.87875,76.68375 L2.87875,77.59375 C2.87875,78.11 2.3625,78.53875 1.785,78.53875 C1.2075,78.53875 0.69125,78.11 0.69125,77.59375 L0.69125,75.135 C0.69125,74.61875 1.2075,74.19875 1.785,74.19875 C2.135,74.19875 2.49375,74.37375 2.72125,74.6275 C2.8,74.715 2.89625,74.715 2.975,74.645 L3.15,74.505 C3.22875,74.435 3.22875,74.33 3.17625,74.26 C2.765,73.72625 2.19625,73.56875 1.7675,73.56875 C0.79625,73.56875 2.84217094e-14,74.26875 2.84217094e-14,75.14375 L2.84217094e-14,77.585 C2.84217094e-14,78.46 0.81375,79.16875 1.785,79.16875 Z M6.3275,74.12 C6.63375,74.12 6.8875,73.86625 6.8875,73.56 C6.8875,73.25375 6.63375,73 6.3275,73 C6.02125,73 5.7675,73.25375 5.7675,73.56 C5.7675,73.86625 6.02125,74.12 6.3275,74.12 Z M8.03375,79.055 C8.1125,79.055 8.17375,78.99375 8.17375,78.915 L8.17375,78.6 C8.17375,78.52125 8.1125,78.46 8.03375,78.46 L6.86125,78.46 L6.86125,75.1175 C6.86125,75.02125 6.77375,74.93375 6.6775,74.93375 L5.5925,74.93375 C5.5225,74.93375 5.46125,74.98625 5.46125,75.065 L5.46125,75.38875 C5.46125,75.4675 5.5225,75.52875 5.5925,75.52875 L6.17875,75.52875 L6.17875,78.46 L4.9975,78.46 C4.91875,78.46 4.8575,78.52125 4.8575,78.6 L4.8575,78.915 C4.8575,78.99375 4.91875,79.055 4.9975,79.055 L8.03375,79.055 Z M11.08875,79.16 C12.0775,79.16 12.69875,78.73125 12.7425,78.1275 C12.795,77.41 12.3925,76.98125 11.1675,76.70125 C10.52,76.5525 9.98625,76.36875 10.03875,75.91375 C10.0825,75.5375 10.415,75.40625 10.98375,75.40625 C11.36875,75.40625 11.7625,75.47625 12.22625,75.59 C12.33125,75.61625 12.41875,75.58125 12.445,75.47625 L12.48875,75.275 C12.50625,75.17875 12.4625,75.10875 12.36625,75.0825 C11.82375,74.925 11.3775,74.84625 10.9575,74.84625 C9.995,74.84625 9.42625,75.275 9.3825,75.87875 C9.33,76.59625 9.75875,77.0075 10.9925,77.2875 C11.605,77.4275 12.13875,77.62 12.08625,78.075 C12.0425,78.45125 11.6225,78.59125 11.07125,78.59125 C10.68625,78.59125 10.24875,78.53 9.785,78.41625 C9.68,78.39 9.5925,78.425 9.56625,78.53 L9.5225,78.73125 C9.505,78.8275 9.54875,78.8975 9.645,78.92375 C10.1875,79.08125 10.66875,79.16 11.08875,79.16 Z M14.66,79.055 C14.73,79.055 14.8,78.99375 14.8,78.915 L14.8,75.91375 C15.15875,75.70375 15.66625,75.49375 16.0775,75.49375 C16.47125,75.49375 16.7775,75.68625 16.7775,76.24625 L16.7775,78.915 C16.7775,78.99375 16.83875,79.055 16.90875,79.055 L17.32875,79.055 C17.4075,79.055 17.46,78.99375 17.46,78.915 L17.46,76.40375 C17.46,75.2575 16.90875,74.855 16.2,74.855 C15.75375,74.855 15.26375,75.02125 14.8,75.275 L14.8,73.27125 C14.8,73.20125 14.7475,73.14 14.66,73.14 L14.26625,73.14 C14.17875,73.14 14.12625,73.20125 14.12625,73.27125 L14.12625,78.915 C14.12625,78.99375 14.16125,79.055 14.24875,79.055 L14.66,79.055 Z M19.94625,79.1425 C20.41,79.1425 20.87375,78.97625 21.18875,78.74 L21.18875,78.915 C21.18875,78.99375 21.25875,79.055 21.32875,79.055 L21.6875,79.055 C21.775,79.055 21.8275,78.99375 21.8275,78.915 L21.8275,76.49125 C21.8275,75.19625 21.355,74.89 20.27875,74.89 C20.01625,74.89 19.7275,74.9075 19.395,74.93375 C19.29,74.9425 19.22875,74.995 19.22875,75.1 L19.22875,75.345 C19.22875,75.45 19.29,75.5025 19.395,75.5025 C20.61125,75.5025 21.17125,75.37125 21.17125,76.255 L21.17125,76.535 L20.20875,76.535 C19.26375,76.535 18.45,77.01625 18.485,77.90875 C18.52,78.76625 19.2025,79.1425 19.94625,79.1425 Z M19.98125,78.55625 C19.535,78.55625 19.17625,78.3725 19.14125,77.92625 C19.10625,77.41875 19.50875,77.08625 20.2175,77.08625 L21.18,77.08625 L21.18,78.0925 C20.94375,78.3725 20.4275,78.55625 19.98125,78.55625 Z M29.075,77.165 C29.145,77.165 29.215,77.10375 29.215,77.025 L29.215,76.675 C29.215,76.59625 29.145,76.535 29.075,76.535 L26.03,76.535 C25.95125,76.535 25.89,76.59625 25.89,76.675 L25.89,77.025 C25.89,77.10375 25.95125,77.165 26.03,77.165 L29.075,77.165 Z M36.585,79.055 C36.655,79.055 36.725,79.0025 36.725,78.92375 L36.725,78.55625 C36.725,78.4775 36.655,78.41625 36.585,78.41625 L34.05625,78.41625 L34.05625,73.7875 C34.05625,73.7175 34.00375,73.65625 33.91625,73.65625 L33.505,73.65625 C33.4175,73.65625 33.365,73.7175 33.365,73.7875 L33.365,78.87125 C33.365,78.9675 33.4525,79.055 33.54875,79.055 L36.585,79.055 Z M40.3225,79.055 C40.4275,79.055 40.48875,78.99375 40.48875,78.88875 L40.48875,78.62625 C40.48875,78.52125 40.4275,78.46875 40.3225,78.46875 C39.03625,78.46875 38.54625,78.36375 38.54625,77.47125 L38.54625,77.1825 L40.8475,77.1825 C41.03125,77.1825 41.18,77.03375 41.18,76.85 L41.18,76.40375 C41.18,75.52875 40.445,74.82875 39.52625,74.82875 C38.6075,74.82875 37.86375,75.52875 37.86375,76.40375 L37.86375,77.4275 C37.86375,78.8051 38.694342,79.037612 39.844591,79.0540088 L40.3225,79.055 Z M40.4975,76.61375 L38.54625,76.61375 L38.54625,76.395 C38.54625,75.87875 38.98375,75.45875 39.52625,75.45875 C40.06875,75.45875 40.4975,75.87875 40.4975,76.395 L40.4975,76.61375 Z M43.42125,80.84875 C44.64625,80.84875 45.565,80.665 45.565,79.265 L45.565,75.065 C45.565,74.995 45.5125,74.93375 45.425,74.93375 L45.075,74.93375 C45.005,74.93375 44.94375,74.995 44.94375,75.065 L44.94375,75.3625 C44.725,75.03875 44.2875,74.855 43.8675,74.855 C42.94875,74.855 42.205,75.56375 42.205,76.43 L42.205,77.5675 C42.205,78.43375 42.94875,79.1425 43.8675,79.1425 C44.26125,79.1425 44.6025,79.02 44.8825,78.78375 L44.8825,79.1425 C44.8825,80.175 44.48,80.2625 43.115,80.2625 C43.01,80.2625 42.94875,80.315 42.94875,80.42 L42.94875,80.6825 C42.94875,80.7875 43.01,80.84875 43.115,80.84875 L43.42125,80.84875 Z M43.885,78.53875 C43.3425,78.53875 42.89625,78.11875 42.89625,77.6025 L42.89625,76.395 C42.89625,75.87875 43.3425,75.45875 43.885,75.45875 C44.41,75.45875 44.8825,75.86125 44.8825,76.36 L44.8825,77.6375 C44.8825,78.13625 44.41,78.53875 43.885,78.53875 Z M48.31375,79.1425 C48.7775,79.1425 49.24125,78.97625 49.55625,78.74 L49.55625,78.915 C49.55625,78.99375 49.62625,79.055 49.69625,79.055 L50.055,79.055 C50.1425,79.055 50.195,78.99375 50.195,78.915 L50.195,76.49125 C50.195,75.19625 49.7225,74.89 48.64625,74.89 C48.38375,74.89 48.095,74.9075 47.7625,74.93375 C47.6575,74.9425 47.59625,74.995 47.59625,75.1 L47.59625,75.345 C47.59625,75.45 47.6575,75.5025 47.7625,75.5025 C48.97875,75.5025 49.53875,75.37125 49.53875,76.255 L49.53875,76.535 L48.57625,76.535 C47.63125,76.535 46.8175,77.01625 46.8525,77.90875 C46.8875,78.76625 47.57,79.1425 48.31375,79.1425 Z M48.34875,78.55625 C47.9025,78.55625 47.54375,78.3725 47.50875,77.92625 C47.47375,77.41875 47.87625,77.08625 48.585,77.08625 L49.5475,77.08625 L49.5475,78.0925 C49.31125,78.3725 48.795,78.55625 48.34875,78.55625 Z M54.65875,79.055 C54.7375,79.055 54.79875,78.99375 54.79875,78.915 L54.79875,78.6 C54.79875,78.52125 54.7375,78.46 54.65875,78.46 L53.48625,78.46 L53.48625,73.32375 C53.48625,73.2275 53.39875,73.14 53.3025,73.14 L52.2175,73.14 C52.1475,73.14 52.08625,73.1925 52.08625,73.27125 L52.08625,73.595 C52.08625,73.67375 52.1475,73.735 52.2175,73.735 L52.80375,73.735 L52.80375,78.46 L51.6225,78.46 C51.54375,78.46 51.4825,78.52125 51.4825,78.6 L51.4825,78.915 C51.4825,78.99375 51.54375,79.055 51.6225,79.055 L54.65875,79.055 Z M60.54125,79.16875 C60.97,79.16875 61.53875,79.01125 61.95,78.4775 C62.0025,78.4075 62.0025,78.3025 61.92375,78.2325 L61.74875,78.0925 C61.67,78.0225 61.57375,78.0225 61.495,78.11 C61.2675,78.36375 60.90875,78.53875 60.55875,78.53875 C59.98125,78.53875 59.465,78.11 59.465,77.59375 L59.465,75.135 C59.465,74.61875 59.98125,74.19875 60.55875,74.19875 C60.90875,74.19875 61.2675,74.37375 61.495,74.6275 C61.57375,74.715 61.67,74.715 61.74875,74.645 L61.92375,74.505 C62.0025,74.435 62.0025,74.33 61.95,74.26 C61.53875,73.72625 60.97,73.56875 60.54125,73.56875 C59.57,73.56875 58.77375,74.26875 58.77375,75.14375 L58.77375,77.585 C58.77375,78.46 59.57,79.16875 60.54125,79.16875 Z M65.59125,79.055 C65.69625,79.055 65.7575,78.99375 65.7575,78.88875 L65.7575,78.62625 C65.7575,78.52125 65.69625,78.46875 65.59125,78.46875 C64.305,78.46875 63.815,78.36375 63.815,77.47125 L63.815,77.1825 L66.11625,77.1825 C66.3,77.1825 66.44875,77.03375 66.44875,76.85 L66.44875,76.40375 C66.44875,75.52875 65.71375,74.82875 64.795,74.82875 C63.87625,74.82875 63.1325,75.52875 63.1325,76.40375 L63.1325,77.4275 C63.1325,78.8051 63.963092,79.037612 65.113341,79.0540088 L65.59125,79.055 Z M65.76625,76.61375 L63.815,76.61375 L63.815,76.395 C63.815,75.87875 64.2525,75.45875 64.795,75.45875 C65.3375,75.45875 65.76625,75.87875 65.76625,76.395 L65.76625,76.61375 Z M68.27,79.055 C68.34,79.055 68.41,78.99375 68.41,78.915 L68.41,75.91375 C68.76875,75.70375 69.27625,75.49375 69.6875,75.49375 C70.08125,75.49375 70.3875,75.68625 70.3875,76.24625 L70.3875,78.915 C70.3875,78.99375 70.44875,79.055 70.51875,79.055 L70.93875,79.055 C71.0175,79.055 71.07,78.99375 71.07,78.915 L71.07,76.38625 C71.07,75.24875 70.51875,74.84625 69.81,74.84625 C69.355,74.84625 68.8475,75.02125 68.375,75.28375 L68.375,75.065 C68.375,74.995 68.3225,74.93375 68.235,74.93375 L67.87625,74.93375 C67.78875,74.93375 67.73625,74.995 67.73625,75.065 L67.73625,78.915 C67.73625,78.99375 67.77125,79.055 67.85875,79.055 L68.27,79.055 Z M75.28875,79.055 C75.39375,79.055 75.455,78.99375 75.455,78.88875 L75.455,78.6175 C75.455,78.5125 75.39375,78.46 75.28875,78.46 C73.985,78.46 73.5825,78.4075 73.5825,77.26125 L73.5825,75.52875 L74.895,75.52875 C74.97375,75.52875 75.035,75.47625 75.035,75.38875 L75.035,75.065 C75.035,74.995 74.97375,74.93375 74.895,74.93375 L73.5825,74.93375 L73.5825,73.28 C73.5825,73.20125 73.53,73.14 73.4425,73.14 L73.03125,73.14 C72.96125,73.14 72.89125,73.20125 72.89125,73.28 L72.89125,74.93375 L72.3225,74.93375 C72.24375,74.93375 72.1825,74.995 72.1825,75.065 L72.1825,75.38875 C72.1825,75.47625 72.24375,75.52875 72.3225,75.52875 L72.89125,75.52875 L72.89125,77.47125 C72.89125,78.87125 73.81,79.055 75.04375,79.055 L75.28875,79.055 Z M78.965,79.055 C79.07,79.055 79.13125,78.99375 79.13125,78.88875 L79.13125,78.62625 C79.13125,78.52125 79.07,78.46875 78.965,78.46875 C77.67875,78.46875 77.18875,78.36375 77.18875,77.47125 L77.18875,77.1825 L79.49,77.1825 C79.67375,77.1825 79.8225,77.03375 79.8225,76.85 L79.8225,76.40375 C79.8225,75.52875 79.0875,74.82875 78.16875,74.82875 C77.25,74.82875 76.50625,75.52875 76.50625,76.40375 L76.50625,77.4275 C76.50625,78.8051 77.336842,79.037612 78.487091,79.0540088 L78.965,79.055 Z M79.14,76.61375 L77.18875,76.61375 L77.18875,76.395 C77.18875,75.87875 77.62625,75.45875 78.16875,75.45875 C78.71125,75.45875 79.14,75.87875 79.14,76.395 L79.14,76.61375 Z M83.4025,79.055 C83.48125,79.055 83.5425,78.99375 83.5425,78.915 L83.5425,78.6 C83.5425,78.52125 83.48125,78.46 83.4025,78.46 L82.30875,78.46 L82.30875,76.50875 C82.57125,76.1325 82.93875,75.555 83.88375,75.555 L84.085,75.555 C84.19,75.555 84.25125,75.51125 84.25125,75.40625 L84.25125,75.09125 C84.25125,74.98625 84.19,74.93375 84.085,74.93375 L83.88375,74.93375 C83.21875,74.93375 82.64125,75.14375 82.30875,75.8525 L82.30875,75.1175 C82.30875,75.02125 82.22125,74.93375 82.125,74.93375 L81.075,74.93375 C80.99625,74.93375 80.935,74.98625 80.935,75.065 L80.935,75.38875 C80.935,75.4675 80.99625,75.52875 81.075,75.52875 L81.69625,75.52875 L81.69625,78.46 L81.075,78.46 C80.99625,78.46 80.935,78.52125 80.935,78.6 L80.935,78.915 C80.935,78.99375 80.99625,79.055 81.075,79.055 L83.4025,79.055 Z M90.64125,79.055 C90.71125,79.055 90.78125,78.99375 90.78125,78.915 L90.78125,78.6 C90.78125,78.52125 90.71125,78.46 90.64125,78.46 L89.32875,78.46 L89.32875,75.52875 L90.64125,75.52875 C90.71125,75.52875 90.78125,75.4675 90.78125,75.38875 L90.78125,75.065 C90.78125,74.98625 90.71125,74.93375 90.64125,74.93375 L89.32875,74.93375 L89.32875,74.74125 C89.32875,73.7525 89.7925,73.735 91.035,73.735 C91.14,73.735 91.20125,73.6825 91.20125,73.5775 L91.20125,73.30625 C91.20125,73.20125 91.14,73.14 91.035,73.14 L90.79,73.14 C89.55625,73.14 88.6375,73.32375 88.6375,74.72375 L88.6375,74.93375 L88.0075,74.93375 C87.9375,74.93375 87.87625,74.98625 87.87625,75.065 L87.87625,75.38875 C87.87625,75.4675 87.9375,75.52875 88.0075,75.52875 L88.6375,75.52875 L88.6375,78.46 L88.01625,78.46 C87.9375,78.46 87.87625,78.52125 87.87625,78.6 L87.87625,78.915 C87.87625,78.99375 87.9375,79.055 88.01625,79.055 L90.64125,79.055 Z M93.9675,79.1425 C94.88625,79.1425 95.63,78.43375 95.63,77.55875 L95.63,76.43 C95.63,75.555 94.88625,74.855 93.9675,74.855 C93.01375,74.855 92.27,75.555 92.27,76.43 L92.27,77.55875 C92.27,78.43375 93.01375,79.1425 93.9675,79.1425 Z M93.95,78.53875 C93.4075,78.53875 92.96125,78.11 92.96125,77.6025 L92.96125,76.395 C92.96125,75.87875 93.4075,75.45875 93.95,75.45875 C94.4925,75.45875 94.9475,75.87875 94.9475,76.395 L94.9475,77.6025 C94.9475,78.11 94.4925,78.53875 93.95,78.53875 Z M99.34125,79.055 C99.42,79.055 99.48125,78.99375 99.48125,78.915 L99.48125,78.6 C99.48125,78.52125 99.42,78.46 99.34125,78.46 L98.2475,78.46 L98.2475,76.50875 C98.51,76.1325 98.8775,75.555 99.8225,75.555 L100.02375,75.555 C100.12875,75.555 100.19,75.51125 100.19,75.40625 L100.19,75.09125 C100.19,74.98625 100.12875,74.93375 100.02375,74.93375 L99.8225,74.93375 C99.1575,74.93375 98.58,75.14375 98.2475,75.8525 L98.2475,75.1175 C98.2475,75.02125 98.16,74.93375 98.06375,74.93375 L97.01375,74.93375 C96.935,74.93375 96.87375,74.98625 96.87375,75.065 L96.87375,75.38875 C96.87375,75.4675 96.935,75.52875 97.01375,75.52875 L97.635,75.52875 L97.635,78.46 L97.01375,78.46 C96.935,78.46 96.87375,78.52125 96.87375,78.6 L96.87375,78.915 C96.87375,78.99375 96.935,79.055 97.01375,79.055 L99.34125,79.055 Z M104.54125,79.055 C104.62875,79.055 104.68125,78.99375 104.68125,78.92375 L104.68125,76.29 L106.0725,76.29 C106.1425,76.29 106.2125,76.22875 106.2125,76.15 L106.2125,75.79125 C106.2125,75.7125 106.1425,75.66 106.0725,75.66 L104.68125,75.66 L104.68125,74.295 L107.21,74.295 C107.28,74.295 107.35,74.23375 107.35,74.155 L107.35,73.7875 C107.35,73.70875 107.28,73.65625 107.21,73.65625 L104.17375,73.65625 C104.0775,73.65625 103.99,73.74375 103.99,73.84 L103.99,78.92375 C103.99,78.99375 104.0425,79.055 104.13,79.055 L104.54125,79.055 Z M110.93,79.055 C111.00875,79.055 111.07,78.99375 111.07,78.915 L111.07,78.6 C111.07,78.52125 111.00875,78.46 110.93,78.46 L109.83625,78.46 L109.83625,76.50875 C110.09875,76.1325 110.46625,75.555 111.41125,75.555 L111.6125,75.555 C111.7175,75.555 111.77875,75.51125 111.77875,75.40625 L111.77875,75.09125 C111.77875,74.98625 111.7175,74.93375 111.6125,74.93375 L111.41125,74.93375 C110.74625,74.93375 110.16875,75.14375 109.83625,75.8525 L109.83625,75.1175 C109.83625,75.02125 109.74875,74.93375 109.6525,74.93375 L108.6025,74.93375 C108.52375,74.93375 108.4625,74.98625 108.4625,75.065 L108.4625,75.38875 C108.4625,75.4675 108.52375,75.52875 108.6025,75.52875 L109.22375,75.52875 L109.22375,78.46 L108.6025,78.46 C108.52375,78.46 108.4625,78.52125 108.4625,78.6 L108.4625,78.915 C108.4625,78.99375 108.52375,79.055 108.6025,79.055 L110.93,79.055 Z M115.28875,79.055 C115.39375,79.055 115.455,78.99375 115.455,78.88875 L115.455,78.62625 C115.455,78.52125 115.39375,78.46875 115.28875,78.46875 C114.0025,78.46875 113.5125,78.36375 113.5125,77.47125 L113.5125,77.1825 L115.81375,77.1825 C115.9975,77.1825 116.14625,77.03375 116.14625,76.85 L116.14625,76.40375 C116.14625,75.52875 115.41125,74.82875 114.4925,74.82875 C113.57375,74.82875 112.83,75.52875 112.83,76.40375 L112.83,77.4275 C112.83,78.8051 113.660592,79.037612 114.810841,79.0540088 L115.28875,79.055 Z M115.46375,76.61375 L113.5125,76.61375 L113.5125,76.395 C113.5125,75.87875 113.95,75.45875 114.4925,75.45875 C115.035,75.45875 115.46375,75.87875 115.46375,76.395 L115.46375,76.61375 Z M119.74375,79.055 C119.84875,79.055 119.91,78.99375 119.91,78.88875 L119.91,78.62625 C119.91,78.52125 119.84875,78.46875 119.74375,78.46875 C118.4575,78.46875 117.9675,78.36375 117.9675,77.47125 L117.9675,77.1825 L120.26875,77.1825 C120.4525,77.1825 120.60125,77.03375 120.60125,76.85 L120.60125,76.40375 C120.60125,75.52875 119.86625,74.82875 118.9475,74.82875 C118.02875,74.82875 117.285,75.52875 117.285,76.40375 L117.285,77.4275 C117.285,78.8051 118.115592,79.037612 119.265841,79.0540088 L119.74375,79.055 Z M119.91875,76.61375 L117.9675,76.61375 L117.9675,76.395 C117.9675,75.87875 118.405,75.45875 118.9475,75.45875 C119.49,75.45875 119.91875,75.87875 119.91875,76.395 L119.91875,76.61375 Z M123.28875,79.1425 C123.735,79.1425 124.14625,78.9675 124.365,78.64375 L124.365,78.94125 C124.365,79.01125 124.42625,79.055 124.49625,79.055 L124.855,79.055 C124.9425,79.055 124.995,78.99375 124.995,78.92375 L124.995,73.28 C124.995,73.21 124.9425,73.14 124.855,73.14 L124.44375,73.14 C124.35625,73.14 124.30375,73.21 124.30375,73.28 L124.30375,75.24875 C124.04125,75.00375 123.7,74.855 123.28875,74.855 C122.37,74.855 121.62625,75.555 121.62625,76.43 L121.62625,77.55875 C121.62625,78.43375 122.37,79.1425 123.28875,79.1425 Z M123.32375,78.53875 C122.76375,78.53875 122.30875,78.0925 122.30875,77.5325 L122.30875,76.47375 C122.30875,75.91375 122.76375,75.45875 123.32375,75.45875 C123.88375,75.45875 124.33,75.91375 124.33,76.47375 L124.33,77.5325 C124.33,78.0925 123.88375,78.53875 123.32375,78.53875 Z M128.11125,79.1425 C129.03,79.1425 129.77375,78.43375 129.77375,77.55875 L129.77375,76.43 C129.77375,75.555 129.03,74.855 128.11125,74.855 C127.1575,74.855 126.41375,75.555 126.41375,76.43 L126.41375,77.55875 C126.41375,78.43375 127.1575,79.1425 128.11125,79.1425 Z M128.09375,78.53875 C127.55125,78.53875 127.105,78.11 127.105,77.6025 L127.105,76.395 C127.105,75.87875 127.55125,75.45875 128.09375,75.45875 C128.63625,75.45875 129.09125,75.87875 129.09125,76.395 L129.09125,77.6025 C129.09125,78.11 128.63625,78.53875 128.09375,78.53875 Z M131.74375,79.055 C131.8225,79.055 131.88375,78.99375 131.88375,78.915 L131.88375,75.66875 C132.09375,75.555 132.35625,75.4675 132.5575,75.4675 C132.75875,75.4675 132.89875,75.56375 132.89875,75.8525 L132.89875,78.915 C132.89875,78.99375 132.96875,79.055 133.03875,79.055 L133.40625,79.055 C133.485,79.055 133.54625,78.99375 133.54625,78.915 L133.54625,75.8 C133.54625,75.7475 133.54625,75.70375 133.5375,75.6425 C133.7475,75.52875 133.975,75.4675 134.15875,75.4675 C134.35125,75.4675 134.49125,75.56375 134.49125,75.8525 L134.49125,78.915 C134.49125,78.99375 134.5525,79.055 134.63125,79.055 L135.05125,79.055 C135.13,79.055 135.19125,78.99375 135.19125,78.915 L135.19125,75.8 C135.19125,75.12625 134.84125,74.88125 134.40375,74.88125 C134.08875,74.88125 133.7125,75.02125 133.3975,75.205 C133.275,74.9775 133.0475,74.89 132.79375,74.89 C132.47875,74.89 132.12875,75.02125 131.83125,75.205 L131.83125,75.065 C131.83125,74.995 131.77875,74.93375 131.69125,74.93375 L131.3325,74.93375 C131.245,74.93375 131.1925,74.995 131.1925,75.065 L131.1925,78.915 C131.1925,78.99375 131.25375,79.055 131.3325,79.055 L131.74375,79.055 Z M140.7325,79.1425 C141.65125,79.1425 142.395,78.43375 142.395,77.55875 L142.395,76.43 C142.395,75.555 141.65125,74.855 140.7325,74.855 C139.77875,74.855 139.035,75.555 139.035,76.43 L139.035,77.55875 C139.035,78.43375 139.77875,79.1425 140.7325,79.1425 Z M140.715,78.53875 C140.1725,78.53875 139.72625,78.11 139.72625,77.6025 L139.72625,76.395 C139.72625,75.87875 140.1725,75.45875 140.715,75.45875 C141.2575,75.45875 141.7125,75.87875 141.7125,76.395 L141.7125,77.6025 C141.7125,78.11 141.2575,78.53875 140.715,78.53875 Z M146.40375,79.055 C146.47375,79.055 146.54375,78.99375 146.54375,78.915 L146.54375,78.6 C146.54375,78.52125 146.47375,78.46 146.40375,78.46 L145.09125,78.46 L145.09125,75.52875 L146.40375,75.52875 C146.47375,75.52875 146.54375,75.4675 146.54375,75.38875 L146.54375,75.065 C146.54375,74.98625 146.47375,74.93375 146.40375,74.93375 L145.09125,74.93375 L145.09125,74.74125 C145.09125,73.7525 145.555,73.735 146.7975,73.735 C146.9025,73.735 146.96375,73.6825 146.96375,73.5775 L146.96375,73.30625 C146.96375,73.20125 146.9025,73.14 146.7975,73.14 L146.5525,73.14 C145.31875,73.14 144.4,73.32375 144.4,74.72375 L144.4,74.93375 L143.77,74.93375 C143.7,74.93375 143.63875,74.98625 143.63875,75.065 L143.63875,75.38875 C143.63875,75.4675 143.7,75.52875 143.77,75.52875 L144.4,75.52875 L144.4,78.46 L143.77875,78.46 C143.7,78.46 143.63875,78.52125 143.63875,78.6 L143.63875,78.915 C143.63875,78.99375 143.7,79.055 143.77875,79.055 L146.40375,79.055 Z M151.28,79.055 C151.3675,79.055 151.42,78.99375 151.42,78.92375 L151.42,74.925 L152.18125,76.3425 C152.23375,76.4475 152.3125,76.5175 152.44375,76.5175 C152.575,76.5175 152.65375,76.4475 152.70625,76.3425 L153.4675,74.925 L153.4675,78.92375 C153.4675,78.99375 153.52,79.055 153.6075,79.055 L153.98375,79.055 C154.07125,79.055 154.12375,78.99375 154.12375,78.92375 L154.12375,73.8225 C154.12375,73.735 154.05375,73.65625 153.96625,73.65625 L153.485,73.65625 L152.44375,75.63375 L151.4025,73.65625 L150.92125,73.65625 C150.83375,73.65625 150.76375,73.735 150.76375,73.8225 L150.76375,78.92375 C150.76375,78.99375 150.81625,79.055 150.90375,79.055 L151.28,79.055 Z M157.24,79.1425 C158.15875,79.1425 158.9025,78.43375 158.9025,77.55875 L158.9025,76.43 C158.9025,75.555 158.15875,74.855 157.24,74.855 C156.28625,74.855 155.5425,75.555 155.5425,76.43 L155.5425,77.55875 C155.5425,78.43375 156.28625,79.1425 157.24,79.1425 Z M157.2225,78.53875 C156.68,78.53875 156.23375,78.11 156.23375,77.6025 L156.23375,76.395 C156.23375,75.87875 156.68,75.45875 157.2225,75.45875 C157.765,75.45875 158.22,75.87875 158.22,76.395 L158.22,77.6025 C158.22,78.11 157.765,78.53875 157.2225,78.53875 Z M161.70375,79.09875 C161.87875,79.09875 162.01,79.0025 162.0625,78.845 L163.4275,75.0825 C163.45375,75.00375 163.40125,74.93375 163.3225,74.93375 L162.91125,74.93375 C162.815,74.93375 162.745,74.96 162.71,75.05625 L161.94,77.48 C161.94,77.48 161.7475,78.11 161.70375,78.31125 C161.66,78.11 161.4675,77.48 161.4675,77.48 L160.6975,75.05625 C160.6625,74.96 160.5925,74.93375 160.49625,74.93375 L160.085,74.93375 C160.00625,74.93375 159.95375,75.00375 159.98,75.0825 L161.345,78.845 C161.3975,79.0025 161.52875,79.09875 161.70375,79.09875 Z M166.955,79.055 C167.06,79.055 167.12125,78.99375 167.12125,78.88875 L167.12125,78.62625 C167.12125,78.52125 167.06,78.46875 166.955,78.46875 C165.66875,78.46875 165.17875,78.36375 165.17875,77.47125 L165.17875,77.1825 L167.48,77.1825 C167.66375,77.1825 167.8125,77.03375 167.8125,76.85 L167.8125,76.40375 C167.8125,75.52875 167.0775,74.82875 166.15875,74.82875 C165.24,74.82875 164.49625,75.52875 164.49625,76.40375 L164.49625,77.4275 C164.49625,78.8051 165.326842,79.037612 166.477091,79.0540088 L166.955,79.055 Z M167.13,76.61375 L165.17875,76.61375 L165.17875,76.395 C165.17875,75.87875 165.61625,75.45875 166.15875,75.45875 C166.70125,75.45875 167.13,75.87875 167.13,76.395 L167.13,76.61375 Z M169.65125,79.055 C169.73,79.055 169.79125,78.99375 169.79125,78.915 L169.79125,75.66875 C170.00125,75.555 170.26375,75.4675 170.465,75.4675 C170.66625,75.4675 170.80625,75.56375 170.80625,75.8525 L170.80625,78.915 C170.80625,78.99375 170.87625,79.055 170.94625,79.055 L171.31375,79.055 C171.3925,79.055 171.45375,78.99375 171.45375,78.915 L171.45375,75.8 C171.45375,75.7475 171.45375,75.70375 171.445,75.6425 C171.655,75.52875 171.8825,75.4675 172.06625,75.4675 C172.25875,75.4675 172.39875,75.56375 172.39875,75.8525 L172.39875,78.915 C172.39875,78.99375 172.46,79.055 172.53875,79.055 L172.95875,79.055 C173.0375,79.055 173.09875,78.99375 173.09875,78.915 L173.09875,75.8 C173.09875,75.12625 172.74875,74.88125 172.31125,74.88125 C171.99625,74.88125 171.62,75.02125 171.305,75.205 C171.1825,74.9775 170.955,74.89 170.70125,74.89 C170.38625,74.89 170.03625,75.02125 169.73875,75.205 L169.73875,75.065 C169.73875,74.995 169.68625,74.93375 169.59875,74.93375 L169.24,74.93375 C169.1525,74.93375 169.1,74.995 169.1,75.065 L169.1,78.915 C169.1,78.99375 169.16125,79.055 169.24,79.055 L169.65125,79.055 Z M176.78375,79.055 C176.88875,79.055 176.95,78.99375 176.95,78.88875 L176.95,78.62625 C176.95,78.52125 176.88875,78.46875 176.78375,78.46875 C175.4975,78.46875 175.0075,78.36375 175.0075,77.47125 L175.0075,77.1825 L177.30875,77.1825 C177.4925,77.1825 177.64125,77.03375 177.64125,76.85 L177.64125,76.40375 C177.64125,75.52875 176.90625,74.82875 175.9875,74.82875 C175.06875,74.82875 174.325,75.52875 174.325,76.40375 L174.325,77.4275 C174.325,78.8051 175.155592,79.037612 176.305841,79.0540088 L176.78375,79.055 Z M176.95875,76.61375 L175.0075,76.61375 L175.0075,76.395 C175.0075,75.87875 175.445,75.45875 175.9875,75.45875 C176.53,75.45875 176.95875,75.87875 176.95875,76.395 L176.95875,76.61375 Z M179.4625,79.055 C179.5325,79.055 179.6025,78.99375 179.6025,78.915 L179.6025,75.91375 C179.96125,75.70375 180.46875,75.49375 180.88,75.49375 C181.27375,75.49375 181.58,75.68625 181.58,76.24625 L181.58,78.915 C181.58,78.99375 181.64125,79.055 181.71125,79.055 L182.13125,79.055 C182.21,79.055 182.2625,78.99375 182.2625,78.915 L182.2625,76.38625 C182.2625,75.24875 181.71125,74.84625 181.0025,74.84625 C180.5475,74.84625 180.04,75.02125 179.5675,75.28375 L179.5675,75.065 C179.5675,74.995 179.515,74.93375 179.4275,74.93375 L179.06875,74.93375 C178.98125,74.93375 178.92875,74.995 178.92875,75.065 L178.92875,78.915 C178.92875,78.99375 178.96375,79.055 179.05125,79.055 L179.4625,79.055 Z M186.48125,79.055 C186.58625,79.055 186.6475,78.99375 186.6475,78.88875 L186.6475,78.6175 C186.6475,78.5125 186.58625,78.46 186.48125,78.46 C185.1775,78.46 184.775,78.4075 184.775,77.26125 L184.775,75.52875 L186.0875,75.52875 C186.16625,75.52875 186.2275,75.47625 186.2275,75.38875 L186.2275,75.065 C186.2275,74.995 186.16625,74.93375 186.0875,74.93375 L184.775,74.93375 L184.775,73.28 C184.775,73.20125 184.7225,73.14 184.635,73.14 L184.22375,73.14 C184.15375,73.14 184.08375,73.20125 184.08375,73.28 L184.08375,74.93375 L183.515,74.93375 C183.43625,74.93375 183.375,74.995 183.375,75.065 L183.375,75.38875 C183.375,75.47625 183.43625,75.52875 183.515,75.52875 L184.08375,75.52875 L184.08375,77.47125 C184.08375,78.87125 185.0025,79.055 186.23625,79.055 L186.48125,79.055 Z" id="Gisha-LegalCenterforFreedomofMovement" fill="#FFFFFF" fill-rule="nonzero"></path>
    </g>
</svg>