<svg width="146" height="40" xmlns="http://www.w3.org/2000/svg" xmlns:xlink="http://www.w3.org/1999/xlink"><defs><path id="a" d="M0 .108h2.324v2.337H0z"/></defs><g fill="none" fill-rule="evenodd"><path fill="#FFF" d="M119.95 0l11.65 20-11.65 20h14.42L146 20 134.37 0zM92.243 31.253c0 2.27-1.993 3.372-3.919 3.372-.93 0-2.224-.134-4.084-1.002V31.62H86l.365.535c.565.267 1.229.4 1.893.4.996 0 1.826-.367 1.826-1.202 0-1.035-1.195-1.435-2.39-1.836-1.627-.5-3.454-1.202-3.454-3.305 0-2.303 1.926-3.305 3.885-3.305.73 0 1.86.1 3.62 1.035v1.836h-1.76l-.266-.434c-.531-.267-1.03-.4-1.594-.4-.863 0-1.726.4-1.726 1.268 0 .701.863 1.035 2.191 1.502 1.926.635 3.653 1.202 3.653 3.54m14.577-.669c-.034.167-.034.368-.034.501 0 .935.432 1.436 1.229 1.436.896 0 1.793-.601 2.557-1.136v-1.902l-3.753 1.101zm3.785-4.273c0-.901-.465-1.235-1.03-1.235-.63 0-1.593.334-2.257.734v.802h-2.126v-1.636c1.295-1.035 3.387-2.003 4.616-2.003 1.594 0 2.889.901 2.889 3.238v6.176h1.195v1.603l-2.225.467h-.763v-1.135c-1.03.801-1.96 1.235-2.89 1.235-2.224 0-3.12-1.602-3.12-3.405 0-.601.1-1.335.298-2.003l5.413-1.536v-1.302zM70.66 29.684c1.261 0 2.258-.968 2.258-2.27s-.997-2.304-2.258-2.304c-1.262 0-2.258 1.035-2.258 2.304 0 1.302.996 2.27 2.258 2.27zm-2.391 1.502c-1.229-.868-2.026-2.103-2.026-3.772 0-2.47 1.96-4.507 4.417-4.507.498 0 .963.1 1.394.234h4.383v1.97l-1.76.4c.266.6.432 1.202.432 1.87 0 2.47-1.992 4.473-4.416 4.473-.299 0-.565-.033-.83-.067l-.73 1.269h3.054a3.304 3.304 0 013.287 3.305c0 1.836-1.46 3.005-3.287 3.338-1.86.334-2.756.167-3.52 0-.763-.133-2.556-.834-2.955-1.903-.299-.8.067-1.402.067-1.402l1.195-1.302h1.295s-.631.802-.631 1.57c0 .266.133.734 1.03 1.101.896.334 2.357.467 3.453.067.73-.267 1.261-.768 1.261-1.47 0-.667-.564-1.268-1.261-1.268h-5.147l-.299-1.302 1.594-2.604zm13.149 1.336h.83v1.936h-3.785v-1.936h.83v-7.445h-.73V23.14h2.855zm-.133-12.319a1.18 1.18 0 00-1.162-1.169 1.18 1.18 0 00-1.162 1.169c0 .667.498 1.168 1.162 1.168.664 0 1.162-.534 1.162-1.168m15.108 14.255h-2.092V17.065l2.092.467v6.477c1.162-.735 2.125-1.069 3.387-1.069 1.66 0 2.922.968 3.088 3.138.033.735.1 2.304.1 4.007v4.373h-2.092v-4.273c0-1.603 0-3.072-.067-3.706-.1-.901-.697-1.202-1.46-1.202-1.063 0-2.358.634-2.923 1.135v8.046h-.033z"/><path d="M81.285 20.17A1.18 1.18 0 0080.123 19c-.664 0-1.162.535-1.162 1.17 0 .667.498 1.168 1.162 1.168.63.033 1.162-.5 1.162-1.169" fill="#FFF"/><g transform="translate(65.081 .832)"><mask id="b" fill="#fff"><use xlink:href="#a"/></mask><path d="M2.324 1.276A1.18 1.18 0 001.162.108C.498.108 0 .642 0 1.276c0 .668.498 1.169 1.162 1.169.631 0 1.162-.501 1.162-1.169" fill="#FFF" mask="url(#b)"/></g><path d="M96.393 34.425h-2.092v-17.36l2.092.467v6.477c1.162-.735 2.125-1.069 3.387-1.069 1.66 0 2.922.969 3.088 3.139.033.734.1 2.303.1 4.006v4.373h-2.092v-4.307c0-1.602 0-3.07-.067-3.705-.1-.902-.697-1.202-1.46-1.202-1.063 0-2.358.634-2.956 1.135v8.046zM50.305 7.984l.864-.3-.067-2.004c-.033-.033-.531-.467-.93-.467h-7.936l-.498-.568-1.129.134v.033c.266 1.903.3 2.805.3 2.805v.066h7.869v9.048h.033v.033h.066s1.03-.267 1.96-.567h.033v-.034c-.565-3.071-.565-7.745-.565-8.18" fill="#FFF"/><path d="M43.133 9.854l-1.594.567-.498 6.31h.033v.033h.067s1.295-.267 1.86-.434h.032v-3.472c.034-1.636.133-2.838.133-2.87l-.033-.134zm24.87-4.607l-3.22-.034v.034c-.067.2.165 2.003.199 2.236l.797.534c-.764 5.71-3.288 5.91-5.944 6.11l-.332.033c.232-.534 1.46-3.438 2.424-6.176l1.195-.434v-.033c0-.067-.1-1.803-.398-2.237-.034-.033-.034-.067-.067-.067H59.57l.067 2.17.697.534c-.631 2.704-1.893 5.843-2.092 6.343a.912.912 0 01-.133-.167c-.431-.567-1.394-2.236-1.56-6.276l1.095-.267v-.033s.034-1.302-.265-2.27V5.18h-1.56l-.3-.534v-.034H54.39v2.771h.034l.996.534c0 5.776 1.228 8.614 1.261 8.647v.067h.034c7.105-.067 8.268-2.404 8.3-2.504 0-.034 1.462-2.037 2.259-6.276l.863-.434-.133-2.17zm6.874.901s-.034-.1-.133-.234c-.2-.267-.73-.668-1.926-.668h-.498l-.498-.567-1.063.167v.033c.3 1.903.233 2.704.233 2.704v.067h.033v.033h.066s.631-.033 1.063-.033c.332 0 .398.033.432.033.53 0 .796.2.93.401.066.1.099.2.099.2s.2.701-.963 2.404l-.033.033h.033l.033.034s1.229.768 1.627 1.001l.033.034.034-.067c1.328-3.672.498-5.575.498-5.575m8.965 9.748c-1.76-3.171-1.76-5.408-1.793-7.244 0-.568 0-1.135-.067-1.636 0-.034-.132-.902-.53-1.402-.167-.234-.4-.4-.698-.4h-1.627l-.465-.468-1.063.167v.033c.266 1.903.332 2.57.332 2.604v.067h1.561c.266 0 .498.2.664.4.2.3.332.601.332.601.133 1.069.332 2.604.366 2.938-.167.1-.3.334-.465.601-.465.768-1.196 1.936-3.088 1.936-.166 0-.366 0-.565-.033h-.066l.232 2.437v.033h2.258l.033-.033c.764-.968 1.727-2.871 1.993-3.405l.763 3.672v.034l.067-.067c.431-.367 1.726-.768 1.76-.801l.066-.034z" fill="#FFF"/><path d="M3.121 30.118C1.328 29.016.133 27.78 0 26.646l2.192-.801c.265.8.93 1.669 2.29 2.47 1.76 1.002 4.384 1.47 7.704 1.402 3.42-.1 5.745-.534 7.272-1.402 1.295-.734 1.992-1.502 2.291-1.87l.067-16.191 2.224-.768-.1 17.06c.2.5 1.096 2.27 3.52 2.27 2.89 0 3.586-1.636 3.786-2.17V10.254l2.29-.768-.066 17.193c.133.468.83 2.137 3.952 2.137 3.021 0 3.553-1.068 3.553-1.068v-5.275l2.125-.534s-.399 3.171.066 5.475c.2 1.035 1.428 1.669 3.155 1.669 1.892 0 2.656-1.335 2.656-1.335l-.166-5.309 2.191-.667s-.298 4.507.366 5.942c.398.868 1.726 1.336 2.922 1.336 2.324 0 2.723-1.436 2.723-1.436v-6.777l2.191-.467s-.63 5.608.166 7.177c.432.868 2.059 1.202 3.121 1.202h.033c1.495 0 2.458-.7 2.723-1.035.465-.567.83-1.302 1.229-1.903.498-.734.83-1.368 1.228-1.77l1.528 1.47c-.399.033-.664.834-.996 1.469-.366.667-.897 1.369-1.428 2.003-.465.6-1.826 1.97-4.284 1.97h-.033c-1.992 0-3.32-.568-4.15-1.536-.797 1.102-2.026 1.702-3.985 1.702-1.86 0-3.22-.734-4.05-1.736-.831 1.002-2.126 1.837-3.985 1.837-1.893 0-3.387-.768-4.151-1.837-.93.902-2.324 1.57-4.715 1.57-2.59 0-4.184-.935-5.114-2.004-.863.868-2.49 2.07-4.847 2.004-2.225-.067-3.72-1.169-4.583-2.337-.63.567-1.594 1.268-2.922 1.903-1.892.9-4.648 1.435-7.87 1.435-3.619.1-7.005-.6-8.998-1.836" fill="#FFF"/><path d="M13.946 22.006c-1.229 0-2.225-.368-3.022-1.136.631-.834 1.495-1.235 2.557-1.235.266 0 .996.1 1.328.2L15.341 18s-.366-.3-1.096-.3c-1.13 0-2.49.367-3.155 1.202-.896 1.068-1.328 1.97-1.328 2.704 0 1.001.532 1.636 1.56 1.87-.597.7-.995 1.569-1.195 2.603 1.262-1.402 2.856-2.236 4.815-2.503l.764-1.97c-.73.267-1.295.4-1.76.4" fill="#FFF"/></g></svg>