<svg width="251" height="80" xmlns="http://www.w3.org/2000/svg" xmlns:xlink="http://www.w3.org/1999/xlink"><defs><path id="a" d="M0 .178h3.837v3.856H0z"/><path id="c" d="M0 .398h144.041v8.125H.001z"/></defs><g fill="none" fill-rule="evenodd"><path fill="#FFF" d="M198 0l23.582 40L198 80h29.188l23.54-40-23.54-40zm-45.736 51.568c0 3.745-3.29 5.563-6.468 5.563-1.535 0-3.672-.22-6.742-1.652v-3.305h2.905l.603.881c.932.44 2.028.66 3.124.66 1.645 0 3.015-.605 3.015-1.982 0-1.708-1.973-2.369-3.946-3.03-2.686-.826-5.7-1.983-5.7-5.453 0-3.801 3.178-5.453 6.412-5.453 1.206 0 3.07.165 5.974 1.707v3.03h-2.905l-.438-.716c-.877-.441-1.7-.661-2.63-.661-1.426 0-2.851.66-2.851 2.093 0 1.157 1.425 1.708 3.617 2.479 3.18 1.046 6.03 1.983 6.03 5.839m24.061-1.102c-.055.275-.055.606-.055.826 0 1.543.713 2.369 2.028 2.369 1.48 0 2.96-.992 4.22-1.874v-3.139l-6.193 1.818zm6.249-7.05c0-1.488-.768-2.039-1.7-2.039-1.04 0-2.63.55-3.727 1.212v1.322h-3.507v-2.7c2.137-1.707 5.59-3.304 7.618-3.304 2.631 0 4.769 1.487 4.769 5.343v10.19H188v2.645l-3.672.77h-1.261v-1.872c-1.7 1.322-3.234 2.038-4.769 2.038-3.672 0-5.152-2.644-5.152-5.619 0-.992.165-2.203.494-3.305l8.934-2.534v-2.148zm-65.937 5.563c2.083 0 3.727-1.598 3.727-3.746 0-2.148-1.644-3.801-3.727-3.801s-3.727 1.708-3.727 3.8c0 2.15 1.644 3.747 3.727 3.747zm-3.947 2.478c-2.028-1.432-3.343-3.47-3.343-6.224 0-4.076 3.234-7.437 7.29-7.437.822 0 1.59.166 2.302.386h7.235v3.25l-2.905.661c.438.992.712 1.983.712 3.085 0 4.076-3.288 7.381-7.29 7.381-.493 0-.931-.055-1.37-.11l-1.206 2.093h5.043c2.96 0 5.426 2.424 5.426 5.454s-2.411 4.957-5.426 5.508c-3.07.55-4.55.275-5.81 0-1.26-.22-4.22-1.377-4.878-3.14-.493-1.322.11-2.313.11-2.313l1.973-2.149h2.137s-1.041 1.322-1.041 2.59c0 .44.22 1.211 1.7 1.817 1.479.55 3.89.771 5.7.11 1.205-.44 2.082-1.267 2.082-2.423 0-1.102-.932-2.094-2.083-2.094h-8.495l-.494-2.148 2.631-4.297zm21.705 2.203h1.37v3.196h-6.248V53.66h1.37V41.377h-1.205v-3.195h4.713zm-.219-20.325c0-1.047-.877-1.928-1.918-1.928-1.042 0-1.919.881-1.919 1.928 0 1.101.823 1.928 1.919 1.928a1.911 1.911 0 001.918-1.928m24.939 23.521h-3.453v-28.7l3.453.772v10.686c1.918-1.212 3.508-1.763 5.59-1.763 2.741 0 4.824 1.598 5.098 5.178.055 1.212.164 3.801.164 6.61v7.217h-3.453v-7.051c0-2.644 0-5.068-.11-6.115-.164-1.487-1.15-1.983-2.411-1.983-1.754 0-3.892 1.047-4.823 1.873v13.276h-.055z"/><path d="M134.176 33.28c0-1.047-.877-1.929-1.918-1.929a1.911 1.911 0 00-1.919 1.928c0 1.102.823 1.928 1.919 1.928 1.041.055 1.918-.826 1.918-1.928" fill="#FFF"/><g transform="translate(107.429 1.373)"><mask id="b" fill="#fff"><use xlink:href="#a"/></mask><path d="M3.837 2.106c0-1.047-.877-1.928-1.919-1.928A1.911 1.911 0 000 2.106c0 1.101.822 1.928 1.918 1.928a1.911 1.911 0 001.919-1.928" fill="#FFF" mask="url(#b)"/></g><path d="M159.115 56.8h-3.453V28.158l3.453.77v10.687c1.918-1.212 3.508-1.762 5.59-1.762 2.741 0 4.824 1.597 5.098 5.178.055 1.211.164 3.8.164 6.61v7.216h-3.453V49.75c0-2.644 0-5.068-.11-6.115-.164-1.487-1.15-1.983-2.411-1.983-1.754 0-3.892 1.047-4.878 1.873v13.276zM83.038 13.174l1.425-.496-.11-3.305c-.054-.055-.877-.772-1.534-.772h-13.1l-.822-.936-1.864.22v.055c.439 3.14.494 4.628.494 4.628v.11h12.99v14.928h.055v.055h.11s1.698-.44 3.233-.937h.055v-.055c-.932-5.068-.932-12.78-.932-13.495" fill="#FFF"/><path d="M71.199 16.258l-2.631.937-.822 10.41h.055v.056h.11s2.137-.44 3.069-.716h.054v-5.729c.055-2.7.22-4.682.22-4.737l-.055-.22zm41.053-7.601l-5.317-.055v.055c-.11.33.274 3.305.33 3.69l1.315.882c-1.261 9.42-5.427 9.75-9.811 10.08l-.549.055c.384-.881 2.412-5.673 4.002-10.19l1.973-.716v-.056c0-.11-.165-2.974-.658-3.69-.055-.055-.055-.11-.11-.11H98.33l.11 3.58 1.15.882c-1.04 4.461-3.124 9.64-3.452 10.466a1.505 1.505 0 01-.22-.276c-.712-.936-2.302-3.69-2.576-10.356l1.809-.44v-.056s.055-2.148-.438-3.745v-.11h-2.577l-.493-.882V7.61H89.78v4.572h.054l1.645.882c0 9.53 2.028 14.211 2.083 14.266v.111h.054c11.73-.11 13.648-3.966 13.703-4.132 0-.055 2.412-3.36 3.727-10.356l1.425-.716-.22-3.58zm11.346 1.487s-.055-.165-.22-.386c-.328-.44-1.205-1.101-3.178-1.101h-.823l-.822-.937-1.754.276v.055c.494 3.14.384 4.461.384 4.461v.11h.055v.056h.11s1.04-.055 1.753-.055c.548 0 .658.055.713.055.877 0 1.315.33 1.535.66.11.166.164.331.164.331s.329 1.157-1.59 3.966l-.054.055h.054l.055.056s2.028 1.266 2.686 1.652l.055.055.055-.11c2.192-6.06.822-9.2.822-9.2m14.799 16.086c-2.905-5.233-2.905-8.924-2.96-11.954 0-.936 0-1.873-.11-2.699 0-.055-.219-1.487-.877-2.313-.274-.386-.657-.661-1.15-.661h-2.686l-.768-.772-1.754.276v.055c.439 3.14.548 4.241.548 4.297v.11h2.576c.439 0 .823.33 1.097.66.329.496.548.992.548.992.219 1.763.548 4.297.603 4.848-.274.165-.494.55-.768.991-.767 1.267-1.973 3.195-5.097 3.195-.274 0-.603 0-.932-.055h-.11l.384 4.021v.055h3.727l.055-.055c1.26-1.597 2.85-4.737 3.289-5.618l1.26 6.059v.055l.11-.11c.713-.606 2.85-1.267 2.905-1.322l.11-.055z" fill="#FFF"/><path d="M5.152 49.695C2.192 47.877.22 45.839 0 43.965l3.618-1.321c.438 1.322 1.534 2.754 3.781 4.076 2.905 1.653 7.235 2.424 12.717 2.314 5.645-.166 9.482-.882 12.003-2.314 2.138-1.212 3.289-2.479 3.782-3.085l.11-26.716 3.672-1.267-.165 28.149c.33.826 1.81 3.745 5.81 3.745 4.769 0 5.92-2.699 6.249-3.58V16.919l3.782-1.267-.11 28.369c.22.771 1.37 3.525 6.522 3.525 4.988 0 5.865-1.762 5.865-1.762V37.08l3.508-.881s-.658 5.233.11 9.034c.329 1.707 2.357 2.754 5.207 2.754 3.124 0 4.385-2.203 4.385-2.203l-.275-8.759 3.618-1.102s-.493 7.437.603 9.805c.658 1.433 2.85 2.204 4.823 2.204 3.837 0 4.495-2.369 4.495-2.369V34.381l3.617-.771s-1.041 9.254.274 11.843c.713 1.432 3.398 1.983 5.152 1.983h.055c2.467 0 4.056-1.157 4.495-1.708.767-.936 1.37-2.148 2.028-3.14.822-1.211 1.37-2.258 2.028-2.919l2.52 2.424c-.657.055-1.095 1.377-1.643 2.424-.603 1.101-1.48 2.258-2.357 3.305-.768.991-3.015 3.25-7.07 3.25h-.056c-3.288 0-5.48-.937-6.85-2.534-1.316 1.818-3.344 2.81-6.578 2.81-3.07 0-5.317-1.213-6.687-2.865-1.37 1.652-3.508 3.03-6.577 3.03-3.125 0-5.591-1.268-6.852-3.03-1.534 1.487-3.836 2.589-7.783 2.589-4.275 0-6.906-1.543-8.44-3.305-1.426 1.432-4.111 3.415-8.003 3.305-3.672-.11-6.139-1.928-7.564-3.856-1.041.936-2.63 2.093-4.823 3.14-3.124 1.487-7.673 2.368-12.99 2.368-5.974.166-11.565-.991-14.854-3.03" fill="#FFF"/><path d="M23.02 36.31c-2.027 0-3.672-.607-4.987-1.874 1.041-1.377 2.466-2.038 4.22-2.038.439 0 1.644.165 2.193.33l.877-3.03s-.603-.495-1.81-.495c-1.863 0-4.11.606-5.206 1.983-1.48 1.763-2.193 3.25-2.193 4.462 0 1.653.877 2.7 2.576 3.085-.986 1.157-1.644 2.589-1.973 4.296 2.083-2.313 4.714-3.69 7.948-4.13l1.26-3.25c-1.205.44-2.137.66-2.904.66" fill="#FFF"/><g transform="translate(6 70.17)"><mask id="d" fill="#fff"><use xlink:href="#c"/></mask><path d="M1.097 7.102c.305.511.61.91 1.037 1.194l-.61.17c-.488-.398-.792-.91-1.097-1.421C.122 6.477 0 5.852 0 5.227c0-1.08.488-2.102 1.402-3.068l.67.114C1.098 3.125.61 4.034.61 5.17c0 .681.122 1.306.487 1.931zm5.73-1.25c0 .853.061 1.42.122 1.761l-.792.228c.06-.739.06-1.364.06-1.875 0-.568 0-.966-.06-1.25-.183-.512-.488-.739-.915-.739H3.17c0-.17-.061-.625-.122-1.306l.488-.057.243.397h1.89c.549 0 .914.34 1.22.966-.062.682-.062 1.307-.062 1.875zm2.438-3.295s0 .057 0 0c-.243 1.25-.731 1.931-1.402 2.045.427-.966.61-1.59.61-1.875l.732-.228c.06 0 .06.058.06.058zm1.342 0s0 .057 0 0c-.244 1.193-.671 1.875-1.342 2.045.366-.966.55-1.59.55-1.875l.73-.228s.062 0 .062.058zm6.156 1.59l-.366.114c-.182.74-.426 1.591-.914 2.557-.244.17-.549.341-.853.511a7.646 7.646 0 01-2.621.626c0 .056 0-.284-.061-1.08.67.057 1.34-.057 1.95-.227l-.975-2.5-.549-.17c0-.342 0-.74-.06-1.194l.487-.057.244.398h.792c.122 0 .244.057.244.17l-.06.74-.306.169c.061.284.122.512.183.796.122.624.305 1.136.488 1.591.244-.114.548-.284.853-.455.305-.625.549-1.25.732-1.818l-.732-.17-.06-.966h1.157c.244 0 .366.057.427.227v.739zm1.646-1.932c.975.91 1.402 1.933 1.402 3.07 0 .624-.122 1.192-.427 1.817a4.144 4.144 0 01-1.097 1.42l-.61-.17a4.288 4.288 0 001.037-1.193c.305-.625.487-1.193.487-1.875 0-1.08-.487-2.045-1.463-2.898l.671-.17zm10.18 1.933l-.366.113c-.183.74-.427 1.591-.914 2.557-.244.17-.549.341-.854.511a7.646 7.646 0 01-2.62.626c0 .056 0-.284-.062-1.08.67.057 1.341-.057 1.95-.227l-.974-2.5-.55-.17c0-.342 0-.74-.06-1.194l.488-.057.243.398h.793c.122 0 .244.057.244.17l-.061.74-.305.169c.06.284.122.512.183.796.122.624.305 1.136.487 1.591.244-.114.55-.284.854-.455.305-.625.548-1.25.731-1.818l-.731-.17-.061-.966h1.158c.244 0 .366.057.427.227v.739zm3.291-.512c0 1.42 0 2.67.122 3.807l-.731.284V4.602c0-.114-.061-.227-.122-.34-.122-.171-.305-.228-.549-.228h-.792c0-.398 0-.795-.122-1.307l.427-.056.244.397h.853c.366 0 .549.17.67.568zm4.146 4.035h-2.804l.182-.966h1.89c0-.228.061-.455.061-.682a7.15 7.15 0 00-.305-1.989h-.975c0-.398 0-.852-.061-1.307l.488-.056.243.397h.732c.305 0 .488.17.549.512v4.09zm4.45-4.603c.487 0 .792.17.914.568 0 .114.06.228.06.341 0 .455-.121.966-.426 1.478-.427.795-1.22 1.534-2.255 2.216h-.427l-.061-1.023c.488-.057 1.036-.341 1.646-.91.548-.51.792-.908.792-1.136 0-.056 0-.056-.06-.114.06-.056 0-.113-.062-.227-.122-.17-.244-.227-.365-.227h-2.987V1.931c0-.68-.061-1.192-.061-1.476l.792-.057c.122 0 .183.057.244.113l.122.796h-.549c-.06.17-.06.398-.06.568 0 .398.06.739.182 1.08h2.56v.113zm9.996 1.307c0 .965.061 1.989.244 3.011-.305.114-.549.227-.853.341v-2.67c-.061-.682-.305-1.08-.793-1.08h-2.01l-.183.511c.06.455.122 1.25.244 2.273 0 .17 0 .455-.061.852h-1.707l.244-.965h.853c-.06-.341-.06-.682-.06-1.08 0-.397 0-.795.06-1.08.061-.17.122-.34.244-.51.06 0-.122-.057-.61-.114 0-.228 0-.682-.06-1.307-.062 0 .06 0 .426-.057l.244.398h3.048c.426 0 .67.227.792.738-.06.341-.06.512-.06.74zm3.78-.74c0 1.421 0 2.672.122 3.808l-.732.284V4.602c0-.114-.06-.227-.122-.34-.122-.171-.305-.228-.548-.228h-.793c0-.398 0-.795-.122-1.307l.427-.056.244.397h.853c.305 0 .549.17.67.568zm5.73 2.9c-.122.226-.183.397-.305.567-.244.398-.427.569-.549.625h-3.596l.304-.966h2.987c.366 0 .549-.113.488-.397a5.35 5.35 0 00-.122-1.08c-.183-.738-.61-1.136-1.158-1.25h-2.073c0-.398 0-.852-.122-1.307l.427-.056.244.397h2.073c.487 0 .853.341 1.158.966l.244 2.5zm3.535-2.444l-.853-.057c0 .284-.061.625-.061 1.022 0 .796.06 1.592.183 2.444-.183.057-.488.113-.915.227.183-1.306.183-2.556.122-3.75l-.61-.113c0-.341 0-.739-.06-1.193l.487-.057.183.397h1.097c.244 0 .366.114.427.34v.74zm6.4-.057l-.548.114c0 1.42.06 2.557.244 3.409-.244.056-.549.17-.915.227v-3.75h-3.84c0-.17-.06-.625-.122-1.307l.488-.056.244.397h4.084c.122 0 .244.057.426.17l-.06.796zM65.772 5c0 .17-.06.568-.06 1.193v1.42a4.999 4.999 0 01-.854.171l.244-2.557.67-.227zm11.46-1.932c.488 0 .793.17.915.568 0 .114.06.228.06.341 0 .455-.121.966-.426 1.478-.427.795-1.22 1.534-2.255 2.216h-.366l-.061-1.023c.487-.057 1.036-.341 1.646-.91.548-.51.792-.908.792-1.136 0-.056 0-.056-.06-.114.06-.056 0-.113-.062-.227-.122-.17-.244-.227-.366-.227h-2.986c0-.284 0-.966-.061-2.103 0-.68-.061-1.192-.061-1.476l.792-.057c.122 0 .183.057.244.113l.122.796h-.549c-.06.17-.06.398-.06.568 0 .398.06.739.182 1.08h2.56v.113zm7.01 1.08l-.365.113c-.183.74-.427 1.591-.915 2.557-.244.17-.548.341-.853.511a7.646 7.646 0 01-2.621.626c0 .056 0-.284-.061-1.08.67.057 1.34-.057 1.95-.227l-.975-2.5-.549-.17c0-.342 0-.74-.06-1.194l.487-.057.244.398h.792c.122 0 .244.057.244.17l-.06.74-.305.169c.06.284.121.512.182.796.122.624.305 1.136.488 1.591.244-.114.549-.284.853-.455.305-.625.549-1.25.732-1.818l-.732-.17-.06-.966h1.158c.243 0 .365.057.426.227v.739zm9.327-.114l-.549.114c0 1.42.061 2.557.244 3.409-.244.056-.549.17-.914.227v-3.75h-3.84c0-.17-.062-.625-.123-1.307l.488-.056.244.397h4.084c.122 0 .244.057.427.17l-.061.796zM89.485 5c0 .17-.061.568-.061 1.193v1.42a4.999 4.999 0 01-.854.171l.244-2.557.67-.227zm8.96.852c0 .853.061 1.42.122 1.761l-.792.228c.06-.739.06-1.364.06-1.875 0-.568 0-.966-.06-1.25-.183-.512-.488-.739-.915-.739h-2.072c0-.17-.061-.625-.122-1.306l.488-.057.243.397h1.89c.549 0 .914.34 1.22.966 0 .682-.062 1.307-.062 1.875zm2.621-2.784c.488 0 .793.114.915.341.06.227.06.455.06.739 0 .682-.121 1.363-.426 2.045a14.64 14.64 0 01-.792-.397c.365-.456.487-.966.548-1.42-.06-.172-.183-.285-.426-.285h-1.098c0-.398 0-.795-.122-1.307l.427-.057.244.398h.67v-.057zm7.254 3.58l-.183 1.023h-3.108l.243-.966h2.439c0-1.137-.183-1.989-.61-2.614-.244-.057-.61-.114-1.219-.057-.122.057-.244.114-.366.227-.305.17-.548.398-.792.625a307.06 307.06 0 00-.549 2.727h-.914c.548-1.477.853-2.613.792-3.352.061-.227-.244-.341-.853-.341 0-.17-.061-.568-.122-1.25l.488-.056.243.397h.488c.183 0 .305.114.366.398l.06.852 1.22-1.306h1.036c.488 0 .854.227 1.097.738l.244 2.955zm7.498-3.58v.91l-.366.17c-.244 1.08-.548 1.988-1.036 2.613-.122.17-.366.341-.67.512-.732.34-1.707.511-3.048.511-.366-.909-.549-2.102-.549-3.58l-.488-.227v-1.25h.488l.122.398h.853c.061.227.122.568.122.91l-.67.113c.06 1.363.304 2.216.792 2.727l.366-.852c.244-.683.488-1.307.61-1.819l-.305-.227-.061-.852h1.34c.123.057.184.398.184.91l-.549.17c-.305.795-.67 1.647-1.097 2.613.61-.057 1.036-.113 1.219-.17.427-.114.792-.341 1.036-.682.305-.398.549-.966.61-1.761l-.549-.228c-.06-.568-.122-.852-.06-.909h1.706zm4.328 0c.488 0 .792.17.914.568 0 .114.061.228.061.341 0 .455-.122.966-.426 1.478-.427.795-1.22 1.534-2.256 2.216h-.366l-.06-1.023c.487-.057 1.036-.341 1.645-.91.549-.51.793-.908.793-1.136 0-.056 0-.056-.061-.114.06-.056 0-.113-.061-.227-.122-.17-.244-.227-.366-.227h-2.987c0-.284 0-.966-.06-2.103 0-.68 0-1.192-.062-1.476l.793-.057c.122 0 .183.057.243.113l.122.796h-.548c-.061.17-.061.398-.061.568 0 .398.06.739.183 1.08h2.56v.113zm7.315 1.023l-.854-.057c0 .284-.06.625-.06 1.022 0 .796.06 1.592.182 2.444-.183.057-.487.113-.914.227.122-1.306.183-2.556.122-3.75l-.61-.113c0-.341 0-.739-.06-1.193l.487-.057.183.397h1.097c.244 0 .366.114.427.34v.74zm5.486 2.443c-.122.227-.183.398-.305.568-.244.398-.427.569-.549.625h-3.596l.305-.966h2.987c.365 0 .548-.113.487-.397a5.35 5.35 0 00-.122-1.08c-.182-.738-.61-1.136-1.158-1.25h-2.072c0-.398 0-.852-.122-1.307l.426-.056.244.397h2.073c.487 0 .853.341 1.158.966l.244 2.5zm4.876-.682c0 .853.061 1.42.122 1.761l-.792.228c.06-.739.06-1.364.06-1.875 0-.568 0-.966-.06-1.25-.183-.512-.488-.739-.915-.739h-2.072c0-.17-.061-.625-.122-1.306l.488-.057.244.397h1.89c.548 0 .914.34 1.218.966-.06.682-.06 1.307-.06 1.875zm6.218.796l-.183 1.023h-3.109l.244-.966h2.438c0-1.137-.182-1.989-.61-2.614-.243-.057-.609-.114-1.218-.057-.122.057-.244.114-.366.227-.305.17-.549.398-.792.625a307.06 307.06 0 00-.55 2.727h-.913c.548-1.477.853-2.613.792-3.352.06-.227-.244-.341-.853-.341 0-.17-.061-.568-.122-1.25l.487-.056.244.397h.488c.183 0 .305.114.366.398l.06.852 1.22-1.306h1.036c.488 0 .853.227 1.097.738l.244 2.955z" fill="#FFF" mask="url(#d)"/></g><path fill="#FFF" d="M153.15 75.795h3.84v-.852h-3.84zm12.861-1.591l-.548.114c0 1.42.06 2.557.244 3.41-.244.056-.549.17-.915.227v-3.75h-3.9c0-.171-.062-.626-.123-1.307l.488-.057.244.397h4.084c.122 0 .244.057.426.171v.795zm-4.084.966c0 .17-.06.568-.06 1.193v1.42a5.116 5.116 0 01-.854.172l.244-2.557.67-.228zm11.582-1.932v.91l-.366.17c-.243 1.08-.548 1.989-1.036 2.614-.122.17-.366.34-.67.511-.67.34-1.707.512-3.048.512-.366-.91-.549-2.103-.549-3.58l-.487-.227v-1.25h.487l.122.397h.853a3.7 3.7 0 01.122.91l-.67.113c.06 1.364.305 2.273.792 2.727l.366-.852c.244-.682.488-1.307.61-1.818l-.305-.227-.061-.91h1.34c.123.057.184.398.184.91l-.549.17a57.19 57.19 0 01-1.097 2.614c.61-.057 1.036-.113 1.22-.17.426-.114.792-.342 1.035-.682.305-.398.549-.966.61-1.762l-.549-.227c-.06-.568-.122-.852-.06-.91h1.706v.057zm2.56 0c.488 0 .793.114.915.341.06.228.06.455.06.739a4.93 4.93 0 01-.426 2.045 6.518 6.518 0 01-.732-.397c.366-.512.488-.966.55-1.42-.062-.171-.184-.284-.428-.284h-1.097c0-.399 0-.796-.122-1.308l.427-.056.244.397h.61v-.057zm5.486 4.375c-.182.058-.487.17-.792.342l-.366-1.535c-.122.228-.183.399-.305.568-.243.399-.426.74-.61.91h-1.035l-.122-.966h.244c.487 0 .853-.17 1.158-.455.183-.17.305-.398.487-.568l-.182-1.193c-.122-.284-.305-.454-.488-.454h-.67l-.123-1.25.427-.058.183.341h.731c.305 0 .427.228.55.739.06.398.06.909.121 1.42.061.739.366 1.42.792 2.16z"/></g></svg>