<?xml version="1.0" encoding="UTF-8"?>
<svg width="251px" height="80px" viewBox="0 0 251 80" version="1.1" xmlns="http://www.w3.org/2000/svg" xmlns:xlink="http://www.w3.org/1999/xlink">
    <!-- Generator: Sketch 62 (91390) - https://sketch.com -->
    <title>logo / white heb</title>
    <desc>Created with Sketch.</desc>
    <defs>
        <polygon id="path-1" points="0.000109620991 0.177923729 3.83684431 0.177923729 3.83684431 4.03358051 0.000109620991 4.03358051"></polygon>
        <polygon id="path-3" points="6.09567901e-05 0.397784091 144.040956 0.397784091 144.040956 8.52272727 6.09567901e-05 8.52272727"></polygon>
    </defs>
    <g id="symbols" stroke="none" stroke-width="1" fill="none" fill-rule="evenodd">
        <g id="header-/-main-desktop" transform="translate(-1161.000000, -20.000000)">
            <g id="logo-/-white-heb" transform="translate(1161.000000, 20.000000)">
                <g id="Group-16">
                    <polygon id="Fill-1" fill="#FFFFFF" points="198 0 221.582064 40 198 80 227.18816 80 250.727273 40 227.18816 0"></polygon>
                    <g id="Group-34" transform="translate(0.000000, 1.000000)">
                        <path d="M152.263557,50.5676864 C152.263557,54.3134492 148.974927,56.1312458 145.795918,56.1312458 C144.261224,56.1312458 142.123615,55.9109068 139.054227,54.4787034 L139.054227,51.1736186 L141.959184,51.1736186 L142.562099,52.0549746 C143.493878,52.4956525 144.590087,52.7154407 145.686297,52.7154407 C147.330612,52.7154407 148.700875,52.1100593 148.700875,50.7329407 C148.700875,49.0253136 146.727697,48.3642966 144.754519,47.7032797 C142.068805,46.8770085 139.054227,45.7202288 139.054227,42.2498898 C139.054227,38.4490424 142.233236,36.7965 145.467055,36.7965 C146.672886,36.7965 148.536443,36.9617542 151.441399,38.5041271 L151.441399,41.5337881 L148.536443,41.5337881 L148.097959,40.8176864 C147.220991,40.3770085 146.398834,40.1566695 145.467055,40.1566695 C144.041983,40.1566695 142.61691,40.8176864 142.61691,42.2498898 C142.61691,43.4066695 144.041983,43.9575169 146.234402,44.7287034 C149.413411,45.7753136 152.263557,46.7117542 152.263557,50.5676864" id="Fill-1" fill="#FFFFFF"></path>
                        <path d="M176.32531,49.4659915 C176.270499,49.7414153 176.270499,50.0719237 176.270499,50.2922627 C176.270499,51.8346356 176.983036,52.6609068 178.298487,52.6609068 C179.778371,52.6609068 181.258254,51.6693814 182.518896,50.7874746 L182.518896,47.6481949 L176.32531,49.4659915 Z M182.573706,42.4151441 C182.573706,40.9278559 181.806359,40.3770085 180.874581,40.3770085 C179.833181,40.3770085 178.243677,40.9278559 177.147467,41.5888729 L177.147467,42.9109068 L173.639595,42.9109068 L173.639595,40.2117542 C175.777205,38.5041271 179.230266,36.9066695 181.258254,36.9066695 C183.889158,36.9066695 186.026767,38.3939576 186.026767,42.2498898 L186.026767,52.4400169 L187.999945,52.4400169 L187.999945,55.0846356 L184.327642,55.855822 L183.067001,55.855822 L183.067001,53.9829407 C181.367875,55.3049746 179.833181,56.0205254 178.298487,56.0205254 C174.626184,56.0205254 173.146301,53.3770085 173.146301,50.4024322 C173.146301,49.4103559 173.310732,48.1990424 173.639595,47.0973475 L182.573706,44.5634492 L182.573706,42.4151441 Z" id="Fill-3" fill="#FFFFFF"></path>
                        <path d="M116.636735,47.9785932 C118.719534,47.9785932 120.363848,46.3811356 120.363848,44.2328305 C120.363848,42.0845254 118.719534,40.4319831 116.636735,40.4319831 C114.553936,40.4319831 112.909621,42.1396102 112.909621,44.2328305 C112.909621,46.3811356 114.553936,47.9785932 116.636735,47.9785932 L116.636735,47.9785932 Z M112.690379,50.4574068 C110.662391,49.0252034 109.346939,46.9870678 109.346939,44.2328305 C109.346939,40.1565593 112.580758,36.7963898 116.636735,36.7963898 C117.458892,36.7963898 118.226239,36.9616441 118.938776,37.1819831 L126.173761,37.1819831 L126.173761,40.4319831 L123.268805,41.093 C123.707289,42.0845254 123.981341,43.0760508 123.981341,44.1777458 C123.981341,48.2540169 120.692711,51.5591017 116.691545,51.5591017 C116.198251,51.5591017 115.759767,51.5040169 115.321283,51.4489322 L114.115452,53.5421525 L119.158017,53.5421525 C122.117784,53.5421525 124.584257,55.9658814 124.584257,58.9955424 C124.584257,62.0252034 122.172595,63.9531695 119.158017,64.5040169 C116.08863,65.0548644 114.608746,64.7794407 113.348105,64.5040169 C112.087464,64.283678 109.127697,63.1268983 108.469971,61.3641864 C107.976676,60.0421525 108.579592,59.0506271 108.579592,59.0506271 L110.55277,56.902322 L112.690379,56.902322 C112.690379,56.902322 111.64898,58.2243559 111.64898,59.4913051 C111.64898,59.9319831 111.868222,60.7031695 113.348105,61.3091017 C114.827988,61.8599492 117.23965,62.0802881 119.048397,61.4192712 C120.254227,60.9785932 121.131195,60.152322 121.131195,58.9955424 C121.131195,57.8938475 120.199417,56.902322 119.048397,56.902322 L110.55277,56.902322 L110.059475,54.7540169 L112.690379,50.4574068 Z" id="Fill-5" fill="#FFFFFF"></path>
                        <polygon id="Fill-7" fill="#FFFFFF" points="134.39528 52.6607966 135.765543 52.6607966 135.765543 55.8557119 129.517146 55.8557119 129.517146 52.6607966 130.887409 52.6607966 130.887409 40.3768983 129.681578 40.3768983 129.681578 37.1819831 133.737555 37.1819831 134.39528 37.1819831"></polygon>
                        <path d="M134.176093,32.3345805 C134.176093,31.2879703 133.299125,30.4066144 132.257726,30.4066144 C131.216327,30.4066144 130.339359,31.2879703 130.339359,32.3345805 C130.339359,33.4362754 131.161516,34.2625466 132.257726,34.2625466 C133.353936,34.2625466 134.176093,33.3811907 134.176093,32.3345805" id="Fill-9" fill="#FFFFFF"></path>
                        <path d="M159.114869,55.8556017 L155.661808,55.8556017 L155.661808,27.1564492 L159.114869,27.9276356 L159.114869,38.6140763 C161.033236,37.4022119 162.622741,36.8513644 164.705539,36.8513644 C167.446064,36.8513644 169.528863,38.448822 169.802915,42.0293305 C169.857726,43.2411949 169.967347,45.830178 169.967347,48.6395 L169.967347,55.8556017 L166.514286,55.8556017 L166.514286,48.8047542 C166.514286,46.1606864 166.514286,43.7369576 166.404665,42.6903475 C166.240233,41.2030593 165.253644,40.7072966 163.993003,40.7072966 C162.239067,40.7072966 160.101458,41.7539068 159.169679,42.580178 L159.169679,55.8556017 L159.114869,55.8556017 Z" id="Fill-11" fill="#FFFFFF"></path>
                        <path d="M134.176093,32.2794407 C134.176093,31.2328305 133.299125,30.3514746 132.257726,30.3514746 C131.161516,30.3514746 130.339359,31.2328305 130.339359,32.2794407 C130.339359,33.3811356 131.161516,34.2074068 132.257726,34.2074068 C133.299125,34.2624915 134.176093,33.3811356 134.176093,32.2794407" id="Fill-13" fill="#FFFFFF"></path>
                        <g id="Group-17" transform="translate(107.428571, 0.372924)">
                            <mask id="mask-2" fill="white">
                                <use xlink:href="#path-1"></use>
                            </mask>
                            <g id="Clip-16"></g>
                            <path d="M3.83684431,2.10561441 C3.83684431,1.05900424 2.95987638,0.177648305 1.91847697,0.177648305 C0.822267055,0.177648305 0.000109620991,1.05900424 0.000109620991,2.10561441 C0.000109620991,3.20730932 0.822267055,4.03358051 1.91847697,4.03358051 C2.95987638,4.03358051 3.83684431,3.20730932 3.83684431,2.10561441" id="Fill-15" fill="#FFFFFF" mask="url(#mask-2)"></path>
                        </g>
                        <path d="M159.114869,55.8007373 L155.661808,55.8007373 L155.661808,27.1566695 L159.114869,27.9278559 L159.114869,38.6142966 C161.033236,37.4024322 162.622741,36.8515847 164.705539,36.8515847 C167.446064,36.8515847 169.528863,38.4490424 169.802915,42.0295508 C169.857726,43.2414153 169.967347,45.8303983 169.967347,48.6397203 L169.967347,55.855822 L166.514286,55.855822 L166.514286,48.7498898 C166.514286,46.105822 166.514286,43.6820932 166.404665,42.6354831 C166.240233,41.1481949 165.253644,40.6524322 163.993003,40.6524322 C162.239067,40.6524322 160.101458,41.6990424 159.114869,42.5253136 L159.114869,55.8007373 Z" id="Fill-18" fill="#FFFFFF"></path>
                        <path d="M83.0380105,12.1735085 L84.4630834,11.6777458 L84.3534624,8.37266102 C84.2986519,8.31757627 83.4764945,7.60147458 82.8187685,7.60147458 L69.7190601,7.60147458 L68.8969026,6.6650339 L67.0333458,6.88537288 L67.0333458,6.94045763 C67.4718297,10.0802881 67.5266402,11.5675763 67.5266402,11.5675763 L67.5266402,11.622661 L67.5266402,11.6777458 L80.5167277,11.6777458 L80.5167277,26.6057119 L80.5715382,26.6057119 L80.5715382,26.6607966 L80.6811592,26.6607966 C80.6811592,26.6607966 82.3802845,26.2201186 83.9149784,25.7243559 L83.9697889,25.7243559 L83.9697889,25.6692712 C83.0380105,20.6014746 83.0380105,12.8896102 83.0380105,12.1735085" id="Fill-20" fill="#FFFFFF"></path>
                        <path d="M71.1988886,15.2583093 L68.5679848,16.19475 L67.7458274,26.6057669 L67.8006379,26.6057669 L67.8006379,26.6608517 L67.9102589,26.6608517 C67.9102589,26.6608517 70.0478682,26.2201737 70.9796466,25.94475 L71.0344571,25.94475 L71.0344571,25.8896653 L71.0344571,23.8515297 L71.0344571,20.2159364 C71.0892676,17.5167839 71.2536991,15.5337331 71.2536991,15.4786483 L71.1988886,15.2583093 Z" id="Fill-22" fill="#FFFFFF"></path>
                        <path d="M112.251895,7.65672458 L112.251895,7.65672458 L106.935277,7.60163983 L106.935277,7.65672458 C106.825656,7.98723305 107.209329,10.9618093 107.26414,11.3474025 L108.579592,12.2287585 C107.31895,21.64825 103.153353,21.9787585 98.7685131,22.3092669 L98.2204082,22.3643517 C98.6040816,21.4829958 100.63207,16.6906229 102.221574,12.1736737 L104.194752,11.457572 L104.194752,11.4024873 C104.194752,11.2923178 104.030321,8.42791102 103.537026,7.71180932 C103.482216,7.65672458 103.482216,7.60163983 103.427405,7.60163983 L98.3300292,7.60163983 L98.4396501,11.1821483 L99.5906706,12.0635042 C98.5492711,16.5253686 96.4664723,21.7033347 96.1376093,22.5296059 C96.0827988,22.4745212 96.0279883,22.4194364 95.9183673,22.2541822 C95.2058309,21.3177415 93.6163265,18.5635042 93.3422741,11.89825 L95.1510204,11.457572 L95.1510204,11.4024873 C95.1510204,11.4024873 95.2058309,9.2541822 94.7125364,7.65672458 L94.7125364,7.60163983 L94.7125364,7.54655508 L92.1364431,7.54655508 L91.6431487,6.66519915 L91.6431487,6.61011441 L89.7795918,6.61011441 L89.7795918,11.1821483 L89.8344023,11.1821483 L91.4787172,12.0635042 C91.4787172,21.5931653 93.5067055,26.2753686 93.561516,26.3304534 L93.561516,26.3855381 L93.561516,26.4406229 L93.6163265,26.4406229 C105.345773,26.3304534 107.26414,22.4745212 107.31895,22.3092669 C107.31895,22.2541822 109.730612,18.9490975 111.046064,11.9533347 L112.471137,11.2372331 L112.251895,7.65672458 Z" id="Fill-24" fill="#FFFFFF"></path>
                        <path d="M123.597777,9.14384746 C123.597777,9.14384746 123.542967,8.97859322 123.378535,8.75825424 C123.049672,8.31757627 122.172704,7.65655932 120.199527,7.65655932 L119.377369,7.65655932 L118.555212,6.72011864 L116.801276,6.99554237 L116.801276,7.05062712 C117.29457,10.1904576 117.184949,11.5124915 117.184949,11.5124915 L117.184949,11.622661 L117.23976,11.622661 L117.23976,11.6777458 L117.349381,11.6777458 C117.349381,11.6777458 118.39078,11.622661 119.103317,11.622661 C119.651422,11.622661 119.761043,11.6777458 119.815853,11.6777458 C120.692821,11.6777458 121.131305,12.0082542 121.350547,12.3387627 C121.460168,12.5040169 121.514978,12.6692712 121.514978,12.6692712 C121.514978,12.6692712 121.843841,13.8260508 119.925474,16.6353729 L119.870664,16.6904576 L119.925474,16.6904576 L119.980285,16.7455424 C119.980285,16.7455424 122.008273,18.0124915 122.665999,18.3980847 L122.720809,18.4531695 L122.77562,18.343 C124.96804,12.283678 123.597777,9.14384746 123.597777,9.14384746" id="Fill-26" fill="#FFFFFF"></path>
                        <path d="M138.396611,25.2287034 C135.491655,19.9956525 135.491655,16.3049746 135.436844,13.2753136 C135.436844,12.3388729 135.436844,11.4024322 135.327223,10.576161 C135.327223,10.5210763 135.107981,9.08887288 134.450255,8.26260169 C134.176203,7.87700847 133.792529,7.60158475 133.299235,7.60158475 L130.613521,7.60158475 L129.846174,6.83039831 L128.092238,7.10582203 L128.092238,7.16090678 C128.530722,10.3007373 128.640343,11.4024322 128.640343,11.4575169 L128.640343,11.5126017 L128.640343,11.5676864 L131.216436,11.5676864 C131.65492,11.5676864 132.038594,11.8981949 132.312646,12.2287034 C132.641509,12.7244661 132.860751,13.2202288 132.860751,13.2202288 C133.079993,14.9829407 133.408856,17.516839 133.463666,18.0676864 C133.189614,18.2329407 132.970372,18.6185339 132.69632,19.0592119 C131.928973,20.326161 130.723142,22.2541271 127.598943,22.2541271 C127.324891,22.2541271 126.996028,22.2541271 126.667165,22.1990424 L126.557544,22.1990424 L126.941217,26.2202288 L126.941217,26.2753136 L130.668331,26.2753136 L130.723142,26.2202288 C131.983783,24.6227712 133.573287,21.4829407 134.011771,20.6015847 L135.272413,26.6609068 L135.272413,26.7159915 L135.382034,26.605822 C136.09457,25.9998898 138.23218,25.3388729 138.28699,25.2837881 L138.396611,25.2287034 Z" id="Fill-28" fill="#FFFFFF"></path>
                        <path d="M5.1522414,48.6945847 C2.19247464,46.8767881 0.219296793,44.8386525 5.48104956e-05,42.9657712 L3.61754752,41.6437373 C4.05603149,42.9657712 5.1522414,44.3979746 7.39947172,45.7200085 C10.304428,47.3725508 14.6344571,48.1437373 20.1155067,48.0335678 C25.7609878,47.8683136 29.5977224,47.1522119 32.1190052,45.7200085 C34.2566146,44.5081441 35.407635,43.2411949 35.9009294,42.6352627 L36.0105504,15.919161 L39.6828536,14.6522119 L39.5184222,42.8005169 C39.8472851,43.6267881 41.3271685,46.5462797 45.3283347,46.5462797 C50.0968478,46.5462797 51.2478682,43.8471271 51.5767312,42.9657712 L51.5767312,15.919161 L55.3586554,14.6522119 L55.2490344,43.0208559 C55.4682764,43.7920424 56.6192968,46.5462797 61.7714834,46.5462797 C66.7592385,46.5462797 67.6362064,44.7835678 67.6362064,44.7835678 L67.6362064,36.080178 L71.1440781,35.198822 C71.1440781,35.198822 70.4863522,40.4318729 71.2536991,44.2327203 C71.5825621,45.9403475 73.6105504,46.9869576 76.4606962,46.9869576 C79.5848945,46.9869576 80.8455359,44.7835678 80.8455359,44.7835678 L80.5714834,36.0250932 L84.1889761,34.9233983 C84.1889761,34.9233983 83.6956816,42.359839 84.7918915,44.7284831 C85.4496175,46.1606864 87.6420373,46.9318729 89.6152152,46.9318729 C93.4519499,46.9318729 94.1096758,44.5632288 94.1096758,44.5632288 L94.1096758,33.3810254 L97.7271685,32.609839 C97.7271685,32.609839 96.6857691,41.8640763 98.001221,44.4530593 C98.7137574,45.8852627 101.399472,46.4361102 103.153408,46.4361102 L103.208218,46.4361102 C105.67469,46.4361102 107.264195,45.2793305 107.702679,44.7284831 C108.470026,43.7920424 109.072941,42.580178 109.730667,41.5886525 C110.552824,40.3767881 111.100929,39.330178 111.758655,38.669161 L114.279938,41.0928898 C113.622212,41.1479746 113.183728,42.4700085 112.635623,43.5166186 C112.032708,44.6183136 111.15574,45.7750932 110.278772,46.8217034 C109.511425,47.8132288 107.264195,50.0717034 103.208218,50.0717034 L103.153408,50.0717034 C99.8647778,50.0717034 97.672358,49.1352627 96.3020956,47.5378051 C94.9866437,49.3556017 92.9586554,50.3471271 89.7248362,50.3471271 C86.6554484,50.3471271 84.4082181,49.1352627 83.0379557,47.4827203 C81.6676933,49.1352627 79.530084,50.5123814 76.4606962,50.5123814 C73.336498,50.5123814 70.8700257,49.2454322 69.6093843,47.4827203 C68.0746904,48.9700085 65.7726496,50.0717034 61.8262939,50.0717034 C57.5510752,50.0717034 54.9201714,48.5293305 53.3854776,46.7666186 C51.9604047,48.198822 49.2746904,50.1818729 45.3831452,50.0717034 C41.710842,49.9615339 39.2443697,48.1437373 37.8192968,46.2157712 C36.7778974,47.1522119 35.188393,48.3089915 32.9959732,49.3556017 C29.8717749,50.8428898 25.3225038,51.7242458 20.0058857,51.7242458 C14.0315417,51.8895 8.44087114,50.7327203 5.1522414,48.6945847" id="Fill-30" fill="#FFFFFF"></path>
                        <path d="M23.0205178,35.3091017 C20.9925294,35.3091017 19.3482146,34.7031695 18.0327627,33.4362203 C19.0741621,32.0591017 20.499235,31.3980847 22.2531708,31.3980847 C22.6916548,31.3980847 23.8974857,31.563339 24.4455907,31.7285932 L25.3225586,28.6989322 C25.3225586,28.6989322 24.7196431,28.2031695 23.5138122,28.2031695 C21.6502554,28.2031695 19.4030251,28.8091017 18.3068152,30.1862203 C16.8269318,31.9489322 16.1143953,33.4362203 16.1143953,34.6480847 C16.1143953,36.3006271 16.9913633,37.3472373 18.6904886,37.7328305 C17.7038997,38.8896102 17.0461738,40.3218136 16.7173108,42.0294407 C18.8001096,39.7158814 21.4310134,38.3387627 24.6648327,37.8980847 L25.9254741,34.6480847 C24.7196431,35.0887627 23.7878647,35.3091017 23.0205178,35.3091017" id="Fill-32" fill="#FFFFFF"></path>
                    </g>
                    <g id="Group-7" transform="translate(6.000000, 70.000000)">
                        <g id="Group-3" transform="translate(0.000000, 0.170455)">
                            <mask id="mask-4" fill="white">
                                <use xlink:href="#path-3"></use>
                            </mask>
                            <g id="Clip-2"></g>
                            <path d="M1.09728318,7.10232955 C1.40206713,7.613125 1.70685108,8.01142045 2.13354861,8.29551136 L1.52398071,8.46539773 C1.03632639,8.06823864 0.731542438,7.556875 0.426758488,7.04494318 C0.121974537,6.47676136 6.09567901e-05,5.85232955 6.09567901e-05,5.22732955 C6.09567901e-05,4.14778409 0.487715278,3.12505682 1.40206713,2.15914773 L2.07259182,2.27278409 C1.09728318,3.12505682 0.609628858,4.03414773 0.609628858,5.17051136 C0.609628858,5.85232955 0.731542438,6.47676136 1.09728318,7.10232955 L1.09728318,7.10232955 Z M6.82722145,5.85232955 C6.82722145,6.70460227 6.88817824,7.27278409 6.94913503,7.613125 L6.15669676,7.84096591 C6.21765355,7.10232955 6.21765355,6.47676136 6.21765355,5.96596591 C6.21765355,5.39778409 6.21765355,5.00005682 6.15669676,4.71596591 C5.97382639,4.20403409 5.66904244,3.97732955 5.24234491,3.97732955 L3.16981404,3.97732955 C3.16981404,3.806875 3.10885725,3.35176136 3.04790046,2.67051136 L3.53555478,2.61369318 L3.77938194,3.01142045 L5.66904244,3.01142045 C6.21765355,3.01142045 6.58339429,3.35176136 6.88817824,3.97732955 C6.82722145,4.65914773 6.82722145,5.28414773 6.82722145,5.85232955 L6.82722145,5.85232955 Z M9.26549306,2.556875 C9.26549306,2.556875 9.26549306,2.61369318 9.26549306,2.556875 C9.0216659,3.806875 8.53401157,4.488125 7.86348688,4.60232955 C8.29018441,3.63585227 8.47305478,3.01142045 8.47305478,2.72732955 L9.20453627,2.49948864 C9.26549306,2.49948864 9.26549306,2.556875 9.26549306,2.556875 L9.26549306,2.556875 Z M10.6065424,2.556875 C10.6065424,2.556875 10.6065424,2.61369318 10.6065424,2.556875 C10.3627153,3.75005682 9.93601775,4.431875 9.26549306,4.60232955 C9.6312338,3.63585227 9.81410417,3.01142045 9.81410417,2.72732955 L10.5455856,2.49948864 C10.5455856,2.49948864 10.6065424,2.49948864 10.6065424,2.556875 L10.6065424,2.556875 Z M16.7631782,4.14778409 L16.3974375,4.26142045 C16.2145671,5.00005682 15.97074,5.85232955 15.4830856,6.81823864 C15.2392585,6.98869318 14.9344745,7.15914773 14.6296906,7.32903409 C13.8372523,7.67051136 12.9838573,7.89721591 12.0085486,7.95460227 C12.0085486,8.01142045 12.0085486,7.67051136 11.9475918,6.87505682 C12.6181165,6.931875 13.2886412,6.81823864 13.8982091,6.64778409 L12.9229005,4.14778409 L12.3742894,3.97732955 C12.3742894,3.63585227 12.3742894,3.23869318 12.3133326,2.78357955 L12.8009869,2.72732955 L13.044814,3.12505682 L13.8372523,3.12505682 C13.9591659,3.12505682 14.0810795,3.181875 14.0810795,3.29551136 L14.0201227,4.03414773 L13.7153387,4.20403409 C13.7762955,4.488125 13.8372523,4.71596591 13.8982091,5.00005682 C14.0201227,5.62448864 14.2029931,6.13642045 14.3858634,6.59096591 C14.6296906,6.47676136 14.9344745,6.306875 15.2392585,6.13642045 C15.5440424,5.51142045 15.7878696,4.88642045 15.97074,4.31823864 L15.2392585,4.14778409 L15.1783017,3.181875 L16.3364807,3.181875 C16.5803079,3.181875 16.7022215,3.23869318 16.7631782,3.40914773 L16.7631782,4.14778409 Z M18.4090116,2.21539773 C19.3843202,3.12505682 19.8110177,4.14778409 19.8110177,5.28414773 C19.8110177,5.90857955 19.6891042,6.47676136 19.3843202,7.10232955 C19.1404931,7.613125 18.7747523,8.12505682 18.287098,8.52278409 L17.6775301,8.35232955 C18.0432708,8.06823864 18.4090116,7.67051136 18.7137955,7.15914773 C19.0185795,6.53414773 19.2014498,5.96596591 19.2014498,5.28414773 C19.2014498,4.20403409 18.7137955,3.23869318 17.7384869,2.38642045 L18.4090116,2.21539773 Z M28.5887955,4.14778409 L28.2230548,4.26142045 C28.0401844,5.00005682 27.7963573,5.85232955 27.3087029,6.81823864 C27.0648758,6.98869318 26.7600918,7.15914773 26.4553079,7.32903409 C25.6628696,7.67051136 24.8094745,7.89721591 23.8341659,7.95460227 C23.8341659,8.01142045 23.8341659,7.67051136 23.7732091,6.87505682 C24.4437338,6.931875 25.1142585,6.81823864 25.7238264,6.64778409 L24.7485177,4.14778409 L24.1999066,3.97732955 C24.1999066,3.63585227 24.1999066,3.23869318 24.1389498,2.78357955 L24.6266042,2.72732955 L24.8704313,3.12505682 L25.6628696,3.12505682 C25.7847832,3.12505682 25.9066968,3.181875 25.9066968,3.29551136 L25.84574,4.03414773 L25.540956,4.20403409 C25.6019128,4.488125 25.6628696,4.71596591 25.7238264,5.00005682 C25.84574,5.62448864 26.0286103,6.13642045 26.2114807,6.59096591 C26.4553079,6.47676136 26.7600918,6.306875 27.0648758,6.13642045 C27.3696597,5.51142045 27.6134869,4.88642045 27.7963573,4.31823864 L27.0648758,4.14778409 L27.003919,3.181875 L28.162098,3.181875 C28.4059252,3.181875 28.5278387,3.23869318 28.5887955,3.40914773 L28.5887955,4.14778409 Z M31.8804622,3.63585227 C31.8804622,5.05630682 31.8804622,6.306875 32.0023758,7.44323864 L31.2708943,7.72732955 L31.2708943,4.60232955 C31.2708943,4.488125 31.2099375,4.37505682 31.1489807,4.26142045 C31.0270671,4.09096591 30.8441968,4.03414773 30.6003696,4.03414773 L29.8079313,4.03414773 C29.8079313,3.63585227 29.8079313,3.23869318 29.6860177,2.72732955 L30.1127153,2.67051136 L30.3565424,3.06767045 L31.2099375,3.06767045 C31.5756782,3.06767045 31.7585486,3.23869318 31.8804622,3.63585227 L31.8804622,3.63585227 Z M36.0255239,7.67051136 L33.2215116,7.67051136 L33.4043819,6.70460227 L35.2940424,6.70460227 C35.2940424,6.47676136 35.3549992,6.25005682 35.3549992,6.02278409 C35.3549992,5.34039773 35.2330856,4.65914773 35.0502153,4.03414773 L34.0749066,4.03414773 C34.0749066,3.63585227 34.0749066,3.181875 34.0139498,2.72732955 L34.5016042,2.67051136 L34.7454313,3.06767045 L35.4769128,3.06767045 C35.7816968,3.06767045 35.9645671,3.23869318 36.0255239,3.57960227 L36.0255239,7.67051136 Z M40.4753696,3.06767045 C40.9630239,3.06767045 41.2678079,3.23869318 41.3897215,3.63585227 C41.3897215,3.75005682 41.4506782,3.86369318 41.4506782,3.97732955 C41.4506782,4.431875 41.3287647,4.94323864 41.0239807,5.45460227 C40.5972832,6.25005682 39.8048449,6.98869318 38.7685795,7.67051136 L38.3418819,7.67051136 L38.2809252,6.64778409 C38.7685795,6.59096591 39.3171906,6.306875 39.9267585,5.73869318 C40.4753696,5.22732955 40.7191968,4.82960227 40.7191968,4.60232955 C40.7191968,4.54551136 40.7191968,4.54551136 40.65824,4.488125 C40.7191968,4.431875 40.65824,4.37505682 40.5972832,4.26142045 C40.4753696,4.09096591 40.353456,4.03414773 40.2315424,4.03414773 L37.2446597,4.03414773 L37.2446597,1.93130682 C37.2446597,1.25005682 37.1837029,0.738693182 37.1837029,0.454602273 L37.9761412,0.397784091 C38.0980548,0.397784091 38.1590116,0.454602273 38.2199684,0.510852273 L38.3418819,1.306875 L37.7932708,1.306875 C37.732314,1.47732955 37.732314,1.70460227 37.732314,1.87505682 C37.732314,2.27278409 37.7932708,2.61369318 37.9151844,2.95460227 L40.4753696,2.95460227 L40.4753696,3.06767045 Z M50.4722832,4.37505682 C50.4722832,5.34039773 50.53324,6.36369318 50.7161103,7.38642045 C50.4113264,7.50005682 50.1674992,7.613125 49.8627153,7.72732955 L49.8627153,5.05630682 C49.8017585,4.37505682 49.5579313,3.97732955 49.070277,3.97732955 L47.0587029,3.97732955 L46.8758326,4.488125 C46.9367894,4.94323864 46.9977461,5.73869318 47.1196597,6.76085227 C47.1196597,6.931875 47.1196597,7.21596591 47.0587029,7.613125 L45.3519128,7.613125 L45.59574,6.64778409 L46.449135,6.64778409 C46.3881782,6.306875 46.3881782,5.96596591 46.3881782,5.56823864 C46.3881782,5.17051136 46.3881782,4.77278409 46.449135,4.48869318 C46.5100918,4.31823864 46.5710486,4.14778409 46.6929622,3.97732955 C46.753919,3.97732955 46.5710486,3.92051136 46.0833943,3.86369318 C46.0833943,3.63642045 46.0833943,3.181875 46.0224375,2.556875 C45.9614807,2.556875 46.0833943,2.556875 46.449135,2.50005682 L46.6929622,2.89778409 L49.7408017,2.89778409 C50.1674992,2.89778409 50.4113264,3.12505682 50.53324,3.63642045 C50.4722832,3.97732955 50.4722832,4.14778409 50.4722832,4.37505682 L50.4722832,4.37505682 Z M54.2516042,3.63585227 C54.2516042,5.05630682 54.2516042,6.306875 54.3735177,7.44323864 L53.6420363,7.72732955 L53.6420363,4.60232955 C53.6420363,4.488125 53.5810795,4.37505682 53.5201227,4.26142045 C53.3982091,4.09096591 53.2153387,4.03414773 52.9715116,4.03414773 L52.1790733,4.03414773 C52.1790733,3.63585227 52.1790733,3.23869318 52.0571597,2.72732955 L52.4838573,2.67051136 L52.7276844,3.06767045 L53.5810795,3.06767045 C53.8858634,3.06767045 54.1296906,3.23869318 54.2516042,3.63585227 L54.2516042,3.63585227 Z M59.9815424,6.53414773 C59.8596289,6.76085227 59.7986721,6.931875 59.6767585,7.10232955 C59.4329313,7.50005682 59.250061,7.67051136 59.1281474,7.72732955 L55.5316968,7.72732955 L55.8364807,6.76085227 L58.8233634,6.76085227 C59.1891042,6.76085227 59.3719745,6.64778409 59.3110177,6.36369318 C59.3110177,5.96596591 59.250061,5.56823864 59.1891042,5.28414773 C59.0062338,4.54551136 58.5795363,4.14778409 58.0309252,4.03414773 L55.9583943,4.03414773 C55.9583943,3.63585227 55.9583943,3.181875 55.8364807,2.72732955 L56.2631782,2.67051136 L56.5070054,3.06767045 L58.5795363,3.06767045 C59.0671906,3.06767045 59.4329313,3.40914773 59.7377153,4.03414773 L59.9815424,6.53414773 Z M63.5170363,4.09096591 L62.6636412,4.03414773 C62.6636412,4.31823864 62.6026844,4.65914773 62.6026844,5.05630682 C62.6026844,5.85232955 62.6636412,6.64778409 62.7855548,7.50005682 C62.6026844,7.556875 62.2979005,7.613125 61.8712029,7.72732955 C62.0540733,6.42051136 62.0540733,5.17051136 61.9931165,3.97732955 L61.3835486,3.86369318 C61.3835486,3.52278409 61.3835486,3.12505682 61.3225918,2.67051136 L61.8102461,2.61369318 L61.9931165,3.01142045 L63.0903387,3.01142045 C63.3341659,3.01142045 63.4560795,3.12505682 63.5170363,3.35176136 L63.5170363,4.09096591 Z M69.9174992,4.03414773 L69.3688881,4.14778409 C69.3688881,5.56823864 69.4298449,6.70460227 69.6127153,7.556875 C69.3688881,7.613125 69.0641042,7.72732955 68.6983634,7.78414773 L68.6983634,4.03414773 L64.8580856,4.03414773 C64.8580856,3.86369318 64.7971289,3.40914773 64.7361721,2.72732955 L65.2238264,2.67051136 L65.4676535,3.06767045 L69.5517585,3.06767045 C69.6736721,3.06767045 69.7955856,3.12505682 69.978456,3.23869318 L69.9174992,4.03414773 Z M65.7724375,5.00005682 L65.7724375,5.00005682 C65.7724375,5.17051136 65.7114807,5.56823864 65.7114807,6.19267045 L65.7114807,7.613125 C65.5286103,7.67051136 65.2847832,7.72732955 64.8580856,7.78414773 L65.1019128,5.22732955 L65.7724375,5.00005682 Z M77.232314,3.06767045 C77.7199684,3.06767045 78.0247523,3.23869318 78.1466659,3.63585227 C78.1466659,3.75005682 78.2076227,3.86369318 78.2076227,3.97732955 C78.2076227,4.431875 78.0857091,4.94323864 77.7809252,5.45460227 C77.3542276,6.25005682 76.5617894,6.98869318 75.5255239,7.67051136 L75.1597832,7.67051136 L75.0988264,6.64778409 C75.5864807,6.59096591 76.1350918,6.306875 76.7446597,5.73869318 C77.2932708,5.22732955 77.537098,4.82960227 77.537098,4.60232955 C77.537098,4.54551136 77.537098,4.54551136 77.4761412,4.488125 C77.537098,4.431875 77.4761412,4.37505682 77.4151844,4.26142045 C77.2932708,4.09096591 77.1713573,4.03414773 77.0494437,4.03414773 L74.062561,4.03414773 C74.062561,3.75005682 74.062561,3.06767045 74.0016042,1.93130682 C74.0016042,1.25005682 73.9406474,0.738693182 73.9406474,0.454602273 L74.7330856,0.397784091 C74.8549992,0.397784091 74.915956,0.454602273 74.9769128,0.510852273 L75.0988264,1.306875 L74.5502153,1.306875 C74.4892585,1.47732955 74.4892585,1.70460227 74.4892585,1.87505682 C74.4892585,2.27278409 74.5502153,2.61369318 74.6721289,2.95460227 L77.232314,2.95460227 L77.232314,3.06767045 Z M84.2423449,4.14778409 L83.8766042,4.26142045 C83.6937338,5.00005682 83.4499066,5.85232955 82.9622523,6.81823864 C82.7184252,6.98869318 82.4136412,7.15914773 82.1088573,7.32903409 C81.316419,7.67051136 80.4630239,7.89721591 79.4877153,7.95460227 C79.4877153,8.01142045 79.4877153,7.67051136 79.4267585,6.87505682 C80.0972832,6.931875 80.7678079,6.81823864 81.3773758,6.64778409 L80.4020671,4.14778409 L79.853456,3.97732955 C79.853456,3.63585227 79.853456,3.23869318 79.7924992,2.78357955 L80.2801535,2.72732955 L80.5239807,3.12505682 L81.316419,3.12505682 C81.4383326,3.12505682 81.5602461,3.181875 81.5602461,3.29551136 L81.4992894,4.03414773 L81.1945054,4.20403409 C81.2554622,4.488125 81.316419,4.71596591 81.3773758,5.00005682 C81.4992894,5.62448864 81.6821597,6.13642045 81.8650301,6.59096591 C82.1088573,6.47676136 82.4136412,6.306875 82.7184252,6.13642045 C83.0232091,5.51142045 83.2670363,4.88642045 83.4499066,4.31823864 L82.7184252,4.14778409 L82.6574684,3.181875 L83.8156474,3.181875 C84.0594745,3.181875 84.1813881,3.23869318 84.2423449,3.40914773 L84.2423449,4.14778409 Z M93.5687338,4.03414773 L93.0201227,4.14778409 C93.0201227,5.56823864 93.0810795,6.70460227 93.2639498,7.556875 C93.0201227,7.613125 92.7153387,7.72732955 92.349598,7.78414773 L92.349598,4.03414773 L88.5093202,4.03414773 C88.5093202,3.86369318 88.4483634,3.40914773 88.3874066,2.72732955 L88.875061,2.67051136 L89.1188881,3.06767045 L93.2029931,3.06767045 C93.3249066,3.06767045 93.4468202,3.12505682 93.6296906,3.23869318 L93.5687338,4.03414773 Z M89.4846289,5.00005682 L89.4846289,5.00005682 C89.4846289,5.17051136 89.4236721,5.56823864 89.4236721,6.19267045 L89.4236721,7.613125 C89.2408017,7.67051136 88.9969745,7.72732955 88.570277,7.78414773 L88.8141042,5.22732955 L89.4846289,5.00005682 Z M98.445277,5.85232955 C98.445277,6.70460227 98.5062338,7.27278409 98.5671906,7.613125 L97.7747523,7.84096591 C97.8357091,7.10232955 97.8357091,6.47676136 97.8357091,5.96596591 C97.8357091,5.39778409 97.8357091,5.00005682 97.7747523,4.71596591 C97.5918819,4.20403409 97.287098,3.97732955 96.8604005,3.97732955 L94.7878696,3.97732955 C94.7878696,3.806875 94.7269128,3.35176136 94.665956,2.67051136 L95.1536103,2.61369318 L95.3974375,3.01142045 L97.287098,3.01142045 C97.8357091,3.01142045 98.2014498,3.35176136 98.5062338,3.97732955 C98.5062338,4.65914773 98.445277,5.28414773 98.445277,5.85232955 L98.445277,5.85232955 Z M101.066419,3.06767045 C101.554073,3.06767045 101.858857,3.181875 101.980771,3.40914773 C102.041728,3.63585227 102.041728,3.86369318 102.041728,4.14778409 C102.041728,4.82960227 101.919814,5.51142045 101.61503,6.19267045 C101.493117,6.13642045 101.249289,6.02278409 100.822592,5.79551136 C101.188333,5.34039773 101.310246,4.82960227 101.371203,4.37505682 C101.310246,4.20403409 101.188333,4.09096591 100.944505,4.09096591 L99.8472832,4.09096591 C99.8472832,3.69323864 99.8472832,3.29551136 99.7253696,2.78357955 L100.152067,2.72732955 L100.395894,3.12505682 L101.066419,3.12505682 L101.066419,3.06767045 Z M108.320277,6.64778409 L108.137407,7.67051136 L105.02861,7.67051136 L105.272437,6.70460227 L107.710709,6.70460227 C107.710709,5.56823864 107.527839,4.71596591 107.101141,4.09096591 C106.857314,4.03414773 106.491573,3.97732955 105.882005,4.03414773 C105.760092,4.09096591 105.638178,4.14778409 105.516265,4.26142045 C105.211481,4.431875 104.967654,4.65914773 104.723826,4.88642045 C104.66287,5.17051136 104.479999,6.07960227 104.175215,7.613125 L103.260863,7.613125 C103.809475,6.13642045 104.114258,5.00005682 104.053302,4.26142045 C104.114258,4.03414773 103.809475,3.91994318 103.199907,3.91994318 C103.199907,3.75005682 103.13895,3.35176136 103.077993,2.67051136 L103.565647,2.61369318 L103.809475,3.01142045 L104.297129,3.01142045 C104.479999,3.01142045 104.601913,3.12505682 104.66287,3.40914773 L104.723826,4.26142045 L105.942962,2.95460227 L106.979228,2.95460227 C107.466882,2.95460227 107.832623,3.181875 108.07645,3.69323864 L108.320277,6.64778409 Z M115.817962,3.06767045 L115.817962,3.97732955 L115.452221,4.14778409 C115.208394,5.22732955 114.90361,6.13642045 114.415956,6.76085227 C114.294042,6.931875 114.050215,7.10232955 113.745431,7.27278409 C113.01395,7.613125 112.038641,7.78414773 110.697592,7.78414773 C110.331851,6.87505682 110.148981,5.681875 110.148981,4.20403409 L109.661326,3.97732955 L109.661326,2.72732955 L110.148981,2.72732955 L110.270894,3.12505682 L111.124289,3.12505682 C111.185246,3.35176136 111.246203,3.69323864 111.246203,4.03414773 L110.575678,4.14778409 C110.636635,5.51142045 110.880462,6.36369318 111.368117,6.87505682 C111.49003,6.59096591 111.611944,6.306875 111.733857,6.02278409 C111.977684,5.34039773 112.221512,4.71596591 112.343425,4.20403409 L112.038641,3.97732955 L111.977684,3.12505682 L113.318734,3.12505682 C113.440647,3.181875 113.501604,3.52278409 113.501604,4.03414773 L112.952993,4.20460227 C112.648209,5.00005682 112.282468,5.85232955 111.855771,6.81823864 C112.465339,6.76142045 112.892036,6.70460227 113.074907,6.64778409 C113.501604,6.53414773 113.867345,6.306875 114.111172,5.96596591 C114.415956,5.56823864 114.659783,5.00005682 114.72074,4.20460227 L114.172129,3.97732955 C114.111172,3.40914773 114.050215,3.12505682 114.111172,3.06823864 L115.817962,3.06823864 L115.817962,3.06767045 Z M120.145894,3.06767045 C120.633549,3.06767045 120.938333,3.23869318 121.060246,3.63585227 C121.060246,3.75005682 121.121203,3.86369318 121.121203,3.97732955 C121.121203,4.431875 120.999289,4.94323864 120.694505,5.45460227 C120.267808,6.25005682 119.47537,6.98869318 118.439104,7.67051136 L118.073363,7.67051136 L118.012407,6.64778409 C118.500061,6.59096591 119.048672,6.306875 119.65824,5.73869318 C120.206851,5.22732955 120.450678,4.82960227 120.450678,4.60232955 C120.450678,4.54551136 120.450678,4.54551136 120.389721,4.488125 C120.450678,4.431875 120.389721,4.37505682 120.328765,4.26142045 C120.206851,4.09096591 120.084937,4.03414773 119.963024,4.03414773 L116.976141,4.03414773 C116.976141,3.75005682 116.976141,3.06767045 116.915184,1.93130682 C116.915184,1.25005682 116.915184,0.738693182 116.854228,0.454602273 L117.646666,0.397784091 C117.768579,0.397784091 117.829536,0.454602273 117.890493,0.510852273 L118.012407,1.306875 L117.463796,1.306875 C117.402839,1.47732955 117.402839,1.70460227 117.402839,1.87505682 C117.402839,2.27278409 117.463796,2.61369318 117.585709,2.95460227 L120.145894,2.95460227 L120.145894,3.06767045 Z M127.460709,4.09096591 L126.607314,4.03414773 C126.607314,4.31823864 126.546357,4.65914773 126.546357,5.05630682 C126.546357,5.85232955 126.607314,6.64778409 126.729228,7.50005682 C126.546357,7.556875 126.241573,7.613125 125.814876,7.72732955 C125.936789,6.42051136 125.997746,5.17051136 125.936789,3.97732955 L125.327221,3.86369318 C125.327221,3.52278409 125.327221,3.12505682 125.266265,2.67051136 L125.753919,2.61369318 L125.936789,3.01142045 L127.034012,3.01142045 C127.277839,3.01142045 127.399752,3.12505682 127.460709,3.35176136 L127.460709,4.09096591 Z M132.94682,6.53414773 C132.824907,6.76085227 132.76395,6.931875 132.642036,7.10232955 C132.398209,7.50005682 132.215339,7.67051136 132.093425,7.72732955 L128.496975,7.72732955 L128.801758,6.76085227 L131.788641,6.76085227 C132.154382,6.76085227 132.337252,6.64778409 132.276296,6.36369318 C132.276296,5.96596591 132.215339,5.56823864 132.154382,5.28414773 C131.971512,4.54551136 131.544814,4.14778409 130.996203,4.03414773 L128.923672,4.03414773 C128.923672,3.63585227 128.923672,3.181875 128.801758,2.72732955 L129.228456,2.67051136 L129.472283,3.06767045 L131.544814,3.06767045 C132.032468,3.06767045 132.398209,3.40914773 132.702993,4.03414773 L132.94682,6.53414773 Z M137.823363,5.85232955 C137.823363,6.70460227 137.88432,7.27278409 137.945277,7.613125 L137.152839,7.84096591 C137.213796,7.10232955 137.213796,6.47676136 137.213796,5.96596591 C137.213796,5.39778409 137.213796,5.00005682 137.152839,4.71596591 C136.969968,4.20403409 136.665184,3.97732955 136.238487,3.97732955 L134.165956,3.97732955 C134.165956,3.806875 134.104999,3.35176136 134.044042,2.67051136 L134.531697,2.61369318 L134.775524,3.01142045 L136.665184,3.01142045 C137.213796,3.01142045 137.579536,3.35176136 137.88432,3.97732955 C137.823363,4.65914773 137.823363,5.28414773 137.823363,5.85232955 L137.823363,5.85232955 Z M144.040956,6.64778409 L143.858086,7.67051136 L140.749289,7.67051136 L140.993117,6.70460227 L143.431388,6.70460227 C143.431388,5.56823864 143.248518,4.71596591 142.82182,4.09096591 C142.577993,4.03414773 142.212252,3.97732955 141.602684,4.03414773 C141.480771,4.09096591 141.358857,4.14778409 141.236944,4.26142045 C140.93216,4.431875 140.688333,4.65914773 140.444505,4.88642045 C140.383549,5.17051136 140.200678,6.07960227 139.895894,7.613125 L138.981542,7.613125 C139.530154,6.13642045 139.834938,5.00005682 139.773981,4.26142045 C139.834938,4.03414773 139.530154,3.91994318 138.920586,3.91994318 C138.920586,3.75005682 138.859629,3.35176136 138.798672,2.67051136 L139.286326,2.61369318 L139.530154,3.01142045 L140.017808,3.01142045 C140.200678,3.01142045 140.322592,3.12505682 140.383549,3.40914773 L140.444505,4.26142045 L141.663641,2.95460227 L142.699907,2.95460227 C143.187561,2.95460227 143.553302,3.181875 143.797129,3.69323864 L144.040956,6.64778409 Z" id="Fill-1" fill="#FFFFFF" mask="url(#mask-4)"></path>
                        </g>
                        <polygon id="Fill-4" fill="#FFFFFF" points="147.149691 5.79545455 150.989969 5.79545455 150.989969 4.94318182 147.149691 4.94318182"></polygon>
                        <path d="M160.011452,4.204375 L159.462841,4.31801136 C159.462841,5.73846591 159.523798,6.87482955 159.706668,7.72710227 C159.462841,7.78392045 159.158057,7.89755682 158.792316,7.95494318 L158.792316,4.204375 L154.891082,4.204375 C154.891082,4.03392045 154.830125,3.579375 154.769168,2.89755682 L155.256823,2.84130682 L155.50065,3.23846591 L159.584755,3.23846591 C159.706668,3.23846591 159.828582,3.29528409 160.011452,3.40948864 L160.011452,4.204375 Z M155.927347,5.17028409 L155.927347,5.17028409 C155.927347,5.34073864 155.86639,5.73846591 155.86639,6.36346591 L155.86639,7.78392045 C155.68352,7.84073864 155.439693,7.89755682 155.012995,7.95494318 L155.256823,5.398125 L155.927347,5.17028409 Z M167.509137,3.23846591 L167.509137,4.14755682 L167.143397,4.31801136 C166.899569,5.398125 166.594785,6.30664773 166.107131,6.93164773 C165.985218,7.10267045 165.74139,7.27255682 165.436606,7.44301136 C164.766082,7.78392045 163.729816,7.95494318 162.388767,7.95494318 C162.023026,7.04528409 161.840156,5.85210227 161.840156,4.37482955 L161.352502,4.14755682 L161.352502,2.89755682 L161.840156,2.89755682 L161.962069,3.29528409 L162.815465,3.29528409 C162.876421,3.52255682 162.937378,3.86346591 162.937378,4.204375 L162.266853,4.31801136 C162.32781,5.68221591 162.571637,6.59073864 163.059292,7.04528409 C163.181205,6.76119318 163.303119,6.47710227 163.425032,6.19301136 C163.66886,5.51119318 163.912687,4.88619318 164.0346,4.37482955 L163.729816,4.14755682 L163.66886,3.23846591 L165.009909,3.23846591 C165.131823,3.29528409 165.192779,3.63619318 165.192779,4.14755682 L164.644168,4.31801136 C164.339384,5.11403409 163.973644,5.96630682 163.546946,6.93221591 C164.156514,6.87482955 164.583211,6.81857955 164.766082,6.76119318 C165.192779,6.648125 165.55852,6.42028409 165.802347,6.07994318 C166.107131,5.68221591 166.350958,5.11403409 166.411915,4.31801136 L165.863304,4.09130682 C165.802347,3.523125 165.74139,3.23903409 165.802347,3.18164773 L167.509137,3.18164773 L167.509137,3.23846591 Z M170.069323,3.23846591 C170.556977,3.23846591 170.861761,3.35210227 170.983674,3.579375 C171.044631,3.80664773 171.044631,4.03392045 171.044631,4.31801136 C171.044631,4.99982955 170.922718,5.68221591 170.617934,6.36346591 C170.49602,6.30664773 170.252193,6.19301136 169.886452,5.96630682 C170.252193,5.454375 170.374106,4.99982955 170.435063,4.54585227 C170.374106,4.37482955 170.252193,4.26176136 170.008366,4.26176136 L168.911144,4.26176136 C168.911144,3.86346591 168.911144,3.46573864 168.78923,2.954375 L169.215927,2.89755682 L169.459755,3.29528409 L170.069323,3.29528409 L170.069323,3.23846591 Z M175.555434,7.61346591 C175.372563,7.67085227 175.067779,7.78392045 174.762995,7.95494318 L174.397255,6.42028409 C174.275341,6.64755682 174.214384,6.81857955 174.092471,6.98846591 C173.848644,7.38676136 173.665773,7.72710227 173.482903,7.89755682 L172.446637,7.89755682 L172.324724,6.93164773 L172.568551,6.93164773 C173.056205,6.93164773 173.421946,6.76119318 173.72673,6.47710227 C173.9096,6.30664773 174.031514,6.079375 174.214384,5.90892045 C174.153427,5.51119318 174.092471,5.11403409 174.031514,4.71573864 C173.9096,4.43164773 173.72673,4.26176136 173.54386,4.26176136 L172.873335,4.26176136 L172.751421,3.01119318 L173.178119,2.954375 L173.360989,3.29528409 L174.092471,3.29528409 C174.397255,3.29528409 174.519168,3.52255682 174.641082,4.03392045 C174.702039,4.43164773 174.702039,4.94301136 174.762995,5.454375 C174.823952,6.19301136 175.128736,6.87482955 175.555434,7.61346591 Z" id="Fill-6" fill="#FFFFFF"></path>
                    </g>
                </g>
            </g>
        </g>
    </g>
</svg>