<?xml version="1.0" encoding="UTF-8"?>
<svg width="146px" height="40px" viewBox="0 0 146 40" version="1.1" xmlns="http://www.w3.org/2000/svg" xmlns:xlink="http://www.w3.org/1999/xlink">
    <!-- Generator: Sketch 62 (91390) - https://sketch.com -->
    <title>logo / white heb mobile</title>
    <desc>Created with Sketch.</desc>
    <defs>
        <polygon id="path-1" points="6.64093972e-05 0.107832563 2.32439531 0.107832563 2.32439531 2.44459425 6.64093972e-05 2.44459425"></polygon>
    </defs>
    <g id="symbols" stroke="none" stroke-width="1" fill="none" fill-rule="evenodd">
        <g id="header-/-content-mobile" transform="translate(-177.000000, 0.000000)">
            <g id="Group-2">
                <g id="logo-/-white-heb-no-tag" transform="translate(177.000000, 0.000000)">
                    <g id="Group-16">
                        <polygon id="Fill-1" fill="#FFFFFF" points="119.950207 0 131.600874 20 119.950207 40 134.370553 40 146 20 134.370553 0"></polygon>
                        <g id="Group-34" transform="translate(0.000000, 0.606061)">
                            <path d="M92.2426527,30.6470827 C92.2426527,32.9172419 90.2503708,34.0189368 88.3244983,34.0189368 C87.3947667,34.0189368 86.0997835,33.885398 84.2403203,33.017396 L84.2403203,31.0143143 L86.0001694,31.0143143 L86.365421,31.5484694 C86.9299009,31.815547 87.5939949,31.9487519 88.2580889,31.9487519 C89.2542298,31.9487519 90.0843473,31.5818541 90.0843473,30.7472368 C90.0843473,29.7123112 88.8889781,29.3116949 87.693609,28.9110786 C86.0665788,28.4103082 84.2403203,27.7092296 84.2403203,25.6059938 C84.2403203,23.3024499 86.1661929,22.3009091 88.1252701,22.3009091 C88.8557734,22.3009091 89.9847332,22.4010632 91.7445822,23.3358346 L91.7445822,25.1719928 L89.9847332,25.1719928 L89.7190956,24.7379918 C89.1878204,24.4709142 88.6897499,24.3373754 88.1252701,24.3373754 C87.2619479,24.3373754 86.3986257,24.7379918 86.3986257,25.6059938 C86.3986257,26.3070724 87.2619479,26.6409194 88.5901359,27.1083051 C90.5160084,27.7426143 92.2426527,28.3101541 92.2426527,30.6470827" id="Fill-1" fill="#FFFFFF"></path>
                            <path d="M106.819482,29.9793888 C106.786277,30.1463123 106.786277,30.3466204 106.786277,30.4801592 C106.786277,31.4149307 107.217939,31.9157011 108.014851,31.9157011 C108.911378,31.9157011 109.807905,31.3147766 110.571613,30.7802876 L110.571613,28.8776939 L106.819482,29.9793888 Z M110.604818,25.7061479 C110.604818,24.8047612 110.139952,24.4709142 109.575472,24.4709142 C108.944583,24.4709142 107.981647,24.8047612 107.317553,25.2053775 L107.317553,26.0066102 L105.192452,26.0066102 L105.192452,24.3707601 C106.487435,23.3358346 108.579331,22.3676785 109.807905,22.3676785 C111.401731,22.3676785 112.696714,23.2690652 112.696714,25.6059938 L112.696714,31.7818285 L113.892083,31.7818285 L113.892083,33.3846276 L111.667368,33.8520134 L110.90366,33.8520134 L110.90366,32.7169337 C109.874314,33.5181664 108.944583,33.9518336 108.014851,33.9518336 C105.790137,33.9518336 104.89361,32.3497021 104.89361,30.5469286 C104.89361,29.9456703 104.993224,29.2115408 105.192452,28.5438469 L110.604818,27.008151 L110.604818,25.7061479 Z" id="Fill-3" fill="#FFFFFF"></path>
                            <path d="M70.6595986,29.0779353 C71.9213772,29.0779353 72.9175181,28.1097791 72.9175181,26.8077761 C72.9175181,25.505773 71.9213772,24.5042322 70.6595986,24.5042322 C69.3978201,24.5042322 68.4016791,25.5391577 68.4016791,26.8077761 C68.4016791,28.1097791 69.3978201,29.0779353 70.6595986,29.0779353 L70.6595986,29.0779353 Z M68.2688603,30.5802465 C67.0402865,29.7122445 66.2433737,28.4770108 66.2433737,26.8077761 C66.2433737,24.3373087 68.2024509,22.3008423 70.6595986,22.3008423 C71.1576691,22.3008423 71.6225349,22.4009964 72.054196,22.5345352 L76.4372162,22.5345352 L76.4372162,24.5042322 L74.6773671,24.9048485 C74.9430047,25.505773 75.1090282,26.1066975 75.1090282,26.7743914 C75.1090282,29.2448588 73.1167463,31.2479404 70.6928033,31.2479404 C70.393961,31.2479404 70.1283234,31.2145557 69.8626858,31.181171 L69.1321825,32.4497894 L72.1870147,32.4497894 C73.9800685,32.4497894 75.4742799,33.918716 75.4742799,35.7548742 C75.4742799,37.5910324 74.0132732,38.7594967 72.1870147,39.0933436 C70.3275516,39.4271905 69.4310248,39.2602671 68.6673167,39.0933436 C67.9036086,38.9598048 66.1105549,38.2587262 65.7120985,37.190416 C65.4132562,36.3891834 65.7785079,35.7882589 65.7785079,35.7882589 L66.9738771,34.4862558 L68.2688603,34.4862558 C68.2688603,34.4862558 67.637971,35.2874884 67.637971,36.0553364 C67.637971,36.322414 67.7707898,36.7897997 68.6673167,37.1570313 C69.5638436,37.4908783 71.0248503,37.6244171 72.1206053,37.2238007 C72.8511087,36.9567232 73.3823839,36.4559527 73.3823839,35.7548742 C73.3823839,35.0871803 72.817904,34.4862558 72.1206053,34.4862558 L66.9738771,34.4862558 L66.6750348,33.1842527 L68.2688603,30.5802465 Z" id="Fill-5" fill="#FFFFFF"></path>
                            <polygon id="Fill-7" fill="#FFFFFF" points="81.4178878 31.9156343 82.2480052 31.9156343 82.2480052 33.8519466 78.4626696 33.8519466 78.4626696 31.9156343 79.292787 31.9156343 79.292787 24.4708475 78.5622837 24.4708475 78.5622837 22.5345352 81.0194314 22.5345352 81.4178878 22.5345352"></polygon>
                            <path d="M81.2851022,19.5967155 C81.2851022,18.9624063 80.753827,18.4282512 80.1229377,18.4282512 C79.4920484,18.4282512 78.9607733,18.9624063 78.9607733,19.5967155 C78.9607733,20.2644093 79.4588437,20.7651798 80.1229377,20.7651798 C80.7870317,20.7651798 81.2851022,20.2310247 81.2851022,19.5967155" id="Fill-9" fill="#FFFFFF"></path>
                            <path d="M96.39324,33.8518798 L94.301344,33.8518798 L94.301344,16.458454 L96.39324,16.9258398 L96.39324,23.4024705 C97.5554045,22.6680072 98.5183407,22.3341602 99.7801193,22.3341602 C101.440354,22.3341602 102.702133,23.3023164 102.868156,25.4723215 C102.901361,26.2067848 102.96777,27.7758654 102.96777,29.4784848 L102.96777,33.8518798 L100.875874,33.8518798 L100.875874,29.5786389 C100.875874,27.9761736 100.875874,26.507247 100.809465,25.8729379 C100.709851,24.9715511 100.112166,24.6710889 99.3484582,24.6710889 C98.2859078,24.6710889 96.9909246,25.305398 96.4264447,25.8061685 L96.4264447,33.8518798 L96.39324,33.8518798 Z" id="Fill-11" fill="#FFFFFF"></path>
                            <path d="M81.2851022,19.5632974 C81.2851022,18.9289882 80.753827,18.3948331 80.1229377,18.3948331 C79.4588437,18.3948331 78.9607733,18.9289882 78.9607733,19.5632974 C78.9607733,20.2309913 79.4588437,20.7317617 80.1229377,20.7317617 C80.753827,20.7651464 81.2851022,20.2309913 81.2851022,19.5632974" id="Fill-13" fill="#FFFFFF"></path>
                            <g id="Group-17" transform="translate(65.081209, 0.226014)">
                                <mask id="mask-2" fill="white">
                                    <use xlink:href="#path-1"></use>
                                </mask>
                                <g id="Clip-16"></g>
                                <path d="M2.32439531,1.27612994 C2.32439531,0.64182075 1.79312013,0.107665639 1.16223086,0.107665639 C0.498136888,0.107665639 6.64093972e-05,0.64182075 6.64093972e-05,1.27612994 C6.64093972e-05,1.94382383 0.498136888,2.44459425 1.16223086,2.44459425 C1.79312013,2.44459425 2.32439531,1.94382383 2.32439531,1.27612994" id="Fill-15" fill="#FFFFFF" mask="url(#mask-2)"></path>
                            </g>
                            <path d="M96.39324,33.8186287 L94.301344,33.8186287 L94.301344,16.4585876 L96.39324,16.9259733 L96.39324,23.402604 C97.5554045,22.6681407 98.5183407,22.3342938 99.7801193,22.3342938 C101.440354,22.3342938 102.702133,23.3024499 102.868156,25.4724551 C102.901361,26.2069183 102.96777,27.775999 102.96777,29.4786184 L102.96777,33.8520134 L100.875874,33.8520134 L100.875874,29.5453878 C100.875874,27.9429224 100.875874,26.4739959 100.809465,25.8396867 C100.709851,24.9382999 100.112166,24.6378377 99.3484582,24.6378377 C98.2859078,24.6378377 96.9909246,25.2721469 96.39324,25.7729173 L96.39324,33.8186287 Z" id="Fill-18" fill="#FFFFFF"></path>
                            <path d="M50.3051848,7.37788392 L51.1685069,7.07742167 L51.1020975,5.07434001 C51.0688928,5.04095532 50.5708224,4.60695429 50.172366,4.60695429 L42.236443,4.60695429 L41.7383725,4.03941448 L40.6094128,4.17295326 L40.6094128,4.20633796 C40.8750504,6.10926554 40.9082551,7.01065229 40.9082551,7.01065229 L40.9082551,7.04403698 L40.9082551,7.07742167 L48.7777686,7.07742167 L48.7777686,16.1246739 L48.8109733,16.1246739 L48.8109733,16.1580586 L48.8773827,16.1580586 C48.8773827,16.1580586 49.9067284,15.890981 50.83646,15.5905187 L50.8696647,15.5905187 L50.8696647,15.5571341 C50.3051848,12.4857422 50.3051848,7.81188495 50.3051848,7.37788392" id="Fill-20" fill="#FFFFFF"></path>
                            <path d="M43.1329367,9.2474602 L41.5391111,9.815 L41.0410407,16.1247072 L41.0742454,16.1247072 L41.0742454,16.1580919 L41.1406548,16.1580919 C41.1406548,16.1580919 42.435638,15.8910144 43.0001179,15.7240909 L43.0333226,15.7240909 L43.0333226,15.6907062 L43.0333226,14.4554725 L43.0333226,12.2520827 C43.0665273,10.6162327 43.1661414,9.41438367 43.1661414,9.38099897 L43.1329367,9.2474602 Z" id="Fill-22" fill="#FFFFFF"></path>
                            <path d="M68.0032227,4.64043914 L68.0032227,4.64043914 L64.782367,4.60705444 L64.782367,4.64043914 C64.7159576,4.8407473 64.9483905,6.6435208 64.9815952,6.87721366 L65.7785079,7.41136877 C65.0147998,13.1201515 62.4912428,13.3204597 59.8348669,13.5207678 L59.5028199,13.5541525 C59.7352528,13.0199974 60.9638266,10.115529 61.9267629,7.37798408 L63.122132,6.94398305 L63.122132,6.91059836 C63.122132,6.84382897 63.0225179,5.10782486 62.7236756,4.67382383 C62.6904709,4.64043914 62.6904709,4.60705444 62.6572662,4.60705444 L59.5692293,4.60705444 L59.6356387,6.77705958 L60.3329373,7.31121469 C59.7020481,10.0153749 58.4402695,13.1535362 58.2410413,13.6543066 C58.2078366,13.6209219 58.1746319,13.5875372 58.1082225,13.4873832 C57.6765615,12.9198433 56.7136252,11.2506086 56.5476017,7.21106061 L57.6433568,6.94398305 L57.6433568,6.91059836 C57.6433568,6.91059836 57.6765615,5.60859527 57.3777192,4.64043914 L57.3777192,4.60705444 L57.3777192,4.57366975 L55.8170983,4.57366975 L55.5182561,4.03951464 L55.5182561,4.00612994 L54.3892963,4.00612994 L54.3892963,6.77705958 L54.422501,6.77705958 L55.418642,7.31121469 C55.418642,13.0867668 56.6472158,15.9244658 56.6804205,15.9578505 L56.6804205,15.9912352 L56.6804205,16.0246199 L56.7136252,16.0246199 C63.8194307,15.9578505 64.9815952,13.6209219 65.0147998,13.5207678 C65.0147998,13.4873832 66.4758066,11.4843015 67.2727194,7.2444453 L68.1360415,6.81044427 L68.0032227,4.64043914 Z" id="Fill-24" fill="#FFFFFF"></path>
                            <path d="M74.8766617,5.54172573 C74.8766617,5.54172573 74.843457,5.44157165 74.7438429,5.30803287 C74.5446148,5.04095532 74.0133396,4.64033898 72.8179704,4.64033898 L72.3199,4.64033898 L71.8218295,4.07279918 L70.7592791,4.23972265 L70.7592791,4.27310734 C71.0581214,6.17603493 70.991712,6.97726759 70.991712,6.97726759 L70.991712,7.04403698 L71.0249167,7.04403698 L71.0249167,7.07742167 L71.0913261,7.07742167 C71.0913261,7.07742167 71.7222154,7.04403698 72.1538765,7.04403698 C72.4859234,7.04403698 72.5523328,7.07742167 72.5855375,7.07742167 C73.1168127,7.07742167 73.3824503,7.27772984 73.5152691,7.47803801 C73.5816785,7.57819209 73.6148832,7.67834617 73.6148832,7.67834617 C73.6148832,7.67834617 73.8141114,8.37942476 72.6519469,10.0820442 L72.6187422,10.1154289 L72.6519469,10.1154289 L72.6851516,10.1488136 C72.6851516,10.1488136 73.9137255,10.9166615 74.3121819,11.1503544 L74.3453866,11.1837391 L74.3785913,11.1169697 C75.7067792,7.44465331 74.8766617,5.54172573 74.8766617,5.54172573" id="Fill-26" fill="#FFFFFF"></path>
                            <path d="M83.8419304,15.2901233 C82.0820813,12.1185773 82.0820813,9.88180277 82.0488766,8.04564458 C82.0488766,7.47810478 82.0488766,6.91056497 81.9824672,6.40979456 C81.9824672,6.37640986 81.8496484,5.50840781 81.4511921,5.00763739 C81.2851686,4.77394453 81.0527357,4.60702106 80.7538934,4.60702106 L79.1268632,4.60702106 L78.6619974,4.13963534 L77.599447,4.30655881 L77.599447,4.3399435 C77.8650846,6.24287108 77.931494,6.91056497 77.931494,6.94394967 L77.931494,6.97733436 L77.931494,7.01071905 L79.4921148,7.01071905 C79.7577524,7.01071905 79.9901853,7.21102722 80.1562088,7.41133539 C80.355437,7.71179764 80.4882558,8.01225989 80.4882558,8.01225989 C80.6210746,9.08057011 80.8203028,10.6162661 80.8535075,10.950113 C80.687484,11.0502671 80.5546652,11.2839599 80.3886417,11.5510375 C79.9237759,12.3188855 79.1932726,13.4873498 77.3006047,13.4873498 C77.1345812,13.4873498 76.9353531,13.4873498 76.7361249,13.4539651 L76.6697155,13.4539651 L76.9021484,15.8910478 L76.9021484,15.9244325 L79.1600679,15.9244325 L79.1932726,15.8910478 C79.9569806,14.9228916 80.9199169,13.019964 81.1855545,12.4858089 L81.9492625,16.1581253 L81.9492625,16.19151 L82.0156719,16.1247406 C82.447333,15.757509 83.7423163,15.3568927 83.775521,15.323508 L83.8419304,15.2901233 Z" id="Fill-28" fill="#FFFFFF"></path>
                            <path d="M3.12127487,29.5118695 C1.32822115,28.4101746 0.132851999,27.1749409 3.32046986e-05,26.0398613 L2.19154331,25.2386287 C2.4571809,26.0398613 3.12127487,26.9078634 4.48266752,27.709096 C6.24251654,28.7106369 8.86568773,29.1780226 12.1861576,29.1112532 C15.6062415,29.0110991 17.9305704,28.5770981 19.4579866,27.709096 C20.7529698,26.9746328 21.4502685,26.2067848 21.7491108,25.8395532 L21.8155202,9.64797637 L24.040235,8.8801284 L23.9406209,25.9397072 C24.1398491,26.4404777 25.0363759,28.2098665 27.4603189,28.2098665 C30.3491277,28.2098665 31.0464264,26.5740164 31.2456546,26.0398613 L31.2456546,9.64797637 L33.5367788,8.8801284 L33.4703694,26.073246 C33.6031882,26.5406317 34.3004869,28.2098665 37.4217285,28.2098665 C40.4433561,28.2098665 40.9746313,27.1415562 40.9746313,27.1415562 L40.9746313,21.8667745 L43.099732,21.3326194 C43.099732,21.3326194 42.7012756,24.5041654 43.1661414,26.8077093 C43.3653696,27.8426348 44.5939434,28.476944 46.3205877,28.476944 C48.2132556,28.476944 48.9769636,27.1415562 48.9769636,27.1415562 L48.8109401,21.8333898 L51.0024502,21.1656959 C51.0024502,21.1656959 50.703608,25.6726297 51.3677019,27.1081715 C51.7661583,27.9761736 53.0943463,28.4435593 54.2897154,28.4435593 C56.6140443,28.4435593 57.0125007,27.0080175 57.0125007,27.0080175 L57.0125007,20.2309245 L59.2040108,19.7635388 C59.2040108,19.7635388 58.5731215,25.3721674 59.3700343,26.9412481 C59.8016954,27.8092501 61.4287256,28.1430971 62.491276,28.1430971 L62.5244807,28.1430971 C64.0186921,28.1430971 64.9816284,27.4420185 65.2472659,27.1081715 C65.7121317,26.5406317 66.0773834,25.8061685 66.4758398,25.205244 C66.9739103,24.4707807 67.3059573,23.8364715 67.7044136,23.4358552 L69.2318298,24.9047817 C68.8333734,24.9381664 68.5677358,25.7393991 68.2356888,26.3737083 C67.8704371,27.0414022 67.339162,27.7424807 66.8078868,28.3767899 C66.343021,28.9777144 64.9816284,30.3464869 62.5244807,30.3464869 L62.491276,30.3464869 C60.498994,30.3464869 59.1708061,29.7789471 58.3406886,28.810791 C57.5437759,29.9124859 56.315202,30.5134104 54.3561248,30.5134104 C52.4966617,30.5134104 51.135269,29.7789471 50.3051516,28.7774063 C49.4750341,29.7789471 48.1800509,30.6135645 46.3205877,30.6135645 C44.4279199,30.6135645 42.9337085,29.8457165 42.1700004,28.7774063 C41.2402689,29.678793 39.8456715,30.3464869 37.4549332,30.3464869 C34.8649667,30.3464869 33.2711412,29.4117155 32.3414096,28.3434052 C31.4780875,29.2114073 29.8510572,30.4132563 27.4935236,30.3464869 C25.2688088,30.2797175 23.7745974,29.1780226 22.9112752,28.0095583 C22.280386,28.5770981 21.3174497,29.2781767 19.9892618,29.9124859 C18.0965939,30.8138726 15.340604,31.3480277 12.1197482,31.3480277 C8.50043605,31.4481818 5.11355679,30.7471032 3.12127487,29.5118695" id="Fill-30" fill="#FFFFFF"></path>
                            <path d="M13.9460398,21.3994556 C12.717466,21.3994556 11.721325,21.0322239 10.9244122,20.264376 C11.5553015,19.4297586 12.4186237,19.0291423 13.481174,19.0291423 C13.7468116,19.0291423 14.477315,19.1292964 14.809362,19.2294504 L15.3406372,17.3932922 C15.3406372,17.3932922 14.9753855,17.09283 14.2448821,17.09283 C13.1159224,17.09283 11.7545297,17.4600616 11.0904357,18.294679 C10.1939089,19.3629892 9.7622478,20.264376 9.7622478,20.9988392 C9.7622478,22.0003801 10.293523,22.6346893 11.3228686,22.8683821 C10.7251841,23.5694607 10.3267277,24.4374628 10.1274995,25.4723883 C11.389278,24.0702311 12.9831036,23.2356138 14.9421808,22.9685362 L15.7058888,20.9988392 C14.9753855,21.2659168 14.4109056,21.3994556 13.9460398,21.3994556" id="Fill-32" fill="#FFFFFF"></path>
                        </g>
                    </g>
                </g>
            </g>
        </g>
    </g>
</svg>